<svg xmlns="http://www.w3.org/2000/svg" viewBox="0 0 2734.06 2757.24"><defs><style>.cls-1{fill:none;}.cls-2{fill:#b55640;}.cls-10,.cls-11,.cls-12,.cls-13,.cls-14,.cls-15,.cls-16,.cls-17,.cls-18,.cls-19,.cls-20,.cls-21,.cls-22,.cls-23,.cls-24,.cls-3,.cls-4,.cls-5,.cls-6,.cls-7,.cls-8,.cls-9{fill:#ddbf92;stroke:#000;stroke-miterlimit:10;}.cls-3{stroke-width:0.55px;}.cls-4{stroke-width:0.53px;}.cls-5{stroke-width:0.51px;}.cls-6{stroke-width:0.54px;}.cls-7{stroke-width:0.51px;}.cls-8{stroke-width:0.5px;}.cls-9{stroke-width:0.6px;}.cls-10{stroke-width:0.51px;}.cls-11{stroke-width:0.5px;}.cls-12{stroke-width:0.57px;}.cls-13{stroke-width:0.55px;}.cls-14{stroke-width:0.56px;}.cls-15{stroke-width:0.54px;}.cls-16{stroke-width:0.59px;}.cls-17{stroke-width:0.56px;}.cls-18{stroke-width:0.57px;}.cls-19{stroke-width:0.57px;}.cls-20{stroke-width:0.55px;}.cls-21{stroke-width:0.58px;}.cls-22{stroke-width:0.59px;}.cls-23{stroke-width:0.51px;}.cls-24{stroke-width:0.59px;}</style></defs><title>bacon</title><g id="Layer_2" data-name="Layer 2"><g id="Layer_1-2" data-name="Layer 1"><rect class="cls-1" x="1238.7" y="97.06" width="409.44" height="179.35" transform="translate(-64.87 274.41) rotate(-12.94)"/><rect class="cls-2" x="1250.68" y="195.11" width="406.04" height="79.96" transform="translate(-75.43 277.94) rotate(-12.94)"/><path d="M1247.21,241.78,1265,319.17l395.19-90.78L1642.41,151l-395.2,90.78m-.66-.41,396.27-91,18,78.46-396.27,91-18-78.46Z" transform="translate(-59.7 -53.5)"/><rect class="cls-2" x="1228" y="98.83" width="406.57" height="79.96" transform="translate(-54.44 270.48) rotate(-12.94)"/><path d="M1224.54,145.57,1242.32,223,1638,132.06l-17.78-77.39-395.71,90.9m-.66-.41L1620.66,54l18,78.46-396.78,91.15-18-78.46Z" transform="translate(-59.7 -53.5)"/><path class="cls-3" d="M1242.94,204.09l12.18,76c28.9-7.18,46.85,9.87,84.15-21.08,24.64-20.45,56.22-50.31,88-30.37,32.14,20.14,66.38-37.17,121.06-24.69,42.16,9.62,97.54-27.34,97.26-28.7l-9.11-61,0-.14c-.28-1.36-64.7-8.58-99,20-44.54,37.12-97.78,1.54-119,34.93-21,33.06-61.14,21-91.36,14.18-45.74-10.33-55.32,13.56-84.23,20.74" transform="translate(-59.7 -53.5)"/><rect class="cls-1" x="700.63" y="180.78" width="171.35" height="391.17" transform="translate(88.65 916.95) rotate(-68.54)"/><rect class="cls-2" x="766.11" y="138.74" width="76.39" height="387.92" transform="translate(140.69 906.01) rotate(-68.54)"/><path d="M970.7,438.87l27.75-70.6L637.92,226.53l-27.76,70.61L970.7,438.87m.29.69L609.48,297.43l28.14-71.58L999.13,368,971,439.56Z" transform="translate(-59.7 -53.5)"/><rect class="cls-2" x="731.82" y="226.48" width="76.39" height="388.42" transform="translate(37.06 929.89) rotate(-68.54)"/><path d="M936.63,527l27.76-70.6-361-141.92L575.63,385,936.63,527m.3.68L575,385.33l28.14-71.58,362,142.3-28.14,71.58Z" transform="translate(-59.7 -53.5)"/><path class="cls-4" d="M953.72,470.89l31.41-66.47c-26.66-9.94-31.61-33.07-77.72-28.8-30.46,2.82-71.48,9.32-85.8-23.58-14.47-33.23-72.39-6.53-108.76-45.88-28-30.34-91.65-31.1-92.16-29.87l-25.75,53-.06.13c-.52,1.23,46.37,41.68,88.89,37.65,55.14-5.22,77.9,51.57,112.63,36.69,34.39-14.74,59.53,16.43,79.67,38.12C906.55,474.73,927,461.08,953.66,471" transform="translate(-59.7 -53.5)"/><rect class="cls-1" x="116.18" y="1424.71" width="165.36" height="377.49" transform="translate(-569.65 96.95) rotate(-18.82)"/><rect class="cls-2" x="118.63" y="1440.27" width="73.72" height="374.36" transform="matrix(0.95, -0.32, 0.32, 0.95, -576.48, 83.71)"/><path d="M129.82,1438.71l-69.29,23.62,120.62,353.85,69.29-23.62L129.82,1438.71m.32-.65,121,354.82-70.26,23.95L59.88,1462l70.26-24Z" transform="translate(-59.7 -53.5)"/><rect class="cls-2" x="204.8" y="1410.37" width="73.72" height="374.84" transform="translate(-562.31 109.92) rotate(-18.82)"/><path d="M215.91,1408.82l-69.29,23.62L267.4,1786.76l69.29-23.62L215.91,1408.82m.32-.64,121.11,355.27-70.26,24L146,1432.13l70.25-24Z" transform="translate(-59.7 -53.5)"/><path class="cls-5" d="M164,1431.23l-68.53,18.35c9.32,25.83-4.62,43.91,27.29,75.18,21.09,20.67,51.46,46.81,36.18,77.88C143.48,1634,199.28,1660,193,1711.33c-4.84,39.58,34.3,86.87,35.52,86.49l55.1-14.13.13,0c1.22-.38,1.75-60.14-27.75-88.93-38.25-37.33-10.65-89.52-43.27-105.8-32.31-16.13-25.05-54.09-21.65-82.45,5.15-42.92-17.66-49.45-27-75.28" transform="translate(-59.7 -53.5)"/><rect class="cls-1" x="1026.09" y="2464.69" width="174.59" height="398.57" transform="translate(-1826.86 2807.69) rotate(-71.23)"/><rect class="cls-2" x="1090.69" y="2421.05" width="77.83" height="395.26" transform="translate(-1772.96 2792.33) rotate(-71.23)"/><path d="M1304.05,2718.76l24.86-73.19-373.74-127-24.87,73.19,373.75,127m.33.68L929.62,2592.12l25.21-74.21,374.76,127.33-25.21,74.2Z" transform="translate(-59.7 -53.5)"/><rect class="cls-2" x="1060" y="2511.99" width="77.83" height="395.78" transform="translate(-1880.12 2825.13) rotate(-71.23)"/><path d="M1273.6,2810l24.87-73.19L924.24,2609.71l-24.87,73.19L1273.6,2810m.34.68L898.69,2683.23,923.9,2609l375.25,127.49-25.21,74.2Z" transform="translate(-59.7 -53.5)"/><path class="cls-6" d="M1288.3,2752.16l28.79-69.15c-27.62-8.85-33.76-32.15-80.49-25.6-30.87,4.34-72.3,12.92-88.45-19.88-16.32-33.13-74-3.18-112.9-41.49-30-29.53-94.77-27.25-95.23-26l-23.67,55.2-.05.14c-.47,1.27,49.19,40.19,92.27,34.06,55.88-8,81.76,48.74,116.4,31.93,34.29-16.64,61.38,13.88,82.92,35,32.59,32,52.75,17.07,80.36,25.91" transform="translate(-59.7 -53.5)"/><rect class="cls-1" x="2095.56" y="2287.89" width="164.71" height="376.01" transform="translate(-842.69 3873.72) rotate(-74.78)"/><rect class="cls-2" x="2153.84" y="2245.85" width="73.43" height="372.89" transform="translate(-791.31 3853.77) rotate(-74.78)"/><path d="M2360.64,2516.37l19.15-70.37-359.32-97.78-19.14,70.36,359.31,97.79m.36.62-360.29-98,19.41-71.34,360.29,98.05L2361,2517Z" transform="translate(-59.7 -53.5)"/><rect class="cls-2" x="2130.26" y="2333.26" width="73.43" height="373.37" transform="translate(-893.28 3895.65) rotate(-74.78)"/><path d="M2337.29,2604.09l19.15-70.36-359.78-97.92-19.15,70.37,359.78,97.91m.36.62-360.76-98.18,19.41-71.34,360.76,98.18-19.41,71.34Z" transform="translate(-59.7 -53.5)"/><path class="cls-7" d="M2347.76,2548.73l23.07-66.79c-26.51-6.72-33.66-28.3-77.27-19.41-28.81,5.88-67.32,16.37-84.45-13.57-17.29-30.24-69.86,1.32-108.72-32.48-30-26.07-90.82-20.14-91.18-18.92l-19.07,53.36,0,.13c-.37,1.22,48.66,35,88.87,26.69,52.14-10.75,79.82,41.14,111.46,23.29,31.32-17.67,58.6,9.49,80.11,28.11,32.55,28.19,50.67,13,77.18,19.72" transform="translate(-59.7 -53.5)"/><rect class="cls-1" x="2523.7" y="1759.75" width="163.83" height="374" transform="translate(-684.17 2274.86) rotate(-43.5)"/><rect class="cls-2" x="2535.84" y="1791.84" width="73.04" height="370.9" transform="translate(-714.33 2260.35) rotate(-43.5)"/><path d="M2471.18,1818l-52.61,49.94,255,268.66,52.61-49.93-255-268.67m0-.71,255.66,269.4-53.34,50.62-255.66-269.39,53.34-50.63Z" transform="translate(-59.7 -53.5)"/><rect class="cls-2" x="2601.15" y="1729.26" width="73.04" height="371.38" transform="translate(-653.47 2288.19) rotate(-43.5)"/><path d="M2536.32,1755.47l-52.61,49.94,255.31,269,52.61-49.93-255.31-269m0-.71,256,269.75L2739,2075.13l-256-269.74,53.34-50.63Z" transform="translate(-59.7 -53.5)"/><path class="cls-8" d="M2498.84,1797.13l-54.1,44.87c19.07,19.4,14,41.44,55.67,56.4,27.53,9.88,65.69,20.84,64.78,55.14-.91,34.64,60.07,35,75.65,83.75,12,37.63,66.82,64,67.76,63.17l43.76-35.51.1-.1c.94-.85-23.3-54.86-61.76-68.58-49.89-17.78-46.63-76.19-82.74-77.35-35.75-1.15-44.92-38.33-53.59-65.26-13.12-40.78-36.36-37.22-55.43-56.62" transform="translate(-59.7 -53.5)"/><rect class="cls-1" x="2265.48" y="636.63" width="446.11" height="195.42" transform="translate(251.55 2092.03) rotate(-49.39)"/><rect class="cls-2" x="2227.02" y="655.05" width="442.41" height="87.12" transform="translate(264.6 2048.96) rotate(-49.39)"/><path d="M2624.86,559.07l-65.68-56.32L2271.6,838.15l65.68,56.32,287.58-335.4m.84-.07L2337.35,895.31l-66.6-57.09L2559.11,501.9,2625.7,559Z" transform="translate(-59.7 -53.5)"/><rect class="cls-2" x="2308.7" y="724.91" width="442.98" height="87.12" transform="translate(240.17 2135.58) rotate(-49.39)"/><path d="M2707,628.71l-65.68-56.31L2353.38,908.23l65.68,56.32,288-335.84m.84-.06L2419.12,965.4l-66.59-57.1,288.73-336.75,66.59,57.1Z" transform="translate(-59.7 -53.5)"/><path class="cls-9" d="M2653,589.34l-59.85-58.71c-20.69,25-47.46,21.68-60.11,73-8.35,33.88-16.69,80.49-57.5,83.62-41.21,3.15-34.12,75.55-90.11,100-43.18,18.86-67.79,87.11-66.66,88.12l47.49,47.58.12.11c1.13,1,62.25-34.37,73.81-81.68,15-61.36,84.7-64.64,81.66-107.63-3-42.56,40-58,70.88-71.57,46.78-20.55,39.71-47.69,60.4-72.7" transform="translate(-59.7 -53.5)"/><rect class="cls-1" x="1882.34" y="1109.82" width="379.71" height="166.33" transform="translate(-321.25 1659.88) rotate(-42.5)"/><rect class="cls-2" x="1853.51" y="1121.6" width="376.56" height="74.15" transform="translate(-306.07 1630.33) rotate(-42.5)"/><path d="M2205.29,1058.8l-49.75-54.3-277.26,254.06,49.76,54.29,277.25-254m.72,0-278,254.74-50.44-55,278-254.75,50.44,55Z" transform="translate(-59.7 -53.5)"/><rect class="cls-2" x="1915.39" y="1189.01" width="377.05" height="74.15" transform="translate(-335.28 1690.01) rotate(-42.5)"/><path d="M2267.59,1126l-49.75-54.3-277.61,254.39,49.75,54.29L2267.59,1126m.73,0L1990,1381.14l-50.44-55L2217.87,1071l50.45,55Z" transform="translate(-59.7 -53.5)"/><path class="cls-10" d="M2226,1087.25l-44.58-55.72c-20,19-42.32,13.48-58.24,55.51-10.52,27.77-22.33,66.31-57.13,64.78-35.14-1.54-36.54,60.36-86.36,75.31-38.41,11.53-66.17,66.69-65.32,67.66l35.27,45,.09.11c.85,1,56.11-22.69,70.72-61.48,18.94-50.33,78.17-46,80-82.61,1.8-36.27,39.7-44.92,67.2-53.24,41.62-12.6,38.42-36.25,58.45-55.27" transform="translate(-59.7 -53.5)"/><rect class="cls-1" x="1001.94" y="743.37" width="374.75" height="164.16" transform="translate(-317.26 723.14) rotate(-32.83)"/><rect class="cls-2" x="1027.39" y="827.27" width="371.64" height="73.18" transform="translate(-334.27 742.24) rotate(-32.83)"/><path d="M1037.58,933.93,1077,995l311.86-201.21-39.41-61.07L1037.58,933.93m-.7-.15L1349.58,732l40,61.92L1076.83,995.7l-39.95-61.92Z" transform="translate(-59.7 -53.5)"/><rect class="cls-2" x="977.88" y="751.39" width="372.12" height="73.18" transform="translate(-301 703.41) rotate(-32.83)"/><path d="M988.11,858.19l39.4,61.07,312.26-201.48-39.4-61.07L988.11,858.19m-.7-.15,313.11-202,40,61.92L1027.36,920,987.41,858Z" transform="translate(-59.7 -53.5)"/><path class="cls-11" d="M1022.17,902.82l34.14,61.61c22.64-15.18,43.4-6.1,65.86-44.36,14.84-25.27,32.72-60.81,66.32-53.56,33.94,7.33,45.56-52.66,96.51-59,39.28-4.85,75.43-53.91,74.77-55l-26.85-49.68-.07-.11c-.67-1.09-58.35,12.77-79,48.09-26.77,45.82-83.68,31.77-91.52,67.11-7.77,35-46.07,37.12-74.21,40.66-42.58,5.35-43.39,28.9-66,44.08" transform="translate(-59.7 -53.5)"/><rect class="cls-1" x="686.53" y="1141.46" width="187.04" height="427" transform="translate(-817.47 1583.42) rotate(-70.46)"/><rect class="cls-2" x="756.4" y="1094.94" width="83.39" height="423.46" transform="translate(-759.95 1568.28) rotate(-70.46)"/><path d="M983.51,1416.41l27.7-78L612.68,1196.93,585,1275l398.53,141.44m.35.73L584.25,1275.32l28.08-79.12L1011.94,1338l-28.08,79.12Z" transform="translate(-59.7 -53.5)"/><rect class="cls-2" x="722.21" y="1191.91" width="83.39" height="424.01" transform="translate(-874.36 1600.78) rotate(-70.46)"/><path d="M949.58,1513.75l27.69-78-399-141.62-27.69,78,399.05,141.62m.34.73-400.13-142,28.09-79.13,400.12,142-28.08,79.12Z" transform="translate(-59.7 -53.5)"/><path class="cls-12" d="M966.16,1452,998,1378.29c-29.45-9.87-35.7-34.92-85.85-28.58-33.13,4.2-77.64,12.79-94.47-22.58-17-35.72-79.22-4.48-120.33-46.07-31.71-32.08-101.13-30.57-101.65-29.22l-26.15,58.79-.06.15c-.51,1.35,52.12,43.77,98.36,37.82,60-7.72,86.88,53.4,124.22,35.9,37-17.34,65.55,15.75,88.32,38.68,34.46,34.7,56.26,19,85.71,28.92" transform="translate(-59.7 -53.5)"/><rect class="cls-1" x="1517.81" y="1900.45" width="178.18" height="406.77" transform="translate(-1003.12 1340.33) rotate(-37.07)"/><rect class="cls-2" x="1527.52" y="1931.09" width="79.44" height="403.39" transform="translate(-1028.59 1322.27) rotate(-37.07)"/><path d="M1477.3,1948.3l-63,47.55,242.84,321.43,62.94-47.55L1477.3,1948.3m.1-.77,243.5,322.31-63.82,48.21-243.49-322.3,63.81-48.22Z" transform="translate(-59.7 -53.5)"/><rect class="cls-2" x="1605.71" y="1871.41" width="79.44" height="403.92" transform="translate(-976.97 1357.39) rotate(-37.07)"/><path d="M1555.32,1888.67l-62.94,47.55,243.15,321.85,62.94-47.55-243.15-321.85m.11-.77,243.81,322.72-63.82,48.21-243.81-322.72,63.82-48.21Z" transform="translate(-59.7 -53.5)"/><path class="cls-13" d="M1509.74,1929.12l-64,41.9c18.25,23.29,10.09,46.49,53.3,67.74,28.55,14,68.45,30.53,63.3,67.49-5.21,37.32,60.66,45.09,71.56,99.73,8.4,42.13,64.41,77.33,65.53,76.53l51.62-33.05.12-.09c1.12-.81-18.5-62.14-58.4-81.65-51.74-25.3-41.1-88-80-93.68-38.5-5.6-43.88-46.89-50-77.06-9.22-45.67-34.77-44.65-53-67.94" transform="translate(-59.7 -53.5)"/><rect class="cls-1" x="1379.7" y="402.87" width="413.94" height="181.32" transform="translate(564.62 1794.64) rotate(-71.89)"/><rect class="cls-2" x="1428.65" y="469.43" width="410.5" height="80.83" transform="translate(581.66 1850.77) rotate(-71.89)"/><path d="M1532,692.18l76.3,25,127.45-389.63-76.3-25L1532,692.18m-.7.35,127.79-390.68,77.36,25.3L1608.69,717.84l-77.36-25.31Z" transform="translate(-59.7 -53.5)"/><rect class="cls-2" x="1333.32" y="438.63" width="411.03" height="80.83" transform="translate(545.41 1739.2) rotate(-71.89)"/><path d="M1436.88,661.64l76.3,25,127.61-390.14-76.3-25L1436.88,661.64m-.7.36,128-391.2,77.35,25.31-128,391.19L1436.18,662Z" transform="translate(-59.7 -53.5)"/><path class="cls-14" d="M1497.16,676.22l72.16,29.08c8.85-28.78,33-35.44,25.62-83.89-4.86-32-14.26-74.93,19.61-92.09,34.21-17.34,2.42-76.88,41.75-117.73,30.31-31.5,27.18-98.74,25.85-99.21l-57.6-23.93-.14-.05c-1.33-.47-41.17,51.57-34.28,96.23,8.92,57.93-49.66,85.48-31.8,121.25,17.69,35.42-13.68,63.91-35.35,86.53-32.8,34.22-17.1,55-26,83.76" transform="translate(-59.7 -53.5)"/><rect class="cls-1" x="824.49" y="494.09" width="400.8" height="175.57" transform="translate(-198.21 340.04) rotate(-20.39)"/><rect class="cls-2" x="842.26" y="588.36" width="397.47" height="78.27" transform="translate(-213.1 348.51) rotate(-20.39)"/><path d="M841.43,660.22l27.08,72.86,372.06-138.3-27.08-72.86L841.43,660.22m-.69-.32,373.07-138.67,27.46,73.87L868.19,733.77,840.74,659.9Z" transform="translate(-59.7 -53.5)"/><rect class="cls-2" x="808.03" y="497.77" width="397.99" height="78.27" transform="translate(-183.66 331) rotate(-20.39)"/><path d="M807.21,569.71l27.08,72.86,372.55-138.48-27.08-72.86L807.21,569.71m-.69-.32,373.56-138.85,27.45,73.87L834,643.26l-27.46-73.87Z" transform="translate(-59.7 -53.5)"/><path class="cls-15" d="M832.5,624.18,854,696.38c27.14-10.64,46.73,3.63,79-31.15,21.32-23,48.18-56,81.61-40.66,33.75,15.47,59.71-44.5,114.37-39.33,42.14,4,91.2-38.93,90.76-40.21L1203.12,487l0-.14c-.45-1.29-63.88-.11-93.58,32-38.52,41.68-94.71,13.9-111,49-16.18,34.76-56.68,28.16-86.88,25.37-45.7-4.22-52,20.18-79.11,30.82" transform="translate(-59.7 -53.5)"/><rect class="cls-1" x="280.9" y="1537.12" width="441.09" height="193.22" transform="translate(-429.61 110.1) rotate(-13.59)"/><rect class="cls-2" x="294.39" y="1642.62" width="437.43" height="86.14" transform="translate(-441.49 114.3) rotate(-13.59)"/><path d="M290.75,1695.44l20.11,83.15,424.6-102.66-20.11-83.15-424.6,102.66M290,1695l425.75-102.94,20.38,84.3-425.75,103L290,1695Z" transform="translate(-59.7 -53.5)"/><rect class="cls-2" x="268.78" y="1539.19" width="437.99" height="86.14" transform="translate(-417.89 105.45) rotate(-13.59)"/><path d="M265.15,1592.08l20.11,83.15,425.15-102.8-20.11-83.15-425.15,102.8m-.71-.44,426.3-103.07,20.38,84.3-426.3,103.07-20.38-84.3Z" transform="translate(-59.7 -53.5)"/><path class="cls-16" d="M285.69,1654.89l14.05,81.7c31.05-8.09,50.6,10.06,90.4-23.74,26.29-22.34,59.94-54.9,94.47-33.81,34.87,21.31,71-40.85,130.11-28.08,45.53,9.84,104.73-30.66,104.42-32.12l-10.57-65.62,0-.16c-.31-1.46-69.79-8.44-106.43,22.81-47.52,40.54-105.31,2.86-127.73,39.09-22.2,35.87-65.6,23.38-98.24,16.4-49.39-10.56-59.42,15.29-90.47,23.38" transform="translate(-59.7 -53.5)"/><rect class="cls-1" x="626.21" y="2102.14" width="416.73" height="182.55" transform="translate(-1384.76 1221.47) rotate(-46.13)"/><rect class="cls-2" x="663.63" y="2188.18" width="413.27" height="81.38" transform="translate(-1399.37 1258.08) rotate(-46.13)"/><path d="M698.12,2349.63l58.27,56,286-297.53-58.27-56-286,297.53m-.79,0,286.8-298.33,59.07,56.78L756.4,2406.43l-59.07-56.79Z" transform="translate(-59.7 -53.5)"/><rect class="cls-2" x="590.63" y="2118.67" width="413.81" height="81.38" transform="translate(-1371.58 1184.31) rotate(-46.13)"/><path d="M625.21,2280.31l58.26,56L969.86,2038.4l-58.26-56L625.21,2280.31m-.8,0L911.58,1981.6l59.08,56.79L683.49,2337.11l-59.08-56.79Z" transform="translate(-59.7 -53.5)"/><path class="cls-17" d="M673.49,2319.9l52.7,57.93c20.62-22.22,45.41-17.7,59.94-64.84,9.59-31.15,19.84-74.19,58.07-74.93,38.6-.75,35.83-68.65,89.35-88.49,41.27-15.29,67.85-77.63,66.85-78.64L958.64,2024l-.11-.1c-1-1-59.88,28.74-73.18,72.25-17.25,56.43-82.42,55.79-81.87,96,.54,39.85-40.37,52-69.91,63-44.72,16.69-39.57,42.37-60.19,64.59" transform="translate(-59.7 -53.5)"/><rect class="cls-1" x="1919.22" y="2035.18" width="427.45" height="187.24" transform="translate(-840.09 2845.85) rotate(-59.76)"/><rect class="cls-2" x="1965.14" y="2113.78" width="423.9" height="83.47" transform="translate(-841.26 2897.25) rotate(-59.76)"/><path d="M2034.68,2317.5l71.62,41.75,213.2-365.71-71.62-41.75-213.2,365.71m-.78.21L2247.68,1951l72.61,42.33L2106.51,2360l-72.61-42.33Z" transform="translate(-59.7 -53.5)"/><rect class="cls-2" x="1875.57" y="2062.07" width="424.45" height="83.47" transform="translate(-840.91 2794.43) rotate(-59.76)"/><path d="M1945.24,2266l71.62,41.75,213.48-366.19-71.62-41.75L1945.24,2266m-.78.2,214.05-367.18,72.61,42.33-214,367.18-72.61-42.33Z" transform="translate(-59.7 -53.5)"/><path class="cls-18" d="M2002.94,2293.83l66.54,45c15.19-27.14,41-28.63,44.07-79.13,2-33.37,1.86-78.75,39.78-88.73,38.29-10.08,19.12-77.09,67.68-109.8,37.44-25.22,48.87-93.79,47.63-94.55l-53-36.65-.13-.09c-1.23-.76-52.74,43.13-55.48,89.72-3.56,60.42-68.68,75.53-58.4,115.52,10.17,39.59-27.68,61.55-54.47,79.68-40.54,27.44-29.2,51.8-44.38,78.93" transform="translate(-59.7 -53.5)"/><rect class="cls-1" x="2159.33" y="1634.69" width="424.27" height="185.85" transform="translate(-345.55 430.26) rotate(-10.99)"/><rect class="cls-2" x="2170.03" y="1736.62" width="420.75" height="82.85" transform="translate(-355 432.89) rotate(-10.99)"/><path d="M2166.32,1777.71l15.69,80.78,412.48-80.1-15.69-80.78-412.48,80.1m-.66-.45,413.59-80.32,15.91,81.9-413.6,80.31-15.9-81.89Z" transform="translate(-59.7 -53.5)"/><rect class="cls-2" x="2149.94" y="1636.13" width="421.3" height="82.85" transform="translate(-336.21 427.27) rotate(-10.99)"/><path d="M2146.24,1677.27l15.68,80.78,413-80.21-15.69-80.77-413,80.2m-.67-.45,414.13-80.42,15.91,81.89-414.14,80.43-15.9-81.9Z" transform="translate(-59.7 -53.5)"/><path class="cls-19" d="M2163.23,1738.53l9.94,79.11c30.18-6.41,48.18,11.88,87.89-18.86,26.24-20.32,60-50.13,92.26-28.36,32.58,22,70.06-36.15,126.24-21.3,43.32,11.45,102-24.88,101.74-26.3L2574,1659.3l0-.15c-.24-1.42-66.7-11.16-103.27,17.27-47.43,36.87-101.31-1.86-124.44,32-22.9,33.5-64.06,19.6-95.11,11.47-47-12.31-57.77,12.09-88,18.51" transform="translate(-59.7 -53.5)"/><rect class="cls-1" x="1709.83" y="342.65" width="180.65" height="412.4" transform="translate(-137.18 367.69) rotate(-13.07)"/><rect class="cls-2" x="1808.56" y="333.91" width="80.54" height="408.98" transform="translate(-133.55 378.43) rotate(-13.07)"/><path d="M1856,746.37,1934,728.29l-92.33-397.86-77.92,18.09L1856,746.37m-.41.66L1763,348.1l79-18.33,92.59,398.93-79,18.33Z" transform="translate(-59.7 -53.5)"/><rect class="cls-2" x="1711.64" y="356.43" width="80.54" height="409.51" transform="translate(-141.22 357.11) rotate(-13.07)"/><path d="M1759.18,769.42l77.92-18.09L1744.64,353l-77.91,18.08,92.45,398.37m-.41.66-92.71-399.45,79-18.33,92.71,399.45-79,18.33Z" transform="translate(-59.7 -53.5)"/><path class="cls-20" d="M1818.09,750.75l76.5-12.43c-7.29-29.1,9.84-47.22-21.42-84.72-20.66-24.77-50.81-56.51-30.79-88.62,20.21-32.42-37.59-66.78-25.15-121.88,9.6-42.48-27.76-98.18-29.13-97.9l-61.44,9.32-.15,0c-1.37.28-8.49,65.18,20.42,99.7,37.49,44.78,1.76,98.48,35.44,119.76,33.35,21.06,21.3,61.53,14.5,92-10.31,46.09,13.78,55.69,21.07,84.79" transform="translate(-59.7 -53.5)"/><rect class="cls-1" x="1521.68" y="1331.91" width="432.53" height="189.47" transform="translate(-330.4 362.64) rotate(-12.68)"/><rect class="cls-2" x="1512.85" y="1333.29" width="428.94" height="84.47" transform="translate(-319.44 359.06) rotate(-12.68)"/><path d="M1945.49,1369.44l-18.41-81.84-417.92,94,18.41,81.84,417.92-94m.69.44-419,94.25-18.66-83,419.05-94.25,18.66,83Z" transform="translate(-59.7 -53.5)"/><rect class="cls-2" x="1535.78" y="1435.09" width="429.5" height="84.47" transform="translate(-341.21 366.64) rotate(-12.68)"/><path d="M1969,1471.19l-18.41-81.84-418.46,94.12,18.41,81.84L1969,1471.19m.69.44L1550.07,1566l-18.67-83,419.6-94.38,18.66,83Z" transform="translate(-59.7 -53.5)"/><path class="cls-21" d="M1949.81,1409.28,1937.32,1329c-30.57,7.45-49.45-10.65-89,21.87-26.13,21.48-59.64,52.88-93.16,31.66-33.86-21.44-70.31,38.94-128,25.49-44.49-10.36-103.17,28.42-102.89,29.86l9.34,64.5,0,.16c.29,1.44,68.3,9.37,104.71-20.7,47.23-39,103.3-1.15,125.85-36.32,22.33-34.82,64.69-21.9,96.58-14.54,48.26,11.13,58.5-14.06,89.07-21.5" transform="translate(-59.7 -53.5)"/><rect class="cls-1" x="1299.32" y="1074.12" width="438.66" height="192.15" transform="translate(-452.24 964.98) rotate(-33.08)"/><rect class="cls-2" x="1272.98" y="1082.52" width="435.02" height="85.66" transform="translate(-432.33 942.34) rotate(-33.08)"/><path d="M1695.71,1042.44l-46.43-71.28-364,237.1,46.43,71.28,364-237.1m.82.18-365,237.74-47.08-72.28,365-237.74,47.08,72.28Z" transform="translate(-59.7 -53.5)"/><rect class="cls-2" x="1330.75" y="1171.09" width="435.58" height="85.66" transform="translate(-471.26 988.38) rotate(-33.08)"/><path d="M1754,1130.86l-46.43-71.29L1343.07,1297l46.44,71.29L1754,1130.86m.82.17-365.49,238-47.07-72.27,365.49-238,47.07,72.27Z" transform="translate(-59.7 -53.5)"/><path class="cls-22" d="M1713.91,1078.78l-40.28-71.93c-26.42,17.88-50.77,7.35-76.87,52.24-17.24,29.67-38,71.35-77.36,63-39.76-8.4-53.06,61.88-112.66,69.49-46,5.88-88,63.49-87.25,64.76l31.68,58,.08.14c.79,1.27,68.24-15.24,92.22-56.7,31.11-53.76,97.79-37.6,106.79-79,8.91-41,53.74-43.68,86.66-48,49.82-6.48,50.64-34,77.07-51.92" transform="translate(-59.7 -53.5)"/><rect class="cls-1" x="1065.9" y="1287.37" width="165.33" height="377.43" transform="matrix(0.61, -0.8, 0.8, 0.61, -781.33, 1442.64)"/><rect class="cls-2" x="1139.9" y="1253.14" width="73.71" height="374.3" transform="translate(-741.73 1450.95) rotate(-52.73)"/><path d="M1303.31,1582.6l44.33-58.25L1050.19,1298l-44.33,58.25,297.45,226.38m.1.71-298.26-227,44.94-59.06,298.26,227-44.94,59.06Z" transform="translate(-59.7 -53.5)"/><rect class="cls-2" x="1084.92" y="1325.56" width="73.71" height="374.79" transform="translate(-821.23 1435.86) rotate(-52.73)"/><path d="M1248.53,1655.41l44.33-58.25L995,1370.5l-44.33,58.25,297.84,226.66m.1.71L950,1428.84l44.95-59,298.64,227.28-44.94,59Z" transform="translate(-59.7 -53.5)"/><path class="cls-23" d="M1279.13,1607.85l46.64-53.44c-22.14-16.24-20.66-39-64.58-47.18-29-5.39-68.81-10.14-73.46-44.45-4.69-34.65-65.49-25.09-88.91-71.18-18-35.54-76.91-53-77.71-52l-37.84,42.45-.09.11c-.8,1,32.09,50.88,72.62,58.32,52.57,9.65,58.77,68.35,94.93,63.67,35.8-4.64,50.94,30.91,63.94,56.34,19.66,38.49,42.24,31.19,64.37,47.43" transform="translate(-59.7 -53.5)"/><rect class="cls-1" x="1512.98" y="1421.63" width="440.14" height="192.8" transform="translate(-411.83 2444.27) rotate(-66.38)"/><rect class="cls-2" x="1466.48" y="1452.97" width="436.49" height="85.95" transform="translate(-420.56 2386.75) rotate(-66.38)"/><path d="M1811.15,1313.35l-78.22-34.2L1558.3,1678.54l78.22,34.2,174.63-399.39m.77-.31-175.1,400.48-79.29-34.68,175.1-400.47,79.29,34.67Z" transform="translate(-59.7 -53.5)"/><rect class="cls-2" x="1563.68" y="1495.26" width="437.06" height="85.95" transform="translate(-400.88 2501.41) rotate(-66.38)"/><path d="M1908.74,1355.38l-78.21-34.2-174.86,399.91,78.21,34.19,174.86-399.9m.78-.31-175.33,401-79.3-34.67,175.33-401,79.3,34.67Z" transform="translate(-59.7 -53.5)"/><path class="cls-24" d="M1846.42,1333.8l-73.4-38.14c-12.31,29.56-38.53,34.15-35.68,86.17,1.88,34.37,7.46,80.76-30.14,95.48-38,14.86-10.41,81.12-56.19,120.34-35.31,30.25-38.84,101.74-37.49,102.37l58.53,31.2.14.07c1.36.63,48.83-50.38,46.1-98.35-3.54-62.23,61.28-85.42,46-125.1-15.11-39.29,21-66.24,46.25-88,38.2-32.88,23.71-56.45,36-86" transform="translate(-59.7 -53.5)"/></g></g></svg>