<?xml version="1.0" encoding="iso-8859-1"?>
<!-- Generator: Adobe Illustrator 19.0.0, SVG Export Plug-In . SVG Version: 6.00 Build 0)  -->
<svg xmlns="http://www.w3.org/2000/svg" xmlns:xlink="http://www.w3.org/1999/xlink" version="1.1" id="Layer_1" x="0px" y="0px" viewBox="0 0 512 512" style="enable-background:new 0 0 512 512;" xml:space="preserve" width="512" height="512">
<g id="XMLID_379_">
	<g id="XMLID_467_">
		<g id="XMLID_923_">
			<path id="XMLID_938_" style="fill:#FB4239;" d="M297.736,415.24c-6.477-6.477-11.26-13.758-14.206-20.994     c-2.946-7.237-7.728-14.517-14.206-20.994c-6.477-6.477-13.758-11.26-20.994-14.206c-7.237-2.946-14.517-7.728-20.994-14.206     c-6.477-6.477-11.26-13.758-14.206-20.994c-2.946-7.237-7.728-14.517-14.206-20.994c-6.477-6.477-13.758-11.26-20.994-14.206     c-7.237-2.946-14.517-7.728-20.994-14.206s-11.26-13.758-14.206-20.994c-2.946-7.237-7.728-14.517-14.206-20.994     c-6.477-6.477-13.758-11.26-20.994-14.206c-7.237-2.946-14.517-7.728-20.994-14.206s-11.26-13.758-14.206-20.994     c-2.946-7.237-7.728-14.517-14.206-20.994c-6.477-6.477-13.758-11.26-20.994-14.206L2.474,182.503     c-3.79,3.79-3.144,10.138,1.377,13.017c3.995,2.544,7.885,5.648,11.525,9.288c6.474,6.474,11.257,13.747,14.2,20.993     c2.95,7.238,7.733,14.512,14.214,20.993c6.474,6.474,13.747,11.257,20.985,14.207c7.245,2.943,14.519,7.726,21,14.207     c6.474,6.474,11.257,13.747,14.2,20.993c2.95,7.238,7.733,14.511,14.214,20.993c6.474,6.474,13.747,11.257,20.985,14.207     c7.245,2.943,14.519,7.726,21,14.207c6.474,6.474,11.257,13.747,14.2,20.992c2.95,7.238,7.733,14.512,14.214,20.993     c6.474,6.474,13.754,11.264,20.985,14.207c7.245,2.943,14.519,7.726,21,14.207c6.474,6.474,11.264,13.754,14.2,20.992     c2.95,7.238,7.733,14.512,14.214,20.993c4.723,4.723,9.876,8.55,15.125,11.418c3.304,1.805,7.395,1.255,10.058-1.408     l38.557-38.557C311.493,426.5,304.213,421.717,297.736,415.24z"/>
			<path id="XMLID_1274_" style="fill:#F9E8D4;" d="M317.264,430.912c-7.527-2.656-14.976-7.269-21.453-13.746     c-6.477-6.477-11.091-13.927-13.747-21.453c-2.656-7.527-7.269-14.976-13.746-21.453c-6.477-6.477-13.927-11.091-21.453-13.746     s-14.976-7.269-21.453-13.746c-6.477-6.477-11.091-13.927-13.746-21.453c-2.656-7.527-7.269-14.976-13.746-21.453     c-6.477-6.477-13.927-11.091-21.453-13.746c-7.527-2.656-14.976-7.269-21.453-13.746c-6.477-6.477-11.091-13.927-13.747-21.453     c-2.656-7.527-7.269-14.976-13.746-21.453c-6.477-6.477-13.927-11.091-21.453-13.746c-7.527-2.656-14.976-7.269-21.453-13.746     c-6.477-6.477-11.091-13.927-13.746-21.453c-2.656-7.527-7.269-14.976-13.746-21.453c-6.477-6.477-13.927-11.091-21.453-13.746     L60.278,124.7c7.527,2.656,14.976,7.269,21.453,13.746c6.477,6.477,11.091,13.927,13.746,21.453     c2.656,7.527,7.269,14.976,13.746,21.453c6.477,6.477,13.927,11.091,21.453,13.746c7.527,2.656,14.976,7.269,21.453,13.746     c6.477,6.477,11.091,13.927,13.746,21.453s7.269,14.976,13.746,21.453c6.477,6.477,13.927,11.091,21.453,13.746     s14.976,7.269,21.453,13.746c6.477,6.477,11.091,13.927,13.746,21.453c2.656,7.527,7.269,14.976,13.746,21.453     c6.477,6.477,13.927,11.091,21.453,13.746s14.976,7.269,21.453,13.746c6.477,6.477,11.091,13.927,13.746,21.453     c2.656,7.527,7.269,14.976,13.746,21.453c6.477,6.477,13.927,11.091,21.453,13.746L317.264,430.912z"/>
			<path id="XMLID_952_" style="fill:#FB4239;" d="M352.007,381.772c-3.993-2.542-7.884-5.644-11.519-9.278     c-6.481-6.481-11.257-13.762-14.207-21c-2.943-7.231-7.726-14.519-14.2-20.992c-6.481-6.481-13.762-11.257-21-14.207     c-7.231-2.943-14.519-7.726-20.993-14.2c-6.481-6.481-11.257-13.762-14.207-21c-2.95-7.238-7.726-14.519-14.2-20.993     c-6.481-6.481-13.762-11.257-21-14.207c-7.238-2.95-14.519-7.726-20.992-14.2c-6.481-6.481-11.257-13.762-14.207-21     c-2.95-7.238-7.726-14.519-14.2-20.993c-6.481-6.481-13.761-11.257-21-14.207c-7.238-2.95-14.519-7.726-20.993-14.2     c-6.481-6.481-11.257-13.762-14.207-21c-2.95-7.238-7.726-14.519-14.2-20.992c-4.731-4.731-9.887-8.553-15.142-11.42     c-3.304-1.803-7.393-1.252-10.055,1.409l-16.873,16.873c7.237,2.946,14.517,7.728,20.994,14.206     c6.477,6.477,11.26,13.758,14.206,20.994s7.728,14.517,14.206,20.994c6.477,6.477,13.758,11.26,20.994,14.206     c7.237,2.946,14.517,7.728,20.994,14.206c6.477,6.477,11.26,13.758,14.206,20.994c2.946,7.237,7.728,14.517,14.206,20.994     c6.477,6.477,13.758,11.26,20.994,14.206c7.237,2.946,14.517,7.728,20.994,14.206c6.477,6.477,11.26,13.758,14.206,20.994     c2.946,7.237,7.728,14.517,14.206,20.994c6.477,6.477,13.758,11.26,20.994,14.206c7.237,2.946,14.517,7.728,20.994,14.206     c6.477,6.477,11.26,13.758,14.206,20.994c2.946,7.237,7.728,14.517,14.206,20.994c6.477,6.477,13.757,11.259,20.993,14.205     l12.975-12.975C357.176,390.999,356.529,384.651,352.007,381.772z"/>
		</g>
		<g id="XMLID_920_">
			<path id="XMLID_922_" style="fill:#E21717;" d="M297.736,415.24c-6.477-6.477-11.26-13.758-14.206-20.994     c-2.946-7.237-7.728-14.517-14.206-20.994c-6.477-6.477-13.758-11.26-20.994-14.206c-7.237-2.946-14.517-7.728-20.994-14.206     c-6.477-6.477-11.26-13.758-14.206-20.994c-2.946-7.237-7.728-14.517-14.206-20.994c-6.477-6.477-13.758-11.26-20.994-14.206     c-7.237-2.946-14.517-7.728-20.994-14.206s-11.26-13.758-14.206-20.994c-2.946-7.237-7.728-14.517-14.206-20.994     c-6.477-6.477-13.758-11.26-20.994-14.206c-7.237-2.946-14.517-7.728-20.994-14.206s-11.26-13.758-14.206-20.994     c-2.946-7.237-7.728-14.517-14.206-20.994c-6.477-6.477-13.758-11.26-20.994-14.206l-11.517,11.517l-21.7,21.7l5.851,2.384     c5.66,2.307,11.2,6.078,16.047,10.924c4.84,4.839,8.611,10.38,10.917,16.04c3.799,9.318,9.849,18.297,17.49,25.938     c7.648,7.648,16.627,13.698,25.952,17.504c5.653,2.299,11.193,6.071,16.04,10.917c4.839,4.839,8.611,10.379,10.917,16.04     c3.799,9.318,9.849,18.297,17.497,25.945s16.62,13.691,25.945,17.497c5.653,2.299,11.193,6.071,16.04,10.917     c4.839,4.84,8.611,10.38,10.917,16.04c3.799,9.318,9.849,18.297,17.497,25.945c7.648,7.648,16.62,13.691,25.945,17.497     c5.653,2.299,11.193,6.071,16.04,10.917c4.84,4.84,8.618,10.387,10.917,16.04c3.799,9.318,9.849,18.297,17.497,25.945     c6.092,6.092,13.019,11.165,20.299,14.894l21.7-21.7l11.304-11.304C311.493,426.5,304.213,421.717,297.736,415.24z"/>
			<path id="XMLID_937_" style="fill:#E21717;" d="M79.806,140.372c6.477,6.477,11.26,13.758,14.206,20.994     s7.728,14.517,14.206,20.994c6.477,6.477,13.758,11.26,20.994,14.206c7.237,2.946,14.517,7.728,20.994,14.206     c6.477,6.477,11.26,13.758,14.206,20.994c2.946,7.237,7.728,14.517,14.206,20.994c6.477,6.477,13.758,11.26,20.994,14.206     c7.237,2.946,14.517,7.728,20.994,14.206c6.477,6.477,11.26,13.758,14.206,20.994c2.946,7.237,7.728,14.517,14.206,20.994     c6.477,6.477,13.758,11.26,20.994,14.206c7.237,2.946,14.517,7.728,20.994,14.206c6.477,6.477,11.26,13.758,14.206,20.994     c2.946,7.237,7.728,14.517,14.206,20.994c6.477,6.477,13.757,11.259,20.993,14.205l11.512-11.512l-5.851-2.384     c-5.653-2.299-11.2-6.078-16.04-10.917c-4.847-4.847-8.618-10.387-10.917-16.04c-3.799-9.332-9.842-18.304-17.49-25.952     c-7.648-7.648-16.627-13.698-25.952-17.49c-5.653-2.299-11.2-6.078-16.04-10.917c-4.847-4.847-8.618-10.387-10.917-16.04     c-3.799-9.332-9.842-18.304-17.49-25.952s-16.627-13.698-25.952-17.49c-5.66-2.307-11.2-6.078-16.04-10.917     c-4.847-4.847-8.618-10.387-10.917-16.04c-3.799-9.332-9.842-18.304-17.49-25.952s-16.627-13.698-25.952-17.49     c-5.66-2.307-11.2-6.078-16.047-10.924c-4.839-4.839-8.611-10.38-10.917-16.04c-3.792-9.325-9.842-18.304-17.483-25.945     c-6.092-6.092-13.026-11.172-20.306-14.901l-11.306,11.306C66.048,129.112,73.329,133.894,79.806,140.372z"/>
		</g>
		<path id="XMLID_991_" style="fill:#FF8859;" d="M297.03,451.146c-7.237-2.946-14.517-7.728-20.994-14.206    s-11.26-13.758-14.206-20.994c-2.946-7.237-7.728-14.517-14.206-20.994c-6.477-6.477-13.758-11.26-20.994-14.206    c-7.237-2.946-14.517-7.728-20.994-14.206s-11.26-13.758-14.206-20.994c-2.946-7.237-7.728-14.517-14.206-20.994    c-6.477-6.477-13.758-11.26-20.994-14.206c-7.237-2.946-14.517-7.728-20.994-14.206c-6.477-6.477-11.26-13.758-14.206-20.994    c-2.946-7.237-7.728-14.517-14.206-20.994c-6.477-6.477-13.758-11.26-20.994-14.206s-14.517-7.728-20.994-14.206    c-6.477-6.477-11.26-13.758-14.206-20.994c-2.946-7.237-7.728-14.517-14.206-20.994c-6.477-6.477-13.758-11.26-20.994-14.206    l21.681-21.681c7.237,2.946,14.517,7.728,20.994,14.206c6.477,6.477,11.26,13.758,14.206,20.994    c2.946,7.237,7.728,14.517,14.206,20.994c6.477,6.477,13.758,11.26,20.994,14.206c7.237,2.946,14.517,7.728,20.994,14.206    c6.477,6.477,11.26,13.758,14.206,20.994c2.946,7.237,7.728,14.517,14.206,20.994c6.477,6.477,13.758,11.26,20.994,14.206    c7.237,2.946,14.517,7.728,20.994,14.206c6.477,6.477,11.26,13.758,14.206,20.994c2.946,7.237,7.728,14.517,14.206,20.994    c6.477,6.477,13.758,11.26,20.994,14.206c7.237,2.946,14.517,7.728,20.994,14.206s11.26,13.758,14.206,20.994    c2.946,7.237,7.728,14.517,14.206,20.994c6.477,6.477,13.758,11.26,20.994,14.206L297.03,451.146z"/>
	</g>
	<g id="XMLID_908_">
		<g id="XMLID_954_">
			<path id="XMLID_969_" style="fill:#FB4239;" d="M453.877,349.945c-6.477-6.477-11.26-13.758-14.206-20.994     c-2.946-7.237-7.728-14.517-14.206-20.994c-6.477-6.477-13.758-11.26-20.994-14.206c-7.237-2.946-14.517-7.728-20.994-14.206     c-6.477-6.477-11.26-13.758-14.206-20.994c-2.946-7.237-7.728-14.517-14.206-20.994c-6.477-6.477-13.758-11.26-20.994-14.206     c-7.237-2.946-14.517-7.728-20.994-14.206s-11.26-13.758-14.206-20.994c-2.946-7.237-7.728-14.517-14.206-20.994     c-6.477-6.477-13.758-11.26-20.994-14.206c-7.237-2.946-14.517-7.728-20.994-14.206s-11.26-13.758-14.206-20.994     c-2.946-7.237-7.728-14.517-14.206-20.994c-6.477-6.477-13.758-11.26-20.994-14.206l-34.657,34.657     c-3.79,3.79-3.144,10.138,1.377,13.017c3.995,2.544,7.885,5.648,11.525,9.288c6.474,6.474,11.257,13.747,14.2,20.993     c2.95,7.238,7.733,14.512,14.214,20.993c6.474,6.474,13.747,11.257,20.985,14.207c7.245,2.943,14.519,7.726,21,14.207     c6.474,6.474,11.257,13.747,14.2,20.993c2.95,7.238,7.733,14.511,14.214,20.993c6.474,6.474,13.747,11.257,20.985,14.207     c7.245,2.943,14.519,7.726,21,14.207c6.474,6.474,11.257,13.747,14.2,20.992c2.95,7.238,7.733,14.512,14.214,20.993     c6.474,6.474,13.754,11.264,20.985,14.207c7.245,2.943,14.519,7.726,21,14.207c6.474,6.474,11.264,13.754,14.2,20.992     c2.95,7.238,7.733,14.512,14.214,20.993c4.723,4.723,9.876,8.55,15.125,11.418c3.304,1.805,7.395,1.255,10.058-1.408     l38.557-38.557C467.634,361.205,460.354,356.422,453.877,349.945z"/>
			<path id="XMLID_956_" style="fill:#F9E8D4;" d="M473.405,365.617c-7.527-2.656-14.976-7.269-21.453-13.746     c-6.477-6.477-11.091-13.927-13.746-21.453c-2.656-7.527-7.269-14.976-13.746-21.453c-6.477-6.477-13.927-11.091-21.453-13.746     s-14.976-7.269-21.453-13.746c-6.477-6.477-11.091-13.927-13.746-21.453c-2.656-7.527-7.269-14.976-13.746-21.453     c-6.477-6.477-13.927-11.091-21.453-13.746s-14.976-7.269-21.453-13.746c-6.477-6.477-11.091-13.927-13.746-21.453     c-2.656-7.527-7.269-14.976-13.746-21.453c-6.477-6.477-13.927-11.091-21.453-13.746c-7.527-2.656-14.976-7.269-21.453-13.746     c-6.477-6.477-11.091-13.927-13.746-21.453c-2.656-7.527-7.269-14.976-13.746-21.453c-6.477-6.477-13.927-11.091-21.453-13.746     l24.613-24.613c7.527,2.656,14.976,7.269,21.453,13.746c6.477,6.477,11.091,13.927,13.746,21.453     c2.656,7.527,7.269,14.976,13.747,21.453c6.477,6.477,13.927,11.091,21.453,13.746c7.527,2.656,14.976,7.269,21.453,13.746     c6.477,6.477,11.091,13.927,13.747,21.453c2.656,7.527,7.269,14.976,13.746,21.453c6.477,6.477,13.927,11.091,21.453,13.746     c7.527,2.656,14.976,7.269,21.453,13.746c6.477,6.477,11.091,13.927,13.746,21.453c2.656,7.527,7.269,14.976,13.746,21.453     c6.477,6.477,13.927,11.091,21.453,13.746c7.527,2.656,14.976,7.269,21.453,13.746c6.477,6.477,11.091,13.927,13.746,21.453     c2.656,7.527,7.269,14.976,13.746,21.453c6.477,6.477,13.927,11.091,21.453,13.746L473.405,365.617z"/>
			<path id="XMLID_955_" style="fill:#FB4239;" d="M508.148,316.477c-3.993-2.542-7.884-5.644-11.519-9.278     c-6.481-6.481-11.257-13.762-14.207-21c-2.943-7.231-7.726-14.519-14.2-20.992c-6.481-6.481-13.762-11.257-21-14.207     c-7.231-2.943-14.519-7.726-20.993-14.2c-6.481-6.481-11.257-13.762-14.207-21c-2.95-7.238-7.726-14.519-14.2-20.993     c-6.481-6.481-13.762-11.257-21-14.207c-7.238-2.95-14.519-7.726-20.992-14.2c-6.481-6.481-11.257-13.762-14.207-21     c-2.95-7.238-7.726-14.519-14.2-20.993c-6.481-6.481-13.761-11.257-21-14.207c-7.238-2.95-14.519-7.726-20.993-14.2     c-6.481-6.481-11.257-13.762-14.207-21c-2.95-7.238-7.726-14.519-14.2-20.992c-4.731-4.731-9.887-8.553-15.142-11.42     c-3.304-1.803-7.393-1.252-10.055,1.409l-16.873,16.873c7.237,2.946,14.517,7.728,20.994,14.206     c6.477,6.477,11.26,13.758,14.206,20.994s7.728,14.517,14.206,20.994c6.477,6.477,13.758,11.26,20.994,14.206     c7.237,2.946,14.517,7.728,20.994,14.206c6.477,6.477,11.26,13.758,14.206,20.994c2.946,7.237,7.728,14.517,14.206,20.994     c6.477,6.477,13.758,11.26,20.994,14.206c7.237,2.946,14.517,7.728,20.994,14.206c6.477,6.477,11.26,13.758,14.206,20.994     c2.946,7.237,7.728,14.517,14.206,20.994c6.477,6.477,13.758,11.26,20.994,14.206c7.237,2.946,14.517,7.728,20.994,14.206     c6.477,6.477,11.26,13.758,14.206,20.994c2.946,7.237,7.728,14.517,14.206,20.994c6.477,6.477,13.757,11.259,20.993,14.205     l12.975-12.975C513.316,325.704,512.669,319.356,508.148,316.477z"/>
		</g>
		<g id="XMLID_919_">
			<path id="XMLID_953_" style="fill:#E21717;" d="M453.877,349.945c-6.477-6.477-11.26-13.758-14.206-20.994     c-2.946-7.237-7.728-14.517-14.206-20.994c-6.477-6.477-13.758-11.26-20.994-14.206c-7.237-2.946-14.517-7.728-20.994-14.206     c-6.477-6.477-11.26-13.758-14.206-20.994c-2.946-7.237-7.728-14.517-14.206-20.994c-6.477-6.477-13.758-11.26-20.994-14.206     c-7.237-2.946-14.517-7.728-20.994-14.206s-11.26-13.758-14.206-20.994c-2.946-7.237-7.728-14.517-14.206-20.994     c-6.477-6.477-13.758-11.26-20.994-14.206c-7.237-2.946-14.517-7.728-20.994-14.206s-11.26-13.758-14.206-20.994     c-2.946-7.237-7.728-14.517-14.206-20.994c-6.477-6.477-13.758-11.26-20.994-14.206l-11.517,11.517l-21.7,21.7l5.851,2.384     c5.66,2.307,11.2,6.078,16.047,10.924c4.84,4.839,8.611,10.38,10.917,16.04c3.799,9.318,9.849,18.297,17.49,25.938     c7.648,7.648,16.627,13.698,25.952,17.504c5.653,2.299,11.193,6.071,16.04,10.917c4.839,4.839,8.611,10.379,10.917,16.04     c3.799,9.318,9.849,18.297,17.497,25.945s16.62,13.691,25.945,17.497c5.653,2.299,11.193,6.071,16.04,10.917     c4.839,4.84,8.611,10.38,10.917,16.04c3.799,9.318,9.849,18.297,17.497,25.945c7.648,7.648,16.62,13.691,25.945,17.497     c5.653,2.299,11.193,6.071,16.04,10.917c4.84,4.84,8.618,10.387,10.917,16.04c3.799,9.318,9.849,18.297,17.497,25.945     c6.092,6.092,13.019,11.165,20.299,14.894l21.7-21.7l11.304-11.304C467.634,361.205,460.354,356.422,453.877,349.945z"/>
			<path id="XMLID_951_" style="fill:#E21717;" d="M235.947,75.077c6.477,6.477,11.26,13.758,14.206,20.994     s7.728,14.517,14.206,20.994c6.477,6.477,13.758,11.26,20.994,14.206c7.237,2.946,14.517,7.728,20.994,14.206     c6.477,6.477,11.26,13.758,14.206,20.994c2.946,7.237,7.728,14.517,14.206,20.994c6.477,6.477,13.758,11.26,20.994,14.206     c7.237,2.946,14.517,7.728,20.994,14.206c6.477,6.477,11.26,13.758,14.206,20.994c2.946,7.237,7.728,14.517,14.206,20.994     c6.477,6.477,13.758,11.26,20.994,14.206c7.237,2.946,14.517,7.728,20.994,14.206c6.477,6.477,11.26,13.758,14.206,20.994     c2.946,7.237,7.728,14.517,14.206,20.994c6.477,6.477,13.757,11.259,20.993,14.205l11.512-11.512l-5.851-2.384     c-5.653-2.299-11.2-6.078-16.04-10.917c-4.847-4.847-8.618-10.387-10.917-16.04c-3.799-9.332-9.842-18.304-17.49-25.952     c-7.648-7.648-16.627-13.698-25.952-17.49c-5.653-2.299-11.2-6.078-16.04-10.917c-4.847-4.847-8.618-10.387-10.917-16.04     c-3.799-9.332-9.842-18.304-17.49-25.952s-16.627-13.698-25.952-17.49c-5.66-2.307-11.2-6.078-16.04-10.917     c-4.847-4.847-8.618-10.387-10.917-16.04c-3.799-9.332-9.842-18.304-17.49-25.952s-16.627-13.698-25.952-17.49     c-5.66-2.307-11.2-6.078-16.047-10.924c-4.839-4.839-8.611-10.38-10.917-16.04c-3.792-9.325-9.842-18.304-17.483-25.945     c-6.092-6.092-13.026-11.172-20.306-14.901l-11.306,11.306C222.189,63.817,229.469,68.599,235.947,75.077z"/>
		</g>
		<path id="XMLID_911_" style="fill:#FF8859;" d="M453.171,385.851c-7.237-2.946-14.517-7.728-20.994-14.206    c-6.477-6.477-11.26-13.758-14.206-20.994c-2.946-7.237-7.728-14.517-14.206-20.994c-6.477-6.477-13.758-11.26-20.994-14.206    c-7.237-2.946-14.517-7.728-20.994-14.206c-6.477-6.477-11.26-13.758-14.206-20.994c-2.946-7.237-7.728-14.517-14.206-20.994    s-13.758-11.26-20.994-14.206c-7.237-2.946-14.517-7.728-20.994-14.206c-6.477-6.477-11.26-13.758-14.206-20.994    c-2.946-7.237-7.728-14.517-14.206-20.994c-6.477-6.477-13.758-11.26-20.994-14.206s-14.517-7.728-20.994-14.206    c-6.477-6.477-11.26-13.758-14.206-20.994s-7.728-14.517-14.206-20.994c-6.477-6.477-13.758-11.26-20.994-14.206l21.681-21.681    c7.237,2.946,14.517,7.728,20.994,14.206c6.477,6.477,11.26,13.758,14.206,20.994c2.946,7.237,7.728,14.517,14.206,20.994    c6.477,6.477,13.758,11.26,20.994,14.206c7.237,2.946,14.517,7.728,20.994,14.206c6.477,6.477,11.26,13.758,14.206,20.994    c2.946,7.237,7.728,14.517,14.206,20.994c6.477,6.477,13.758,11.26,20.994,14.206c7.237,2.946,14.517,7.728,20.994,14.206    c6.477,6.477,11.26,13.758,14.206,20.994c2.946,7.237,7.728,14.517,14.206,20.994c6.477,6.477,13.758,11.26,20.994,14.206    c7.237,2.946,14.517,7.728,20.994,14.206c6.477,6.477,11.26,13.758,14.206,20.994c2.946,7.237,7.728,14.517,14.206,20.994    c6.477,6.477,13.758,11.26,20.994,14.206L453.171,385.851z"/>
	</g>
</g>















</svg>
