<svg xmlns="http://www.w3.org/2000/svg" viewBox="0 0 366.9 495"><defs><style>.cls-1{fill:#91dc5a;}.cls-2{fill:#036d03;}.cls-3{fill:#00a800;}</style></defs><title>greenpepper</title><g id="Layer_2" data-name="Layer 2"><g id="Layer_1-2" data-name="Layer 1"><path class="cls-1" d="M206.69,70.28A47.57,47.57,0,0,1,250.94,40V0a87.64,87.64,0,0,0-85.56,69.17,98.56,98.56,0,0,1,41.31,1.11Z"/><path class="cls-2" d="M343.86,103.15A97.78,97.78,0,0,0,277,68.36c-2.87-.25-5.78-.38-8.65-.38a98,98,0,0,0-41.92,9.41,98.68,98.68,0,0,0-43-9.9V495a70.7,70.7,0,0,0,31.79-7.45,71.41,71.41,0,0,0,24.54,6.69c2.08.18,4.19.27,6.27.27A71.38,71.38,0,0,0,316,436.91l49.07-251.55a98.55,98.55,0,0,0-21.19-82.21Z"/><path class="cls-3" d="M183.45,67.5a99,99,0,0,0-18.07,1.67,98,98,0,0,0-25,8.22A98,98,0,0,0,98.51,68c-2.87,0-5.78.13-8.65.38A98.45,98.45,0,0,0,.38,175a101.27,101.27,0,0,0,1.47,10.36L50.91,436.91a71.37,71.37,0,0,0,69.93,57.6c2.09,0,4.2-.09,6.28-.27a71.41,71.41,0,0,0,24.54-6.69A70.67,70.67,0,0,0,183.45,495V67.5Z"/></g></g></svg>