<svg xmlns="http://www.w3.org/2000/svg" viewBox="0 0 11508.17 11800.25"><defs><style>.cls-1{fill:none;stroke:#b79b8d;}.cls-1,.cls-2{stroke-miterlimit:10;}.cls-2{fill:#006837;stroke:#000;}</style></defs><title>green-peppers_2</title><g id="Layer_2" data-name="Layer 2"><g id="Layer_1-2" data-name="Layer 1"><line class="cls-1" x1="1617.48" y1="9476.69" x2="1551.48" y2="9543.69"/><path class="cls-2" d="M5876.57-7024.52a701.51,701.51,0,0,1-109.1-99.68,693.5,693.5,0,0,1-83.31-116.59,696.69,696.69,0,0,1-56.84-129,702.19,702.19,0,0,1-29.45-135,693.86,693.86,0,0,1-242.08-22.45,693.66,693.66,0,0,1-228.29-111,702.29,702.29,0,0,1-104.63-94.66,693.91,693.91,0,0,1-81.19-110.24A697.29,697.29,0,0,1,4884.52-7965,701.92,701.92,0,0,1,4852-8094.59a701.38,701.38,0,0,1-7.33-133.45,696.83,696.83,0,0,1,18.48-133.35A693,693,0,0,1,4908-8490.74a702.15,702.15,0,0,1,71.88-121.41,695.08,695.08,0,0,1,167.56-162,693.5,693.5,0,0,1,203.81-95.16,698.63,698.63,0,0,1,221.67-25.54,692.06,692.06,0,0,1,219.56,46.25,705.28,705.28,0,0,1,50.83-79.67A701.18,701.18,0,0,1,5938-9032.89a692.68,692.68,0,0,1,110.24-81.19,696.61,696.61,0,0,1,121.89-57.17,701.92,701.92,0,0,1,129.62-32.54,702.2,702.2,0,0,1,133.45-7.33,696.85,696.85,0,0,1,133.35,18.49,693.28,693.28,0,0,1,129.35,44.88,702.09,702.09,0,0,1,121.41,71.87,702.78,702.78,0,0,1,104.62,94.67A692.76,692.76,0,0,1,7003.1-8871a696.57,696.57,0,0,1,57.16,121.89,700.23,700.23,0,0,1,32.54,129.63,701.23,701.23,0,0,1,7.33,133.44,696.26,696.26,0,0,1-18.48,133.36,693.18,693.18,0,0,1-44.88,129.34,701.51,701.51,0,0,1-71.88,121.41,700.71,700.71,0,0,1-106,114.65,693.69,693.69,0,0,1,95.05,191.84,699.55,699.55,0,0,1,32.44,211.3A693.69,693.69,0,0,1,6952.71-7371a695.54,695.54,0,0,1-102.17,198.84,701.18,701.18,0,0,1-94.66,104.62,692.68,692.68,0,0,1-110.24,81.19,696.61,696.61,0,0,1-121.89,57.17,701.92,701.92,0,0,1-129.62,32.54,702.2,702.2,0,0,1-133.45,7.33,697.62,697.62,0,0,1-133.35-18.48A694,694,0,0,1,5998-6952.65,702.09,702.09,0,0,1,5876.57-7024.52ZM5618.15-8672.69c-104.36-76.89-200.84-96.82-286.75-59.25-65,28.44-122.84,90.84-167.17,180.46-40.85,82.57-68.93,184.25-81.2,294-12.5,111.82-7.08,225,15.26,318.63,24.33,101.94,67.44,178.11,124.67,220.28,83.18,61.27,195.58,49.45,325-34.17l383.36-290.63,2.71,2.73-202.6,263.09c-127.78,183.06-97,358.37,86.56,493.64,125.27,92.3,313.69,157.38,504,174.08,91.71,8,178.91,4.09,252.18-11.43,78.83-16.7,139.34-45.63,179.84-86,90.57-90.27,71.3-229.78-55.73-403.43l-457.38-550.52,428.73-22c162-14.69,263.67-80,294-188.74,25.88-92.67-.15-215.92-73.29-347-67.91-121.77-169.33-237.63-278.26-317.89-128.43-94.62-249.35-127.57-340.49-92.77-81.07,31-136.1,113.16-163.57,244.32l-77.2,585-378.61-345.44C5640.89-8655.32,5629.4-8664.4,5618.15-8672.69Z" transform="translate(1166.98 9212.19)"/><path class="cls-2" d="M4457.64-2958.67a701,701,0,0,1-104.84-104.15,693.14,693.14,0,0,1-78.37-120A696.94,696.94,0,0,1,4223-3314a701.31,701.31,0,0,1-23.79-136.1,693.87,693.87,0,0,1-240.93-32.55,693.42,693.42,0,0,1-223.45-120.43,701.82,701.82,0,0,1-100.58-98.95,693.31,693.31,0,0,1-76.51-113.53,697.23,697.23,0,0,1-52-124.18,701.82,701.82,0,0,1-27.09-130.87,701.17,701.17,0,0,1-1.74-133.63,695.9,695.9,0,0,1,24-132.47,692.26,692.26,0,0,1,50.25-127.35,701.29,701.29,0,0,1,76.88-118.3,695.07,695.07,0,0,1,174.19-154.86,694,694,0,0,1,207.61-86.56,698.92,698.92,0,0,1,222.54-16.25,692,692,0,0,1,217.44,55.39,705,705,0,0,1,54.11-77.47,701.88,701.88,0,0,1,99-100.58,693.31,693.31,0,0,1,113.53-76.51,697.44,697.44,0,0,1,124.17-52,701.29,701.29,0,0,1,130.88-27.09,702,702,0,0,1,133.63-1.75,696.83,696.83,0,0,1,132.47,24A694,694,0,0,1,5365-5045.8a701.75,701.75,0,0,1,118.3,76.89A701.74,701.74,0,0,1,5583.85-4870a692.55,692.55,0,0,1,76.51,113.54,696,696,0,0,1,52,124.17,701.37,701.37,0,0,1,27.1,130.87,702.11,702.11,0,0,1,1.74,133.64,696.73,696.73,0,0,1-24,132.46,693.06,693.06,0,0,1-50.25,127.36,702.15,702.15,0,0,1-76.89,118.3,700.42,700.42,0,0,1-110.72,110.11,694,694,0,0,1,87,195.65,699.23,699.23,0,0,1,23.57,212.47,693.46,693.46,0,0,1-42.52,211.56,695.53,695.53,0,0,1-110.4,194.4A701.74,701.74,0,0,1,5338-2964.86a692.76,692.76,0,0,1-113.54,76.51,696.09,696.09,0,0,1-124.17,52,701,701,0,0,1-130.87,27.09,702,702,0,0,1-133.63,1.75,696.69,696.69,0,0,1-132.47-24,693.68,693.68,0,0,1-127.35-50.25A701.35,701.35,0,0,1,4457.64-2958.67ZM4268.33-4616.2c-101.05-81.18-196.61-105.13-284-71.19-66.16,25.7-126.53,85.63-174.57,173.32-44.26,80.79-76.56,181.2-93.42,290.39-17.16,111.2-16.47,224.49,1.94,319,20,102.87,59.93,180.77,115.35,225.29,80.54,64.7,193.34,57.59,326.17-20.54L4555-3974.3l2.6,2.84-213.42,254.39c-135.32,177.56-111.94,354,65.84,496.83,121.31,97.46,306.84,170.35,496.3,195,91.29,11.88,178.58,11.57,252.44-.87,79.46-13.39,141.12-39.77,183.28-78.41,94.26-86.4,80.83-226.6-38.82-405.41l-434-569.15,429.28-4.06c162.46-7.91,266.77-68.87,301.67-176.29,29.73-91.51,8.87-215.74-58.72-349.81-62.76-124.5-159.25-244.5-264.73-329.24-124.36-99.91-243.8-137.88-336.32-106.92-82.29,27.54-140.71,107.37-173.63,237.27l-101.59,581.29-363.84-361C4290.33-4597.89,4279.23-4607.44,4268.33-4616.2Z" transform="translate(1166.98 9212.19)"/><path class="cls-2" d="M4675.66-313.85a701.1,701.1,0,0,1-32.84-144.08,693.13,693.13,0,0,1-2-143.28,697.45,697.45,0,0,1,26.81-138.37,701.16,701.16,0,0,1,52.72-127.71,693.89,693.89,0,0,1-186.12-156.41A693.46,693.46,0,0,1,4409.87-1245a701.63,701.63,0,0,1-32-137.41,692.55,692.55,0,0,1-3.89-136.85A696.65,696.65,0,0,1,4396.45-1652a701.73,701.73,0,0,1,47.14-125.06,701.7,701.7,0,0,1,70-113.83,697.17,697.17,0,0,1,91.18-99,693,693,0,0,1,110.6-80.71,701.62,701.62,0,0,1,128.25-58.8,695.11,695.11,0,0,1,230-37.62,693.42,693.42,0,0,1,221.71,38,698.75,698.75,0,0,1,196.71,105.34,692.35,692.35,0,0,1,154.05,163.13,705.73,705.73,0,0,1,87.17-36.49,701.63,701.63,0,0,1,137.41-32,694.18,694.18,0,0,1,136.86-3.89,696.7,696.7,0,0,1,132.73,22.5,700.93,700.93,0,0,1,125.06,47.13,701.7,701.7,0,0,1,113.83,70,696.65,696.65,0,0,1,99,91.19,692.5,692.5,0,0,1,80.71,110.59,702,702,0,0,1,58.8,128.26,701.63,701.63,0,0,1,32,137.41,694.07,694.07,0,0,1,3.89,136.85,696.93,696.93,0,0,1-22.5,132.74A701.22,701.22,0,0,1,6584-931.27a701.61,701.61,0,0,1-70,113.82,696.19,696.19,0,0,1-91.19,99.05,692.44,692.44,0,0,1-110.59,80.7A701.35,701.35,0,0,1,6184-578.9a700.27,700.27,0,0,1-152.46,33.79,693.64,693.64,0,0,1-31.23,211.81,699.47,699.47,0,0,1-93.76,192.11,693.68,693.68,0,0,1-149.13,156,695.38,695.38,0,0,1-197.28,105.16,701.46,701.46,0,0,1-137.41,32,692.55,692.55,0,0,1-136.85,3.89,696.7,696.7,0,0,1-132.73-22.5A700.64,700.64,0,0,1,5028,86.22a701.27,701.27,0,0,1-113.83-70A696.73,696.73,0,0,1,4815.16-75a693.06,693.06,0,0,1-80.7-110.59A702,702,0,0,1,4675.66-313.85Zm727-1501.59c-41.93-122.65-109.85-194-201.86-212.1-69.64-13.7-152.71,4.63-240.21,53-80.62,44.57-161.64,112.11-234.3,195.34-74,84.76-134,180.83-169.05,270.52-38.11,97.63-46.09,184.79-23.09,252.05,33.42,97.75,132.52,152.1,286.55,157.17l480.64-20.34.67,3.79-316.41,100.72c-209.33,77.6-284,239.17-210.21,455,50.33,147.24,168.07,308.09,314.94,430.28C5161.06-71.16,5235-24.71,5304,4.29c74.29,31.2,140.5,41.91,196.79,31.83,125.87-22.56,189.54-148.19,184.13-363.27l-62.09-713,364.83,226.26c141.48,80.25,262.22,84.57,349.18,12.49,74.08-61.4,122.93-177.51,137.57-327,13.59-138.75-3.72-291.76-47.49-419.79-51.6-150.95-132.19-246.93-226.91-270.28-84.26-20.77-176.33,15.42-273.65,107.54l-396.85,436.73L5415.3-1773.8C5411.41-1788.2,5407.14-1802.21,5402.62-1815.44Z" transform="translate(1166.98 9212.19)"/><path class="cls-2" d="M8572.77,680.19a713.11,713.11,0,0,1-244.57,369.15,732.17,732.17,0,0,1-121.49,78.21,718.28,718.28,0,0,1,70,243.68A709.81,709.81,0,0,1,8254.45,1634a712.52,712.52,0,0,1-228.81,356.28,733.11,733.11,0,0,1-243.44,135.34,737.37,737.37,0,0,1-282.33,34.81,752.16,752.16,0,0,1-146.68-25.33,743.94,743.94,0,0,1-223-103.5,735.52,735.52,0,0,1-280.49-369.51,712.9,712.9,0,0,1-38.05-230.51,755.15,755.15,0,0,1-236.5-73.86,737.12,737.12,0,0,1-305.58-289.09,731.45,731.45,0,0,1-58-127.1,719.54,719.54,0,0,1-32.56-136.48,713.79,713.79,0,0,1,150.14-542.68A720.26,720.26,0,0,1,6427.28,162,736.62,736.62,0,0,1,6953.05-8.12a753.72,753.72,0,0,1,299.72,86.37A715.88,715.88,0,0,1,7405.19-84.62a736,736,0,0,1,417.7-154.64,744.92,744.92,0,0,1,234.32,26.38,752,752,0,0,1,138.85,53.66,737,737,0,0,1,305.59,289.1,731,731,0,0,1,58,127.09,719.79,719.79,0,0,1,32.55,136.49,711,711,0,0,1-19.39,286.73ZM7050.91,1536.57c-35.89,129.71-18.79,230.86,50.82,300.63,52.69,52.81,136,86.13,241,96.34,96.7,9.42,207.33-.6,319.93-29,114.67-28.89,223.85-75.7,307.4-131.81,91-61.08,149.44-131,169.12-202.11,28.59-103.39-25.78-208.37-157.21-303.58l-431.51-266.15,1.65-3.64,335.68,100.46c228.55,57.08,389.19-37.18,452.33-265.39,43.08-155.72,35.39-362.86-20.59-554.09-27-92.15-64-175.52-107.15-241.08C8166-33.36,8114.5-81.58,8059.42-106.16c-123.19-55-253,15-375.38,202.3L7316.85,743.07l-184.7-408.9C7056.09,182,6953.26,107.09,6834.77,117.48c-100.93,8.85-212.19,79.41-313.27,198.68-93.87,110.75-169.18,251.92-206.65,387.33-44.16,159.64-30.56,289.34,38.32,365.21,61.26,67.48,163,90.83,302.38,69.39L7260,998.42l-195.57,495C7059.33,1508.06,7054.78,1522.57,7050.91,1536.57Z" transform="translate(1166.98 9212.19)"/><path class="cls-2" d="M6910.52-1648.77a701.35,701.35,0,0,1-110.94-97.63,692.92,692.92,0,0,1-85.46-115,696.86,696.86,0,0,1-59.23-127.89,701.94,701.94,0,0,1-32-134.42,694.1,694.1,0,0,1-242.45-17.93,693.62,693.62,0,0,1-230.32-106.72,701.58,701.58,0,0,1-106.37-92.7,692.93,692.93,0,0,1-83.23-108.7,696.29,696.29,0,0,1-59.42-120.81,701.67,701.67,0,0,1-34.95-129,701.41,701.41,0,0,1-9.81-133.29,697.06,697.06,0,0,1,16-133.67,693.53,693.53,0,0,1,42.47-130.16,701.72,701.72,0,0,1,69.6-122.73,695.13,695.13,0,0,1,164.51-165.09,693.84,693.84,0,0,1,202-98.94,698.83,698.83,0,0,1,221.16-29.66A691.91,691.91,0,0,1,6792.49-3471a703.81,703.81,0,0,1,49.34-80.6,702,702,0,0,1,92.69-106.37,694.08,694.08,0,0,1,108.71-83.23,696.91,696.91,0,0,1,120.8-59.42,702,702,0,0,1,129-34.95,701.41,701.41,0,0,1,133.29-9.81,697.16,697.16,0,0,1,133.67,16,693.53,693.53,0,0,1,130.16,42.47,701.91,701.91,0,0,1,122.72,69.6,701.58,701.58,0,0,1,106.37,92.7,693,693,0,0,1,83.23,108.71,696.2,696.2,0,0,1,59.42,120.8,700.76,700.76,0,0,1,34.95,129,701.3,701.3,0,0,1,9.81,133.28,696.37,696.37,0,0,1-16,133.68A692.47,692.47,0,0,1,8048.19-2869a701,701,0,0,1-69.6,122.73,700.61,700.61,0,0,1-103.87,116.6,694,694,0,0,1,98.61,190,699.38,699.38,0,0,1,36.36,210.66A693.62,693.62,0,0,1,7980-2015.2a695.73,695.73,0,0,1-98.46,200.71,702.06,702.06,0,0,1-92.7,106.37,693.53,693.53,0,0,1-108.7,83.23,697,697,0,0,1-120.81,59.42,701.67,701.67,0,0,1-129,35,701.47,701.47,0,0,1-133.29,9.81,697.06,697.06,0,0,1-133.67-16,693.05,693.05,0,0,1-130.16-42.47A702,702,0,0,1,6910.52-1648.77ZM6621.45-3291.84c-105.77-74.93-202.6-93.07-287.81-53.9-64.48,29.64-121.12,93.11-163.78,183.54-39.3,83.31-65.48,185.5-75.7,295.5-10.42,112-2.89,225.07,21.19,318.29,26.22,101.47,70.74,176.83,128.75,217.92,84.3,59.71,196.46,45.8,324.34-40.21l377.88-297.73,2.76,2.68-197.67,266.82c-124.34,185.41-90.34,360.12,95.74,491.95,127,90,316.56,151.5,507.16,164.66,91.85,6.33,179,.76,251.93-16.12,78.5-18.17,138.46-48.22,178.21-89.34,88.87-91.94,67-231.07-63.24-402.32L7253.66-2792l428.25-30c161.69-17.7,262.13-84.85,290.47-194.18,24.15-93.14-4.17-215.88-79.74-345.63-70.17-120.48-173.73-234.43-284.13-312.65-130.17-92.21-251.69-122.9-342.16-86.41-80.48,32.46-134,115.67-159,247.32l-66.3,586.37-385-338.33C6644.52-3274.9,6632.86-3283.76,6621.45-3291.84Z" transform="translate(1166.98 9212.19)"/><path class="cls-2" d="M4175.35,2470.89a701.05,701.05,0,0,1-113.76-94.32A693.27,693.27,0,0,1,3909.81,2138a701.79,701.79,0,0,1-35.9-133.41,693.88,693.88,0,0,1-476.24-110.7,701.61,701.61,0,0,1-109-89.53,692.81,692.81,0,0,1-149.34-225.21,698.74,698.74,0,0,1-40.4-394.94,693.1,693.1,0,0,1,38.63-131.35,701.15,701.15,0,0,1,225.55-294.58A697.69,697.69,0,0,1,4003.79,653a704.31,704.31,0,0,1,136.48-191.06,692.71,692.71,0,0,1,225.22-149.34,698.56,698.56,0,0,1,394.94-40.39,692.24,692.24,0,0,1,131.34,38.62,703.06,703.06,0,0,1,233.77,155.49,692.71,692.71,0,0,1,149.34,225.22,698.74,698.74,0,0,1,40.4,394.94,693.31,693.31,0,0,1-38.63,131.35,702.94,702.94,0,0,1-166.36,244.33,696.27,696.27,0,0,1-283.93,1073,698.48,698.48,0,0,1-394.94,40.4,693.28,693.28,0,0,1-131.35-38.62A701.55,701.55,0,0,1,4175.35,2470.89ZM3838.09,837c-107.92-71.79-205.24-87.07-289.26-45.41-63.59,31.52-118.33,96.63-158.31,188.27-36.84,84.44-60,187.35-67,297.61-7.12,112.29,3.73,225,30.54,317.52,29.19,100.66,75.91,174.67,135.11,214,86,57.21,197.72,40,323-49.73l369-308.7,2.84,2.6-189.74,272.51c-118.84,189-79.72,362.62,110.16,488.92,129.56,86.18,320.88,142.13,511.79,149.67,92,3.64,178.9-4.49,251.34-23.52,77.94-20.46,137-52.27,175.5-94.53,86.14-94.51,60.18-232.94-75-400.29l-483.28-527.93,427.18-42.56c161.1-22.45,259.52-92.52,284.64-202.64,21.4-93.8-10.52-215.66-89.87-343.13-73.68-118.36-180.55-229.22-293.2-304.16-132.83-88.35-255.19-115.45-344.56-76.32-79.49,34.82-130.51,119.57-151.64,251.9l-49,588.06L3873.5,862.35C3861.65,853.29,3849.74,844.78,3838.09,837Z" transform="translate(1166.98 9212.19)"/><path class="cls-2" d="M2808.91-726.08a701.28,701.28,0,0,1-113.33-94.84,693.22,693.22,0,0,1-88.3-112.86,698,698,0,0,1-62.38-126.39,701.39,701.39,0,0,1-35.29-133.58,694,694,0,0,1-242.83-11.91,693.61,693.61,0,0,1-232.89-101,701.4,701.4,0,0,1-108.64-90,692.83,692.83,0,0,1-85.9-106.6,696.32,696.32,0,0,1-62.4-119.3,701,701,0,0,1-38.14-128.08,701.83,701.83,0,0,1-13.12-133,696.85,696.85,0,0,1,12.67-134,693.16,693.16,0,0,1,39.23-131.17,701.15,701.15,0,0,1,66.53-124.41,695,695,0,0,1,160.36-169.13A694.17,694.17,0,0,1,2204-2546.32a699,699,0,0,1,220.36-35.14,692.15,692.15,0,0,1,221.35,36.67,705.87,705.87,0,0,1,47.33-81.8,700.85,700.85,0,0,1,90-108.63,692.83,692.83,0,0,1,106.6-85.9,697.07,697.07,0,0,1,119.3-62.41A701.61,701.61,0,0,1,3137-2921.67a701.64,701.64,0,0,1,133-13.11,696.85,696.85,0,0,1,134,12.67,693.13,693.13,0,0,1,131.17,39.22,701.2,701.2,0,0,1,124.41,66.54,701.4,701.4,0,0,1,108.64,90,692.83,692.83,0,0,1,85.9,106.6,696.32,696.32,0,0,1,62.4,119.3,700.83,700.83,0,0,1,38.14,128.09,701.65,701.65,0,0,1,13.12,133,696.85,696.85,0,0,1-12.67,134,693.16,693.16,0,0,1-39.23,131.17,701.58,701.58,0,0,1-66.53,124.42,700.94,700.94,0,0,1-100.95,119.14A693.45,693.45,0,0,1,3851.76-1543a699.42,699.42,0,0,1,41.58,209.69A693.59,693.59,0,0,1,3869-1118.93a695.89,695.89,0,0,1-93.45,203.09,701.79,701.79,0,0,1-90,108.63,692.83,692.83,0,0,1-106.6,85.9,696.6,696.6,0,0,1-119.29,62.4,701.32,701.32,0,0,1-128.09,38.15,702.56,702.56,0,0,1-133,13.11,696.85,696.85,0,0,1-134-12.67,693.13,693.13,0,0,1-131.17-39.22A702.54,702.54,0,0,1,2808.91-726.08ZM2479.14-2361.47c-107.59-72.28-204.84-88-289-46.74-63.73,31.24-118.77,96.09-159.17,187.55-37.22,84.26-60.86,187.06-68.35,297.29-7.64,112.26,2.69,225.08,29.08,317.66,28.73,100.8,75.11,175,134.12,214.66,85.76,57.6,197.54,40.91,323.24-48.25l370.37-307,2.83,2.61-191,271.64c-119.71,188.44-81.38,362.26,107.91,489.42,129.17,86.78,320.23,143.61,511.1,152,92,4.06,178.92-3.67,251.45-22.36,78-20.11,137.22-51.64,175.93-93.73,86.57-94.12,61.25-232.66-73.19-400.63l-480.87-530.14,427.38-40.6c161.2-21.71,259.94-91.33,285.57-201.33,21.82-93.71-9.53-215.71-88.3-343.54-73.14-118.7-179.5-230.05-291.8-305.5-132.42-89-254.66-116.63-344.21-77.9-79.64,34.45-131,119-152.79,251.2l-51.73,587.83L2514.43-2336C2502.62-2345.1,2490.75-2353.67,2479.14-2361.47Z" transform="translate(1166.98 9212.19)"/><path class="cls-2" d="M2327.13,1479a701.57,701.57,0,0,1-147-15.53,693.35,693.35,0,0,1-258.49-114.57,701.94,701.94,0,0,1-103.79-91.2,693.89,693.89,0,0,1-457.83,171.59,701.73,701.73,0,0,1-140.38-14.15,696.16,696.16,0,0,1-352.16-189.87,697.57,697.57,0,0,1-149.28-221.41,693.08,693.08,0,0,1-40.59-130.75,701.3,701.3,0,0,1,24.65-370.2A697.67,697.67,0,0,1,1177.44,60.35a705.87,705.87,0,0,1-6.33-94.29,701,701,0,0,1,14.16-140.38,693,693,0,0,1,40.58-130.75,696.13,696.13,0,0,1,64.23-118.32,700.7,700.7,0,0,1,85.05-103.09,701.92,701.92,0,0,1,103.09-85.06,696.84,696.84,0,0,1,118.32-64.22,693,693,0,0,1,130.76-40.59,701.73,701.73,0,0,1,140.38-14.15,701.63,701.63,0,0,1,140.37,14.15,693,693,0,0,1,130.76,40.59,696.84,696.84,0,0,1,118.32,64.22,701.92,701.92,0,0,1,103.09,85.06,700.7,700.7,0,0,1,85.05,103.09,696.13,696.13,0,0,1,64.23,118.32,693.81,693.81,0,0,1,40.59,130.75,701.73,701.73,0,0,1,14.15,140.38,700.18,700.18,0,0,1-17.36,155.19,695.82,695.82,0,0,1,476.81,661.19,701.73,701.73,0,0,1-14.15,140.38,692.86,692.86,0,0,1-104.81,249.07,698.43,698.43,0,0,1-306.47,252.37,692.85,692.85,0,0,1-130.75,40.59A701.73,701.73,0,0,1,2327.13,1479ZM1141.43,305.39c-129.62,0-219.11,41.18-266,122.39-35.49,61.47-45,146-27.54,244.44,16.09,90.71,53.8,189.22,109.05,284.9,56.26,97.44,127.75,185.32,201.29,247.46,80,67.64,159.94,103.39,231,103.39,103.3,0,186.78-76.2,241.41-220.3L1766.9,626.29l3.8.59-7,332c5.72,223.18,134.46,346.08,362.5,346.08,155.61,0,345.9-59.37,509-158.82,78.6-47.92,146.46-102.83,196.25-158.79,53.56-60.2,85.1-119.39,93.77-175.91C2944.57,685,2846.3,584.14,2641,519.68l-694.78-171.9,332.11-272C2400.06-32.16,2443.2-145,2403.13-250.61c-34.14-90-128.2-173.75-264.87-235.93-126.9-57.75-277.28-90.87-412.58-90.87-159.52,0-276.42,45.21-329.15,127.29-46.91,73-42.45,171.83,13.24,293.72l284.87,516.79-509.71-53.53C1170.05,305.88,1155.42,305.39,1141.43,305.39Z" transform="translate(1166.98 9212.19)"/><path class="cls-2" d="M7784.32-4651.89a701,701,0,0,1-119.4,87.07,692.85,692.85,0,0,1-130.84,58.44,698.25,698.25,0,0,1-137.71,30,702.36,702.36,0,0,1-138.15,2A694.19,694.19,0,0,1,7188-4241.6,693.65,693.65,0,0,1,7033.82-4040a702,702,0,0,1-113.6,83.68A693,693,0,0,1,6796-3898.67a696.52,696.52,0,0,1-130.83,31.75,701.11,701.11,0,0,1-133.51,6.09,701.22,701.22,0,0,1-132.23-19.39,696.66,696.66,0,0,1-127-44.66,692.62,692.62,0,0,1-117.81-69.73A701.76,701.76,0,0,1,6050-4089.22a695.13,695.13,0,0,1-125.4-196.45,693.88,693.88,0,0,1-52.68-218.68,698.8,698.8,0,0,1,19.1-222.32,691.82,691.82,0,0,1,89-205.95,705.37,705.37,0,0,1-67.95-65.68,701,701,0,0,1-83.68-113.6,692.3,692.3,0,0,1-57.62-124.19A696.54,696.54,0,0,1,5739-5366.92a701.92,701.92,0,0,1-6.08-133.51,702,702,0,0,1,19.38-132.23,697.05,697.05,0,0,1,44.66-127,693,693,0,0,1,69.74-117.82,702.24,702.24,0,0,1,94.6-104.68,702,702,0,0,1,113.6-83.68,693,693,0,0,1,124.19-57.62,696.52,696.52,0,0,1,130.83-31.75,701.93,701.93,0,0,1,133.51-6.09,701.22,701.22,0,0,1,132.23,19.39,696.66,696.66,0,0,1,127,44.66,693,693,0,0,1,117.82,69.73,701.69,701.69,0,0,1,104.67,94.61,700,700,0,0,1,91.24,126.73,693.4,693.4,0,0,1,206.93-55,699.54,699.54,0,0,1,213.53,10.27,693.48,693.48,0,0,1,202.19,75.41,695.6,695.6,0,0,1,174.51,139.71,702.11,702.11,0,0,1,83.69,113.6A693.69,693.69,0,0,1,7974.87-5398a697.29,697.29,0,0,1,31.75,130.83,701.93,701.93,0,0,1,6.09,133.51,702,702,0,0,1-19.39,132.23,696.66,696.66,0,0,1-44.66,127,693,693,0,0,1-69.73,117.82A701.69,701.69,0,0,1,7784.32-4651.89Zm-1666.63-74.86c-96.12,87-134.86,177.54-115.14,269.21,14.92,69.39,64.56,138.47,143.56,199.75,72.79,56.47,166.84,104.23,272,138.11,107.09,34.52,219.06,51.73,315.28,48.47,104.75-3.54,188-30.62,240.69-78.32,76.6-69.31,87.4-181.81,31.23-325.32l-208.5-433.54,3.21-2.12,217.49,250.92c154,161.67,331.89,166.44,501,13.45,115.39-104.39,216.67-276.08,270.93-459.27,26.14-88.27,39.63-174.51,39-249.41-.67-80.57-17-145.63-48.47-193.36-70.43-106.73-211-115.61-406.45-25.7L6743-5235.24l63.79-424.54c17.85-161.67-25.86-274.3-126.43-325.73-85.66-43.8-211.62-42.83-354.69,2.74-132.85,42.31-266.58,118.64-366.92,209.41-118.3,107-174.66,219-158.7,315.21,14.2,85.6,83.8,155.9,206.87,208.92l557.95,192.13-413.89,302.26C6139.25-4745.58,6128.06-4736.13,6117.69-4726.75Z" transform="translate(1166.98 9212.19)"/><path class="cls-2" d="M9357.13-142a701.57,701.57,0,0,1-147-15.53A692.93,692.93,0,0,1,9073.94-202a697,697,0,0,1-122.26-70.12,701.94,701.94,0,0,1-103.79-91.2,694,694,0,0,1-208.2,125.52,693.64,693.64,0,0,1-249.63,46.07,701.73,701.73,0,0,1-140.38-14.15,693.81,693.81,0,0,1-130.75-40.59,696.13,696.13,0,0,1-118.32-64.23,700.7,700.7,0,0,1-103.09-85.05,701.92,701.92,0,0,1-85.06-103.09,696.84,696.84,0,0,1-64.22-118.32,693.08,693.08,0,0,1-40.59-130.75,701.73,701.73,0,0,1-14.15-140.38,695,695,0,0,1,38.8-229.82,693.68,693.68,0,0,1,107.64-197.51,699,699,0,0,1,163.31-152.05,692.08,692.08,0,0,1,204.19-93,705.87,705.87,0,0,1-6.33-94.29,701,701,0,0,1,14.16-140.38,693,693,0,0,1,40.58-130.75,696.13,696.13,0,0,1,64.23-118.32,700.7,700.7,0,0,1,85-103.09,701.92,701.92,0,0,1,103.09-85.06,696.84,696.84,0,0,1,118.32-64.22,693,693,0,0,1,130.76-40.59,701.73,701.73,0,0,1,140.38-14.15,701.63,701.63,0,0,1,140.37,14.15,693,693,0,0,1,130.76,40.59,696.84,696.84,0,0,1,118.32,64.22,701.92,701.92,0,0,1,103.09,85.06,700.7,700.7,0,0,1,85.05,103.09,696.13,696.13,0,0,1,64.23,118.32,693.81,693.81,0,0,1,40.59,130.75,701.73,701.73,0,0,1,14.15,140.38,700.18,700.18,0,0,1-17.36,155.19,693.48,693.48,0,0,1,190.32,98.07,699.3,699.3,0,0,1,151.46,150.87,693.61,693.61,0,0,1,99.35,191.56,695.64,695.64,0,0,1,35.68,220.69,701.73,701.73,0,0,1-14.15,140.38A693.08,693.08,0,0,1,9999-567.43a696.08,696.08,0,0,1-64.22,118.32A701.4,701.4,0,0,1,9849.67-346,701.84,701.84,0,0,1,9746.59-261a697.25,697.25,0,0,1-118.33,64.22,692.85,692.85,0,0,1-130.75,40.59A701.73,701.73,0,0,1,9357.13-142ZM8171.43-1315.61c-129.62,0-219.11,41.18-266,122.39-35.49,61.47-45,146-27.54,244.44,16.09,90.71,53.8,189.22,109,284.9,56.26,97.44,127.75,185.32,201.29,247.46,80.05,67.64,159.94,103.39,231,103.39,103.3,0,186.78-76.2,241.41-220.3L8796.9-994.71l3.8.59-7.05,332c5.72,223.18,134.46,346.08,362.5,346.08,155.61,0,345.9-59.37,509-158.82,78.6-47.92,146.46-102.83,196.25-158.79,53.56-60.2,85.1-119.39,93.77-175.91,19.37-126.4-78.9-227.28-284.17-291.74l-694.78-171.9,332.11-272c121.7-107.92,164.84-220.77,124.77-326.37-34.14-90-128.2-173.75-264.87-235.93-126.9-57.75-277.28-90.87-412.58-90.87-159.52,0-276.42,45.21-329.15,127.29-46.91,73-42.45,171.83,13.24,293.72l284.87,516.79-509.71-53.53C8200.05-1315.12,8185.42-1315.61,8171.43-1315.61Z" transform="translate(1166.98 9212.19)"/><path class="cls-2" d="M9644.13-3435a701.57,701.57,0,0,1-147-15.53A692.93,692.93,0,0,1,9360.94-3495a697,697,0,0,1-122.26-70.12,701.94,701.94,0,0,1-103.79-91.2,694,694,0,0,1-208.2,125.52,693.64,693.64,0,0,1-249.63,46.07,701.73,701.73,0,0,1-140.38-14.15,693.81,693.81,0,0,1-130.75-40.59,696.13,696.13,0,0,1-118.32-64.23,700.7,700.7,0,0,1-103.09-85.05,701.92,701.92,0,0,1-85.06-103.09,696.84,696.84,0,0,1-64.22-118.32,693.08,693.08,0,0,1-40.59-130.75,701.73,701.73,0,0,1-14.15-140.38,695,695,0,0,1,38.8-229.82,693.68,693.68,0,0,1,107.64-197.51,699,699,0,0,1,163.31-152,692.08,692.08,0,0,1,204.19-93,705.87,705.87,0,0,1-6.33-94.29,701,701,0,0,1,14.16-140.38,693,693,0,0,1,40.58-130.75,696.13,696.13,0,0,1,64.23-118.32,700.7,700.7,0,0,1,85-103.09,701.92,701.92,0,0,1,103.09-85.06,696.84,696.84,0,0,1,118.32-64.22,693,693,0,0,1,130.76-40.59,701.73,701.73,0,0,1,140.38-14.15,701.63,701.63,0,0,1,140.37,14.15,693,693,0,0,1,130.76,40.59,696.84,696.84,0,0,1,118.32,64.22,701.92,701.92,0,0,1,103.09,85.06,700.7,700.7,0,0,1,85.05,103.09,696.13,696.13,0,0,1,64.23,118.32,693.81,693.81,0,0,1,40.59,130.75,701.73,701.73,0,0,1,14.15,140.38,700.18,700.18,0,0,1-17.36,155.19,693.48,693.48,0,0,1,190.32,98.07,699.3,699.3,0,0,1,151.46,150.87,693.61,693.61,0,0,1,99.35,191.56,695.64,695.64,0,0,1,35.68,220.69,701.73,701.73,0,0,1-14.15,140.38,693.08,693.08,0,0,1-40.59,130.75,696.08,696.08,0,0,1-64.22,118.32,701.4,701.4,0,0,1-85.06,103.09,701.84,701.84,0,0,1-103.08,85.06,697.25,697.25,0,0,1-118.33,64.22,692.85,692.85,0,0,1-130.75,40.59A701.73,701.73,0,0,1,9644.13-3435ZM8458.43-4608.61c-129.62,0-219.11,41.18-266,122.39-35.49,61.47-45,146-27.54,244.44,16.09,90.71,53.8,189.22,109.05,284.9,56.26,97.44,127.75,185.32,201.29,247.46,80.05,67.64,159.94,103.39,231,103.39,103.3,0,186.78-76.2,241.41-220.3l136.23-461.38,3.8.59-7.05,332c5.72,223.18,134.46,346.08,362.5,346.08,155.61,0,345.9-59.37,509-158.82,78.6-47.92,146.46-102.83,196.25-158.79,53.56-60.2,85.1-119.39,93.77-175.91,19.37-126.4-78.9-227.28-284.17-291.74l-694.78-171.9,332.11-272c121.7-107.92,164.84-220.77,124.77-326.37-34.14-90-128.2-173.75-264.87-235.93-126.9-57.75-277.28-90.87-412.58-90.87-159.52,0-276.42,45.21-329.15,127.29-46.91,73-42.45,171.83,13.24,293.72l284.87,516.79-509.71-53.53C8487.05-4608.12,8472.42-4608.61,8458.43-4608.61Z" transform="translate(1166.98 9212.19)"/><path class="cls-2" d="M2656.13-3274a701.57,701.57,0,0,1-147-15.53A692.93,692.93,0,0,1,2372.94-3334a697,697,0,0,1-122.26-70.12,701.94,701.94,0,0,1-103.79-91.2,694,694,0,0,1-208.2,125.52,693.64,693.64,0,0,1-249.63,46.07,701.73,701.73,0,0,1-140.38-14.15,693.81,693.81,0,0,1-130.75-40.59,696.13,696.13,0,0,1-118.32-64.23,700.7,700.7,0,0,1-103.09-85.05,701.92,701.92,0,0,1-85.06-103.09,696.84,696.84,0,0,1-64.22-118.32,693.08,693.08,0,0,1-40.59-130.75,701.73,701.73,0,0,1-14.15-140.38,695,695,0,0,1,38.8-229.82,693.68,693.68,0,0,1,107.64-197.51,699,699,0,0,1,163.31-152,692.08,692.08,0,0,1,204.19-93,705.87,705.87,0,0,1-6.33-94.29,701,701,0,0,1,14.16-140.38,693,693,0,0,1,40.58-130.75,696.13,696.13,0,0,1,64.23-118.32,700.7,700.7,0,0,1,85.05-103.09,701.92,701.92,0,0,1,103.09-85.06,696.84,696.84,0,0,1,118.32-64.22,693,693,0,0,1,130.76-40.59,701.73,701.73,0,0,1,140.38-14.15,701.63,701.63,0,0,1,140.37,14.15,693,693,0,0,1,130.76,40.59,696.84,696.84,0,0,1,118.32,64.22,701.92,701.92,0,0,1,103.09,85.06,700.7,700.7,0,0,1,85.05,103.09,696.13,696.13,0,0,1,64.23,118.32,693.81,693.81,0,0,1,40.59,130.75,701.73,701.73,0,0,1,14.15,140.38,700.18,700.18,0,0,1-17.36,155.19,693.48,693.48,0,0,1,190.32,98.07,699.3,699.3,0,0,1,151.46,150.87A693.61,693.61,0,0,1,3317-4191.25a695.64,695.64,0,0,1,35.68,220.69,701.73,701.73,0,0,1-14.15,140.38A693.08,693.08,0,0,1,3298-3699.43a696.08,696.08,0,0,1-64.22,118.32A701.4,701.4,0,0,1,3148.67-3478,701.84,701.84,0,0,1,3045.59-3393a697.25,697.25,0,0,1-118.33,64.22,692.85,692.85,0,0,1-130.75,40.59A701.73,701.73,0,0,1,2656.13-3274ZM1470.43-4447.61c-129.62,0-219.11,41.18-266,122.39-35.49,61.47-45,146-27.54,244.44,16.09,90.71,53.8,189.22,109,284.9,56.26,97.44,127.75,185.32,201.29,247.46,80,67.64,159.94,103.39,231,103.39,103.3,0,186.78-76.2,241.41-220.3l136.23-461.38,3.8.59-7,332c5.72,223.18,134.46,346.08,362.5,346.08,155.61,0,345.9-59.37,509-158.82,78.6-47.92,146.46-102.83,196.25-158.79,53.56-60.2,85.1-119.39,93.77-175.91,19.37-126.4-78.9-227.28-284.17-291.74l-694.78-171.9,332.11-272c121.7-107.92,164.84-220.77,124.77-326.37-34.14-90-128.2-173.75-264.87-235.93-126.9-57.75-277.28-90.87-412.58-90.87-159.52,0-276.42,45.21-329.15,127.29-46.91,73-42.45,171.83,13.24,293.72l284.87,516.79-509.71-53.53C1499.05-4447.12,1484.42-4447.61,1470.43-4447.61Z" transform="translate(1166.98 9212.19)"/><path class="cls-2" d="M1007.13-817a701.57,701.57,0,0,1-147-15.53A692.93,692.93,0,0,1,723.94-877,697,697,0,0,1,601.68-947.1a701.94,701.94,0,0,1-103.79-91.2,694,694,0,0,1-208.2,125.52A693.64,693.64,0,0,1,40.06-866.71a701.73,701.73,0,0,1-140.38-14.15,693.81,693.81,0,0,1-130.75-40.59,696.13,696.13,0,0,1-118.32-64.23,700.7,700.7,0,0,1-103.09-85.05,701.92,701.92,0,0,1-85.06-103.09,696.84,696.84,0,0,1-64.22-118.32,693.08,693.08,0,0,1-40.59-130.75,701.73,701.73,0,0,1-14.15-140.38,695,695,0,0,1,38.8-229.82A693.68,693.68,0,0,1-510.06-1990.6a699,699,0,0,1,163.31-152.05,692.08,692.08,0,0,1,204.19-93,705.87,705.87,0,0,1-6.33-94.29,701,701,0,0,1,14.16-140.38,693,693,0,0,1,40.58-130.75,696.13,696.13,0,0,1,64.23-118.32,700.7,700.7,0,0,1,85.05-103.09,701.92,701.92,0,0,1,103.09-85.06,696.84,696.84,0,0,1,118.32-64.22,693,693,0,0,1,130.76-40.59,701.73,701.73,0,0,1,140.38-14.15,701.63,701.63,0,0,1,140.37,14.15,693,693,0,0,1,130.76,40.59,696.84,696.84,0,0,1,118.32,64.22,701.92,701.92,0,0,1,103.09,85.06,700.7,700.7,0,0,1,85,103.09,696.13,696.13,0,0,1,64.23,118.32,693.81,693.81,0,0,1,40.59,130.75,701.73,701.73,0,0,1,14.15,140.38,700.18,700.18,0,0,1-17.36,155.19,693.48,693.48,0,0,1,190.32,98.07,699.3,699.3,0,0,1,151.46,150.87A693.61,693.61,0,0,1,1668-1734.25a695.64,695.64,0,0,1,35.68,220.69,701.73,701.73,0,0,1-14.15,140.38A693.08,693.08,0,0,1,1649-1242.43a696.08,696.08,0,0,1-64.22,118.32A701.4,701.4,0,0,1,1499.67-1021,701.84,701.84,0,0,1,1396.59-936a697.25,697.25,0,0,1-118.33,64.22,692.85,692.85,0,0,1-130.75,40.59A701.73,701.73,0,0,1,1007.13-817ZM-178.57-1990.61c-129.62,0-219.11,41.18-266,122.39-35.49,61.47-45,146-27.54,244.44,16.09,90.71,53.8,189.22,109.05,284.9,56.26,97.44,127.75,185.32,201.29,247.46C-81.72-1023.78-1.83-988,69.26-988c103.3,0,186.78-76.2,241.41-220.3L446.9-1669.71l3.8.59-7.05,332c5.72,223.18,134.46,346.08,362.5,346.08,155.61,0,345.9-59.37,509-158.82,78.6-47.92,146.46-102.83,196.25-158.79,53.56-60.2,85.1-119.39,93.77-175.91,19.37-126.4-78.9-227.28-284.17-291.74l-694.78-171.9,332.11-272c121.7-107.92,164.84-220.77,124.77-326.37-34.14-90-128.2-173.75-264.87-235.93-126.9-57.75-277.28-90.87-412.58-90.87-159.52,0-276.42,45.21-329.15,127.29-46.91,73-42.45,171.83,13.24,293.72l284.87,516.79-509.71-53.53C-149.95-1990.12-164.58-1990.61-178.57-1990.61Z" transform="translate(1166.98 9212.19)"/><path class="cls-2" d="M4908.13-5506a701.57,701.57,0,0,1-147-15.53A692.93,692.93,0,0,1,4624.94-5566a697,697,0,0,1-122.26-70.12,701.94,701.94,0,0,1-103.79-91.2,694,694,0,0,1-208.2,125.52,693.64,693.64,0,0,1-249.63,46.07,701.73,701.73,0,0,1-140.38-14.15,693.81,693.81,0,0,1-130.75-40.59,696.13,696.13,0,0,1-118.32-64.23,700.7,700.7,0,0,1-103.09-85,701.92,701.92,0,0,1-85.06-103.09,696.84,696.84,0,0,1-64.22-118.32,693.08,693.08,0,0,1-40.59-130.75,701.73,701.73,0,0,1-14.15-140.38,695,695,0,0,1,38.8-229.82,693.68,693.68,0,0,1,107.64-197.51,699,699,0,0,1,163.31-152,692.08,692.08,0,0,1,204.19-93,705.87,705.87,0,0,1-6.33-94.29,701,701,0,0,1,14.16-140.38,693,693,0,0,1,40.58-130.75,696.13,696.13,0,0,1,64.23-118.32,700.7,700.7,0,0,1,85.05-103.09,701.92,701.92,0,0,1,103.09-85.06,696.84,696.84,0,0,1,118.32-64.22,693,693,0,0,1,130.76-40.59,701.73,701.73,0,0,1,140.38-14.15,701.63,701.63,0,0,1,140.37,14.15,693,693,0,0,1,130.76,40.59,696.84,696.84,0,0,1,118.32,64.22,701.92,701.92,0,0,1,103.09,85.06,700.7,700.7,0,0,1,85.05,103.09,696.13,696.13,0,0,1,64.23,118.32,693.81,693.81,0,0,1,40.59,130.75,701.73,701.73,0,0,1,14.15,140.38,700.18,700.18,0,0,1-17.36,155.19,693.48,693.48,0,0,1,190.32,98.07,699.3,699.3,0,0,1,151.46,150.87A693.61,693.61,0,0,1,5569-6423.25a695.64,695.64,0,0,1,35.68,220.69,701.73,701.73,0,0,1-14.15,140.38A693.08,693.08,0,0,1,5550-5931.43a696.08,696.08,0,0,1-64.22,118.32A701.4,701.4,0,0,1,5400.67-5710,701.84,701.84,0,0,1,5297.59-5625a697.25,697.25,0,0,1-118.33,64.22,692.85,692.85,0,0,1-130.75,40.59A701.73,701.73,0,0,1,4908.13-5506ZM3722.43-6679.61c-129.62,0-219.11,41.18-266,122.39-35.49,61.47-45,146-27.54,244.44,16.09,90.71,53.8,189.22,109.05,284.9,56.26,97.44,127.75,185.32,201.29,247.46,80.05,67.64,159.94,103.39,231,103.39,103.3,0,186.78-76.2,241.41-220.3l136.23-461.38,3.8.59-7.05,332c5.72,223.18,134.46,346.08,362.5,346.08,155.61,0,345.9-59.37,509-158.82,78.6-47.92,146.46-102.83,196.25-158.79,53.56-60.2,85.1-119.39,93.77-175.91,19.37-126.4-78.9-227.28-284.17-291.74l-694.78-171.9,332.11-272c121.7-107.92,164.84-220.77,124.77-326.37-34.14-90-128.2-173.75-264.87-235.93-126.9-57.75-277.28-90.87-412.58-90.87-159.52,0-276.42,45.21-329.15,127.29-46.91,73-42.45,171.83,13.24,293.72l284.87,516.79-509.71-53.53C3751.05-6679.12,3736.42-6679.61,3722.43-6679.61Z" transform="translate(1166.98 9212.19)"/><path class="cls-2" d="M8737.13-5994a701.57,701.57,0,0,1-147-15.53A692.93,692.93,0,0,1,8453.94-6054a697,697,0,0,1-122.26-70.12,701.94,701.94,0,0,1-103.79-91.2,694,694,0,0,1-208.2,125.52,693.64,693.64,0,0,1-249.63,46.07,701.73,701.73,0,0,1-140.38-14.15,693.81,693.81,0,0,1-130.75-40.59,696.13,696.13,0,0,1-118.32-64.23,700.7,700.7,0,0,1-103.09-85,701.92,701.92,0,0,1-85.06-103.09,696.84,696.84,0,0,1-64.22-118.32,693.08,693.08,0,0,1-40.59-130.75,701.73,701.73,0,0,1-14.15-140.38,695,695,0,0,1,38.8-229.82,693.68,693.68,0,0,1,107.64-197.51,699,699,0,0,1,163.31-152,692.08,692.08,0,0,1,204.19-93,705.87,705.87,0,0,1-6.33-94.29,701,701,0,0,1,14.16-140.38,693,693,0,0,1,40.58-130.75,696.13,696.13,0,0,1,64.23-118.32,700.7,700.7,0,0,1,85.05-103.09,701.92,701.92,0,0,1,103.09-85.06,696.84,696.84,0,0,1,118.32-64.22,693,693,0,0,1,130.76-40.59,701.73,701.73,0,0,1,140.38-14.15,701.63,701.63,0,0,1,140.37,14.15,693,693,0,0,1,130.76,40.59,696.84,696.84,0,0,1,118.32,64.22,701.92,701.92,0,0,1,103.09,85.06,700.7,700.7,0,0,1,85.05,103.09,696.13,696.13,0,0,1,64.23,118.32,693.81,693.81,0,0,1,40.59,130.75,701.73,701.73,0,0,1,14.15,140.38,700.18,700.18,0,0,1-17.36,155.19,693.48,693.48,0,0,1,190.32,98.07,699.3,699.3,0,0,1,151.46,150.87A693.61,693.61,0,0,1,9398-6911.25a695.64,695.64,0,0,1,35.68,220.69,701.73,701.73,0,0,1-14.15,140.38A693.08,693.08,0,0,1,9379-6419.43a696.08,696.08,0,0,1-64.22,118.32A701.4,701.4,0,0,1,9229.67-6198,701.84,701.84,0,0,1,9126.59-6113a697.25,697.25,0,0,1-118.33,64.22,692.85,692.85,0,0,1-130.75,40.59A701.73,701.73,0,0,1,8737.13-5994ZM7551.43-7167.61c-129.62,0-219.11,41.18-266,122.39-35.49,61.47-45,146-27.54,244.44,16.09,90.71,53.8,189.22,109,284.9,56.26,97.44,127.75,185.32,201.29,247.46,80.05,67.64,159.94,103.39,231,103.39,103.3,0,186.78-76.2,241.41-220.3l136.23-461.38,3.8.59-7.05,332c5.72,223.18,134.46,346.08,362.5,346.08,155.61,0,345.9-59.37,509-158.82,78.6-47.92,146.46-102.83,196.25-158.79,53.56-60.2,85.1-119.39,93.77-175.91,19.37-126.4-78.9-227.28-284.17-291.74l-694.78-171.9,332.11-272c121.7-107.92,164.84-220.77,124.77-326.37-34.14-90-128.2-173.75-264.87-235.93-126.9-57.75-277.28-90.87-412.58-90.87-159.52,0-276.42,45.21-329.15,127.29-46.91,73-42.45,171.83,13.24,293.72l284.87,516.79-509.71-53.53C7580.05-7167.12,7565.42-7167.61,7551.43-7167.61Z" transform="translate(1166.98 9212.19)"/><path class="cls-2" d="M2425.13-5841a701.57,701.57,0,0,1-147-15.53A692.93,692.93,0,0,1,2141.94-5901a697,697,0,0,1-122.26-70.12,701.94,701.94,0,0,1-103.79-91.2,694,694,0,0,1-208.2,125.52,693.64,693.64,0,0,1-249.63,46.07,701.73,701.73,0,0,1-140.38-14.15,693.81,693.81,0,0,1-130.75-40.59,696.13,696.13,0,0,1-118.32-64.23,700.7,700.7,0,0,1-103.09-85,701.92,701.92,0,0,1-85.06-103.09,696.84,696.84,0,0,1-64.22-118.32,693.08,693.08,0,0,1-40.59-130.75,701.73,701.73,0,0,1-14.15-140.38,695,695,0,0,1,38.8-229.82A693.68,693.68,0,0,1,907.94-7014.6a699,699,0,0,1,163.31-152,692.08,692.08,0,0,1,204.19-93,705.87,705.87,0,0,1-6.33-94.29,701,701,0,0,1,14.16-140.38,693,693,0,0,1,40.58-130.75,696.13,696.13,0,0,1,64.23-118.32,700.7,700.7,0,0,1,85.05-103.09,701.92,701.92,0,0,1,103.09-85.06,696.84,696.84,0,0,1,118.32-64.22,693,693,0,0,1,130.76-40.59,701.73,701.73,0,0,1,140.38-14.15,701.63,701.63,0,0,1,140.37,14.15,693,693,0,0,1,130.76,40.59,696.84,696.84,0,0,1,118.32,64.22,701.92,701.92,0,0,1,103.09,85.06,700.7,700.7,0,0,1,85.05,103.09,696.13,696.13,0,0,1,64.23,118.32,693.81,693.81,0,0,1,40.59,130.75,701.73,701.73,0,0,1,14.15,140.38,700.18,700.18,0,0,1-17.36,155.19,693.48,693.48,0,0,1,190.32,98.07,699.3,699.3,0,0,1,151.46,150.87A693.61,693.61,0,0,1,3086-6758.25a695.64,695.64,0,0,1,35.68,220.69,701.73,701.73,0,0,1-14.15,140.38A693.08,693.08,0,0,1,3067-6266.43a696.08,696.08,0,0,1-64.22,118.32A701.4,701.4,0,0,1,2917.67-6045,701.84,701.84,0,0,1,2814.59-5960a697.25,697.25,0,0,1-118.33,64.22,692.85,692.85,0,0,1-130.75,40.59A701.73,701.73,0,0,1,2425.13-5841ZM1239.43-7014.61c-129.62,0-219.11,41.18-266,122.39-35.49,61.47-45,146-27.54,244.44,16.09,90.71,53.8,189.22,109.05,284.9,56.26,97.44,127.75,185.32,201.29,247.46,80,67.64,159.94,103.39,231,103.39,103.3,0,186.78-76.2,241.41-220.3l136.23-461.38,3.8.59-7,332c5.72,223.18,134.46,346.08,362.5,346.08,155.61,0,345.9-59.37,509-158.82,78.6-47.92,146.46-102.83,196.25-158.79,53.56-60.2,85.1-119.39,93.77-175.91,19.37-126.4-78.9-227.28-284.17-291.74l-694.78-171.9,332.11-272c121.7-107.92,164.84-220.77,124.77-326.37-34.14-90-128.2-173.75-264.87-235.93-126.9-57.75-277.28-90.87-412.58-90.87-159.52,0-276.42,45.21-329.15,127.29-46.91,73-42.45,171.83,13.24,293.72l284.87,516.79-509.71-53.53C1268.05-7014.12,1253.42-7014.61,1239.43-7014.61Z" transform="translate(1166.98 9212.19)"/><path class="cls-2" d="M-182.16-3660.65a701.93,701.93,0,0,1-105-104,693.08,693.08,0,0,1-78.48-119.89,696.71,696.71,0,0,1-51.53-131.19,701.27,701.27,0,0,1-23.94-136.07,694,694,0,0,1-241-32.3,693.5,693.5,0,0,1-223.57-120.2,701.33,701.33,0,0,1-100.68-98.85,693.31,693.31,0,0,1-76.63-113.45A697.16,697.16,0,0,1-1135-4640.76a702,702,0,0,1-27.23-130.84,702.11,702.11,0,0,1-1.88-133.64,697.72,697.72,0,0,1,23.9-132.49,694,694,0,0,1,50.12-127.4,701.73,701.73,0,0,1,76.77-118.38,694.92,694.92,0,0,1,174-155,693.79,693.79,0,0,1,207.52-86.77,698.91,698.91,0,0,1,222.53-16.49,692.15,692.15,0,0,1,217.49,55.17,705.13,705.13,0,0,1,54-77.53,701.85,701.85,0,0,1,98.85-100.68,693.31,693.31,0,0,1,113.45-76.63,696.39,696.39,0,0,1,124.12-52.14,701.11,701.11,0,0,1,130.85-27.23,701.18,701.18,0,0,1,133.63-1.88,696,696,0,0,1,132.49,23.9A692.25,692.25,0,0,1,723-5748.71a701.06,701.06,0,0,1,118.38,76.76,701.33,701.33,0,0,1,100.68,98.85,693.4,693.4,0,0,1,76.63,113.46,696.76,696.76,0,0,1,52.15,124.11,702.08,702.08,0,0,1,27.23,130.85A702.84,702.84,0,0,1,1100-5071a696.8,696.8,0,0,1-23.91,132.49A693.29,693.29,0,0,1,1026-4811.15a702.53,702.53,0,0,1-76.77,118.38,700.93,700.93,0,0,1-110.61,110.23A693.72,693.72,0,0,1,925.72-4387a699.42,699.42,0,0,1,23.8,212.44,693.58,693.58,0,0,1-42.31,211.6A695.38,695.38,0,0,1,797-3768.43a701.27,701.27,0,0,1-98.84,100.68,693.4,693.4,0,0,1-113.46,76.63A696.39,696.39,0,0,1,460.59-3539a700.2,700.2,0,0,1-130.84,27.23,701.2,701.2,0,0,1-133.63,1.88,696,696,0,0,1-132.49-23.9,692.62,692.62,0,0,1-127.41-50.12A701.06,701.06,0,0,1-182.16-3660.65ZM-373.18-5318c-101.13-81.07-196.71-104.92-284.09-70.89-66.14,25.77-126.44,85.76-174.39,173.5-44.18,80.83-76.38,181.28-93.12,290.49-17.05,111.22-16.25,224.5,2.26,319,20.15,102.85,60.12,180.72,115.59,225.18,80.61,64.61,193.39,57.38,326.15-20.88l394.89-274.77,2.6,2.84-213.16,254.61c-135.14,177.7-111.57,354.12,66.36,496.76,121.4,97.33,307,170,496.49,194.48,91.31,11.78,178.6,11.39,252.44-1.14,79.45-13.47,141.08-39.91,183.2-78.59,94.18-86.5,80.6-226.69-39.24-405.37L228.24-4781.5l429.28-4.5c162.45-8.08,266.7-69.14,301.49-176.6,29.63-91.54,8.65-215.75-59.08-349.75-62.89-124.43-159.51-244.34-265.07-329-124.47-99.78-243.95-137.63-336.43-106.57-82.27,27.62-140.6,107.51-173.39,237.45L24.05-4929l-364.21-360.59C-351.16-5299.7-362.27-5309.24-373.18-5318Z" transform="translate(1166.98 9212.19)"/></g></g></svg>