<svg xmlns="http://www.w3.org/2000/svg" viewBox="0 0 3007.71 2996.52"><defs><style>.cls-1,.cls-10,.cls-13,.cls-16,.cls-19,.cls-22,.cls-25,.cls-28,.cls-31,.cls-34,.cls-37,.cls-4,.cls-40,.cls-43,.cls-46,.cls-49,.cls-52,.cls-55,.cls-58,.cls-61,.cls-64,.cls-67,.cls-7{fill:none;}.cls-11,.cls-14,.cls-17,.cls-2,.cls-20,.cls-23,.cls-26,.cls-29,.cls-32,.cls-35,.cls-38,.cls-41,.cls-44,.cls-47,.cls-5,.cls-50,.cls-53,.cls-56,.cls-59,.cls-62,.cls-65,.cls-8{fill:#754934;}.cls-10,.cls-11,.cls-12,.cls-13,.cls-14,.cls-15,.cls-16,.cls-17,.cls-18,.cls-19,.cls-2,.cls-20,.cls-21,.cls-22,.cls-23,.cls-24,.cls-25,.cls-26,.cls-27,.cls-28,.cls-29,.cls-3,.cls-30,.cls-31,.cls-32,.cls-33,.cls-34,.cls-35,.cls-36,.cls-37,.cls-38,.cls-39,.cls-4,.cls-40,.cls-41,.cls-42,.cls-43,.cls-44,.cls-45,.cls-46,.cls-47,.cls-48,.cls-49,.cls-5,.cls-50,.cls-51,.cls-52,.cls-53,.cls-54,.cls-55,.cls-56,.cls-57,.cls-58,.cls-59,.cls-6,.cls-60,.cls-61,.cls-62,.cls-63,.cls-64,.cls-65,.cls-66,.cls-67,.cls-7,.cls-8,.cls-9{stroke:#b79b8d;stroke-miterlimit:10;}.cls-2,.cls-3,.cls-4{stroke-width:9.64px;}.cls-12,.cls-15,.cls-18,.cls-21,.cls-24,.cls-27,.cls-3,.cls-30,.cls-33,.cls-36,.cls-39,.cls-42,.cls-45,.cls-48,.cls-51,.cls-54,.cls-57,.cls-6,.cls-60,.cls-63,.cls-66,.cls-9{fill:#e8ddd1;}.cls-5,.cls-6,.cls-7{stroke-width:9.46px;}.cls-10,.cls-8,.cls-9{stroke-width:9.87px;}.cls-11,.cls-12,.cls-13{stroke-width:8.88px;}.cls-14,.cls-15,.cls-16{stroke-width:9.18px;}.cls-17,.cls-18,.cls-19{stroke-width:7.98px;}.cls-20,.cls-21,.cls-22{stroke-width:8.99px;}.cls-23,.cls-24,.cls-25{stroke-width:8.55px;}.cls-26,.cls-27,.cls-28{stroke-width:9.67px;}.cls-29,.cls-30,.cls-31{stroke-width:8.33px;}.cls-32,.cls-33,.cls-34{stroke-width:9.65px;}.cls-35,.cls-36,.cls-37{stroke-width:8.03px;}.cls-38,.cls-39,.cls-40{stroke-width:8.75px;}.cls-41,.cls-42,.cls-43{stroke-width:8.5px;}.cls-44,.cls-45,.cls-46{stroke-width:8.64px;}.cls-47,.cls-48,.cls-49{stroke-width:9.7px;}.cls-50,.cls-51,.cls-52{stroke-width:9.34px;}.cls-53,.cls-54,.cls-55{stroke-width:8.37px;}.cls-56,.cls-57,.cls-58{stroke-width:9.29px;}.cls-59,.cls-60,.cls-61{stroke-width:9.85px;}.cls-62,.cls-63,.cls-64{stroke-width:8.22px;}.cls-65,.cls-66,.cls-67{stroke-width:9.63px;}</style></defs><title>mushroom</title><g id="Layer_2" data-name="Layer 2"><g id="Layer_1-2" data-name="Layer 1"><rect class="cls-1" x="1591.86" y="63.02" width="508.12" height="506.53" transform="translate(-12.09 551.37) rotate(-16.93)"/><path class="cls-2" d="M1775.69,352.75C1739.82,247.82,1609.21,436.46,1729,442"/><path class="cls-1" d="M1918.46,553.3l-34.32,10.44-34.31,10.45,34.31-10.45Z"/><path class="cls-2" d="M1926.38,309.11c15.82-157.6,167-83.86,88.5,48.05"/><path class="cls-1" d="M1987.09,532.4"/><path class="cls-1" d="M1849.83,574.19"/><path class="cls-3" d="M1742.82,327.5c49.66,5,100.54,183.18,106.34,246.34l138.6-41.08c-30.38-55.67-86.59-231.08-48.16-262.93,9.4-9.58,48.11-.1,70.16,24.53,35.54,39.55,2.72,69.69-13.14,74.51,68.62,25,105.42-54.48,94.57-99.31-33.13-151.09-166.71-236.9-317.8-190.9-135.89,53.69-232.52,173.77-155.05,332.63,13.1,43,101.42,97.84,132.33,30.23-15.86,4.83-59.91-1.91-52.43-54.55C1702.82,354.23,1729.68,324.79,1742.82,327.5Z"/><line class="cls-4" x1="1775.02" y1="352.4" x2="1728.31" y2="441.61"/><line class="cls-4" x1="1926.22" y1="308.6" x2="2015.04" y2="357.67"/><rect class="cls-1" x="562.61" y="234.28" width="497.15" height="498.72" transform="translate(254.85 1246.81) rotate(-84.71)"/><path class="cls-5" d="M888.54,476.57c-6.36,108.65,182.33-14.26,75.56-63.72"/><path class="cls-1" d="M833.26,241.36l35.06,3.25,35.06,3.24-35.06-3.24Z"/><path class="cls-5" d="M735.42,460.29c-72.87,137.33-182.85,14.21-62.58-76.51"/><path class="cls-1" d="M763.14,234.87"/><path class="cls-1" d="M903.38,247.85"/><path class="cls-6" d="M909,511.72c-43.26-23-23.37-203.76-5.19-263.3L762.67,234.3c6.94,61.86-7.1,242.1-53.85,256.78-12.09,5.21-43.74-17.77-54.63-48.33-17.62-49.13,23.39-64.33,39.59-62.83-53.06-48.19-116,10.37-122.79,55.13-26,149.58,63.54,277.13,217.9,291.42,143.39,1.66,275.77-71.58,264.35-244.68,4.07-44-55.84-126.55-109-76.59,16.19,1.5,53.72,24,27.38,69C955.3,502.28,920,519.06,909,511.72Z"/><line class="cls-7" x1="889.02" y1="477.14" x2="964.57" y2="413.42"/><line class="cls-7" x1="735.37" y1="460.81" x2="672.89" y2="383.26"/><rect class="cls-1" x="48.85" y="1024.05" width="520.36" height="518.73" transform="translate(-1010.78 1310.68) rotate(-77.65)"/><path class="cls-8" d="M311.64,1202.41c111.69,20.53,8.64-190.63-56.28-86.42"/><path class="cls-1" d="M61,1229.46l7.86-35.89,7.86-35.88-7.86,35.88Z"/><path class="cls-8" d="M275.12,1358.87c132.85,93.09-8.75,191.17-87.25,55"/><path class="cls-1" d="M45.27,1301.23"/><path class="cls-1" d="M76.71,1157.69"/><path class="cls-9" d="M350.66,1185.7c-29.37,41.84-214-2-273.3-28.43L44.62,1301.64c64.94.76,249.78,38.44,259,88.72,3.84,13.19-24,43-57.06,50.37-53.13,11.94-63.61-32.48-60-49.06-56.7,48.76-4.15,121.45,41.33,134.22C379.43,1572,523,1495.67,557.61,1337.67c20.13-148.26-38.72-294.74-219.43-305.13-45-9.86-138.2,41.57-93.29,103,3.63-16.58,31.72-52.55,75-19.5C346.83,1136.59,359.67,1175.32,350.66,1185.7Z"/><line class="cls-10" x1="312.29" y1="1201.99" x2="256.01" y2="1115.57"/><line class="cls-10" x1="275.66" y1="1358.99" x2="187.33" y2="1413.73"/><rect class="cls-1" x="288.47" y="1949.07" width="466.76" height="468.22" transform="translate(-471.87 170.44) rotate(-12.83)"/><path class="cls-11" d="M493,2116.23c98.81-26.05-66-158.53-78.92-48.82"/><path class="cls-1" d="M299.22,2234.23,291.88,2202l-7.34-32.23,7.34,32.23Z"/><path class="cls-11" d="M523.14,2257.61c143.81,24.92,66.07,159-50,78.18"/><path class="cls-1" d="M313.91,2298.69"/><path class="cls-1" d="M284.54,2169.77"/><path class="cls-12" d="M518.33,2087.68c-7.9,45.31-175,80.34-233.42,81.5l28.62,130.1c53.17-24.25,218.1-64.35,244.84-26.93,8.19,9.27-3.08,44.22-27.17,62.86-38.69,30.07-64.23-2.09-67.62-17-27.5,61.42,43.13,100.48,85,93.47,141.06-20.5,228.74-137.62,196.41-279.53-40.39-128.43-144.4-225.16-295.51-164.43-40.41,9.21-96.62,86.78-36.51,119.64-3.39-14.89,5.7-54.94,53.6-44.59C496.4,2049.16,521.69,2075.78,518.33,2087.68Z"/><line class="cls-13" x1="493.33" y1="2115.63" x2="414.4" y2="2066.82"/><line class="cls-13" x1="523.62" y1="2257.5" x2="472.66" y2="2335.9"/><rect class="cls-1" x="1099.12" y="2432.62" width="484.03" height="482.51" transform="translate(-1649.81 2724.12) rotate(-64.33)"/><path class="cls-14" d="M1360.85,2601.11c96.7,42.52,48.67-170.7-32.42-90.28"/><path class="cls-1" d="M1128.18,2571.88l14.8-30.8,14.81-30.8-14.81,30.8Z"/><path class="cls-14" d="M1294.27,2734.91c100.3,112.72-48.89,171.16-90.76,31.06"/><path class="cls-1" d="M1098.57,2633.47"/><path class="cls-1" d="M1157.79,2510.28"/><path class="cls-15" d="M1399.75,2594.35c-35.55,31.57-193.26-47.64-241.28-84.3l-60.58,123.66c58.62,14.6,217.85,88.32,215.4,135.8.65,12.77-31,33.79-62.44,33.36-50.65-.58-50.62-43-43.78-57.26-61.78,32-29.78,109,8.64,130.35,127.3,74.21,273.61,35.89,338.8-99.7,50-129.89,28.11-275.09-133.23-323.22-38.61-18.56-134,8-106.53,73.28,6.84-14.23,40-40.77,72.06-1.57C1406.81,2549.07,1410.13,2586.89,1399.75,2594.35Z"/><line class="cls-16" x1="1361.53" y1="2600.87" x2="1329.11" y2="2510.59"/><line class="cls-16" x1="1294.73" y1="2735.13" x2="1203.05" y2="2765.75"/><rect class="cls-1" x="1942.69" y="2284.61" width="419.56" height="420.88" transform="translate(-1077.45 1842.37) rotate(-37.79)"/><path class="cls-17" d="M2103.53,2451.44c70.64-58.71-113.89-104.17-82.83-9.85"/><path class="cls-1" d="M1990.41,2621.09l-18.21-23.48-18.2-23.48,18.2,23.48Z"/><path class="cls-17" d="M2181.75,2555.21c126.66-34.24,114.16,104.52-11.09,82.67"/><path class="cls-1" d="M2026.83,2668.05"/><path class="cls-1" d="M1954,2574.13"/><path class="cls-18" d="M2113.38,2418.55c10.75,39.92-112.13,131.84-159.31,155l72.68,95.16c34.13-39.93,153.32-135.17,189.31-114.81,10.18,4.45,14.26,37.2,1.7,61.53-20.13,39.18-53.14,22.66-61.55,11.81.89,60.49,73.26,65.53,104.76,43.91,107.18-70.2,134.2-198.91,54-302.29-81.63-89.34-203.08-128.73-303.2-21.91-29.44,22.83-45.82,107.36,15.63,111.34-8.41-10.85-16.19-46.93,26.77-56.67C2080.9,2395.47,2111.61,2407.58,2113.38,2418.55Z"/><line class="cls-19" x1="2103.61" y1="2450.82" x2="2020.78" y2="2440.97"/><line class="cls-19" x1="2182.1" y1="2554.93" x2="2170.31" y2="2638.15"/><rect class="cls-1" x="2468.74" y="1365.98" width="472.77" height="474.26" transform="translate(-382.49 1007.9) rotate(-19.74)"/><path class="cls-20" d="M2742.34,1666.92c-96.18,38.23,85.64,151.37,85.3,39.47"/><path class="cls-1" d="M2922.77,1524.66l11.3,31.51,11.31,31.52-11.31-31.52Z"/><path class="cls-20" d="M2694.76,1528.43c-147.64-7.54-85.81-151.84,40.75-84.7"/><path class="cls-1" d="M2900.15,1461.63"/><path class="cls-1" d="M2945.38,1587.69"/><path class="cls-21" d="M2720.3,1698.72c2.42-46.53,166.17-102.1,224.78-110.39L2900.45,1461c-50.51,30.87-211.47,91.29-242.91,56.91-9.36-8.32-2.29-44.84,19.66-66.52,35.24-34.94,64.84-5.72,70.07,8.84,20.17-65.11-55.61-95.79-96.91-83.62-139.34,37.79-213.23,166.24-163.44,305,56.26,124.23,172.63,208.83,317.18,129.34,39.51-14.17,86.58-99,22.13-124.74,5.23,14.56,1,55.93-48.46,51.37C2747,1734.78,2718.37,1711.09,2720.3,1698.72Z"/><line class="cls-22" x1="2742.03" y1="1667.56" x2="2827.34" y2="1707.03"/><line class="cls-22" x1="2694.29" y1="1528.6" x2="2735.98" y2="1443.56"/><rect class="cls-1" x="2273.58" y="564.08" width="450.63" height="449.22" transform="translate(146.89 1943.92) rotate(-43.68)"/><path class="cls-23" d="M2457.82,845.6c-70.28-68.79-98.45,132.73-1.4,89.3"/><path class="cls-1" d="M2650.92,947.46l-23,22-23,22,23-22Z"/><path class="cls-23" d="M2559.75,750.9c-50.36-131.13,98.79-133.06,89.27,2.74"/><path class="cls-1" d="M2696.94,903.52"/><path class="cls-1" d="M2604.9,991.4"/><path class="cls-24" d="M2421.71,838.72c41.33-15.84,152.73,104.95,182.52,152.66l93.38-87.84c-46.28-32-160.79-148.47-143.06-189,3.62-11.33,38.06-19.27,65.35-8.56,43.93,17.13,30,54.1,19.33,64.25,64.32-7.58,61.75-85.22,35.27-116.39-86.53-106.44-226.57-121.1-327.88-24.37-86.2,96.74-114.81,230.41,9.94,325.32,27.54,28.84,119.37,37,116.86-28.87-10.63,10.15-48.2,22.39-63.29-22.29C2400.7,875.85,2410.22,841.81,2421.71,838.72Z"/><line class="cls-25" x1="2457.15" y1="845.59" x2="2455.75" y2="934.89"/><line class="cls-25" x1="2559.42" y1="750.56" x2="2649.35" y2="753.98"/><rect class="cls-1" x="1716.06" y="1631.1" width="509.64" height="508.05" transform="translate(-724.66 2299.99) rotate(-52.48)"/><path class="cls-26" d="M2006.94,1814.41c90.45,64.73,87.06-165.38-13.9-100.05"/><path class="cls-1" d="M1773.49,1734l21.92-28.53,21.91-28.54-21.91,28.54Z"/><path class="cls-26" d="M1909.4,1937.89c79,137.85-87.39,165.81-100.25,12.39"/><path class="cls-1" d="M1729.66,1791.05"/><path class="cls-1" d="M1817.32,1676.91"/><path class="cls-27" d="M2048.49,1815.85c-43.47,24.85-188.86-90.87-230.42-139l-89.16,114.34c57.25,27.72,205.4,138.11,192.6,186.51-2.09,13.3-39.2,28.12-71.56,20.88-52.07-11.55-42.85-55.29-32.73-68.47-70.57,19.6-54.27,105.93-19.28,136.19,115.14,104,274.19,96.14,370.68-29.49,79.6-123,88.45-277.39-67.4-361.88-35.77-27.47-139.82-20.71-125.62,52.48,10.12-13.18,50-33.36,74.6,14C2065.54,1770.72,2060.79,1810.41,2048.49,1815.85Z"/><line class="cls-28" x1="2007.69" y1="1814.31" x2="1993.79" y2="1714.26"/><line class="cls-28" x1="1909.82" y1="1938.22" x2="1808.72" y2="1949.95"/><rect class="cls-1" x="1712.48" y="805.12" width="439.31" height="437.94" transform="matrix(0.03, -1, 1, 0.03, 855.3, 2927.33)"/><path class="cls-29" d="M1921.51,956.5c95.87-.61-22.94-159.47-60.33-62.79"/><path class="cls-1" d="M1717.9,1018.5l.86-31,.85-31-.85,31Z"/><path class="cls-29" d="M1915.93,1092c124.87,56.23,22.92,159.93-63.69,59.37"/><path class="cls-1" d="M1716.2,1080.51"/><path class="cls-1" d="M1719.61,956.5"/><path class="cls-30" d="M1951.23,936.47c-17.75,39.34-177.78,32.16-231.15,19.58L1715.72,1081c54-9.63,213.22-7.57,228.79,32.69,5.27,10.33-13.13,39.46-39.37,50.78-42.18,18.28-57.89-16.9-57.49-31.22-39.33,49.39,15.73,101.38,55.46,104.79,133,14.31,240-71.66,243.75-208.16-6.72-126.14-78.65-238.33-230.16-218.42-38.87-1.07-108,56.3-61.1,100.2.39-14.33,18-48.59,59.11-28C1940.3,896.35,1957.06,926.45,1951.23,936.47Z"/><line class="cls-31" x1="1921.98" y1="956.05" x2="1861.66" y2="893.26"/><line class="cls-31" x1="1916.39" y1="1092.03" x2="1851.78" y2="1151.38"/><rect class="cls-1" x="998.9" y="650.68" width="507.16" height="508.75" transform="translate(-114.85 1624.93) rotate(-63.62)"/><path class="cls-32" d="M1176.27,883.38C1222.21,782.3,997.49,830,1081,916.29"/><path class="cls-1" d="M1142.52,1127.54l-32.17-16-32.18-16,32.18,16Z"/><path class="cls-32" d="M1316,955.09c119.77-104,179.25,53.61,31.47,95.79"/><path class="cls-1" d="M1206.87,1159.45"/><path class="cls-1" d="M1078.17,1095.62"/><path class="cls-33" d="M1169.66,842.41c32.73,37.77-52.57,202.5-91.73,252.49l129.19,65.27c16.1-61.42,95.64-227.81,145.52-224.61,13.42-.53,35.1,33,34.25,66.05-1.27,53.23-45.88,52.64-60.75,45.27,32.81,65.34,114.22,32.72,137.11-7.39,79.64-132.83,41.27-287.1-100.4-357.36C1227,627.9,1074.11,649,1021.43,818c-20,40.34,6.68,140.94,75.64,112.91-14.87-7.37-42.33-42.54-.73-75.75C1122.17,834.41,1162,831.4,1169.66,842.41Z"/><line class="cls-34" x1="1176.02" y1="882.66" x2="1080.71" y2="915.57"/><line class="cls-34" x1="1316.26" y1="954.61" x2="1347.25" y2="1051.37"/><rect class="cls-1" x="688.58" y="1422.45" width="423.27" height="421.94" transform="translate(-740.3 746.2) rotate(-32.73)"/><path class="cls-35" d="M948.24,1588.26c52.55,76,114.45-104.85,17.2-82.1"/><path class="cls-1" d="M788.31,1459.9l25.14-16.16,25.14-16.15-25.14,16.15Z"/><path class="cls-35" d="M837.35,1657.42c23.07,129.92-114.83,105.1-81.84-18.43"/><path class="cls-1" d="M738,1492.22"/><path class="cls-1" d="M838.59,1427.59"/><path class="cls-36" d="M980.31,1601c-40.94,7.24-122.14-124-141.11-173.32l-101.77,64.36c37,37.74,121.81,165.58,98.23,199.83-5.36,9.81-38.53,11-61.79-3.75-37.46-23.64-18-55.24-6.38-62.71-60.67-4.47-72.14,67.59-53.27,101,60.83,113.6,187.36,152.08,298,80.93,96.74-73.85,147-192,48.83-301.78-20.26-31.52-103.49-55.42-112.92,5.78,11.61-7.46,48.45-12,54.4,31.84C1006.31,1570.55,991.46,1600.24,980.31,1601Z"/><line class="cls-37" x1="948.85" y1="1588.4" x2="966.06" y2="1506.29"/><line class="cls-37" x1="837.59" y1="1657.8" x2="755.27" y2="1638.61"/><rect class="cls-1" x="1422.01" y="1851.19" width="461.45" height="460" transform="translate(-865.95 2929.19) rotate(-70.15)"/><path class="cls-38" d="M1664.4,2010.27c95.83,31,29.64-166.6-39.49-82.49"/><path class="cls-1" d="M1440.9,2005.07l11.06-30.64,11.06-30.64L1452,1974.43Z"/><path class="cls-38" d="M1614.2,2143.61c106,97.2-29.8,167.07-83.07,38.25"/><path class="cls-1" d="M1418.78,2066.36"/><path class="cls-1" d="M1463,1943.79"/><path class="cls-39" d="M1700.64,2000.09c-30.66,33.39-187.91-26.47-237-56.59l-45.48,123.15c57,8.17,215.16,62.67,217.43,107.94,1.85,12-26.09,35-56,37.69-48.1,4.35-52.17-35.91-47.06-50.07-55.5,36.31-17.69,106.3,20.81,122.79,127.92,58.06,263,7.55,311.67-127.36,34.84-128,0-263.62-157.64-293.65-38.42-13.87-126.32,20.57-93.94,79.81,5.11-14.15,34-42.53,68.19-8.47C1703,1956.47,1709.76,1992,1700.64,2000.09Z"/><line class="cls-40" x1="1665.02" y1="2009.98" x2="1625.53" y2="1927.49"/><line class="cls-40" x1="1614.66" y1="2143.78" x2="1530.67" y2="2181.7"/><rect class="cls-1" x="863.88" y="438.65" width="446.68" height="448.08" transform="translate(117.52 1487.86) rotate(-71.76)"/><path class="cls-41" d="M1156.37,672.08c-27.45,93.86,162.52,24.23,79-40.58"/><path class="cls-1" d="M1155.33,455l30.05,9.9,30,9.9-30-9.9Z"/><path class="cls-41" d="M1025.58,627c-91.46,105.57-163-24.38-39.39-79.59"/><path class="cls-1" d="M1095.25,435.2"/><path class="cls-1" d="M1215.42,474.8"/><path class="cls-42" d="M1167.24,707c-33.24-28.85,20.58-183.11,48.48-231.58L1095,434.6c-6.38,55.56-55,210.56-98.86,214-11.64,2.13-34.72-24.37-38.11-53.32-5.53-46.57,33.44-51.62,47.32-47C968.54,495.35,901.64,534,886.69,571.77c-52.88,125.74-.18,255.46,132.1,299.05,125.22,30.33,255.88-7.14,280.74-161,12.41-37.67-23.41-122.05-80-89,13.88,4.57,42.21,31.8,10.08,66C1209.64,708,1175.33,715.61,1167.24,707Z"/><line class="cls-43" x1="1156.67" y1="672.68" x2="1235.66" y2="632.1"/><line class="cls-43" x1="1025.43" y1="627.44" x2="986.34" y2="546.95"/><rect class="cls-1" x="362.58" y="1185.45" width="455.72" height="454.29" transform="translate(-923.28 1642.13) rotate(-75.94)"/><path class="cls-44" d="M594.84,1341.75c97.24,20.89,12.54-166.65-47-77.12"/><path class="cls-1" d="M374.72,1358.89l7.82-31.21,7.82-31.21-7.82,31.21Z"/><path class="cls-44" d="M558.79,1477.76c113.87,85-12.65,167.12-77.81,45.85"/><path class="cls-1" d="M359.09,1421.3"/><path class="cls-1" d="M390.36,1296.47"/><path class="cls-45" d="M629.44,1328.14c-26.81,35.86-187.27-7.31-238.5-32l-32.43,125.53c56.83,2.36,217.64,40.16,224.38,84.42,3,11.65-22.14,37-51.26,42.6-46.82,9.07-54.84-30.09-51.23-44.51-50.91,41.21-6.8,106.21,32.68,118.57,131.46,44.32,259.13-18.75,293.55-156.16,21.48-129.26-26.21-259-184.12-272.83-39.13-9.8-122.07,32.79-84.36,87.77,3.61-14.41,29.14-45.17,66.16-15.11C627.36,1285.05,637.59,1319.29,629.44,1328.14Z"/><line class="cls-46" x1="595.42" y1="1341.4" x2="548.41" y2="1264.28"/><line class="cls-46" x1="559.26" y1="1477.88" x2="480.51" y2="1523.49"/><rect class="cls-1" x="748.52" y="1987.46" width="511.68" height="510.08" transform="translate(-1452.72 2224.55) rotate(-65.45)"/><path class="cls-47" d="M985,2319.82c-103.09-42.93-47.89,181.43,36.15,94.75"/><path class="cls-1" d="M1231.56,2345.87l-15,32.86-15,32.86,15-32.86Z"/><path class="cls-47" d="M1052.62,2177c-108.35-117.05,48.11-181.92,95.28-34.72"/><path class="cls-1" d="M1261.57,2280.15"/><path class="cls-1" d="M1201.55,2411.59"/><path class="cls-48" d="M944.06,2327.78c36.92-34.11,205.26,46.32,256.78,84.07l61.45-132c-62.27-14.21-232.09-88.8-230.49-139-1-13.48,32-36.35,65.3-36.56,53.55-.44,54.39,44.43,47.46,59.61,64.63-35.1,29.21-115.88-11.85-137.59-136.09-75.78-289.93-32.24-356,112.44-50.13,138.32-24,291.33,147.54,338.84,41.2,18.81,141.47-11.26,111.07-79.67-6.93,15.18-41.4,43.92-76.13,3.16C937.55,2375.78,933.25,2335.88,944.06,2327.78Z"/><line class="cls-49" x1="984.32" y1="2320.09" x2="1020.48" y2="2414.84"/><line class="cls-49" x1="1052.13" y1="2176.8" x2="1148.39" y2="2142.52"/><rect class="cls-1" x="1772.95" y="1984.91" width="492.36" height="490.82" transform="translate(-915.34 2893.71) rotate(-60.58)"/><path class="cls-50" d="M2044,2157.77c95.32,49.58,60.73-170-26.93-93.79"/><path class="cls-1" d="M1809.74,2112.65l17.08-30.27,17.07-30.28-17.07,30.28Z"/><path class="cls-50" d="M1967.51,2289.16c94.32,121.08-61,170.49-94.19,25.51"/><path class="cls-1" d="M1775.6,2173.21"/><path class="cls-1" d="M1843.89,2052.1"/><path class="cls-51" d="M2083.91,2153.49c-38.18,29.69-193-61.19-239.32-101.59l-69.7,121.51c58.54,18.71,215.27,104.1,209.62,152.14-.18,13-33.66,32.24-65.59,29.72-51.37-4-48.52-47-40.63-61-64.83,28.36-37.47,108.71.12,132.88,124.29,83.78,275.34,54.6,350.5-78.72,59.37-128.52,46.8-277.35-113.77-336.92-38-21.4-136.55-.76-113,67.32,7.88-14,43.27-38.73,73.24,3.18C2094.08,2108,2094.94,2146.6,2083.91,2153.49Z"/><line class="cls-52" x1="2044.68" y1="2157.57" x2="2017.76" y2="2063.78"/><line class="cls-52" x1="1967.96" y1="2289.41" x2="1872.87" y2="2314.41"/><rect class="cls-1" x="2194.82" y="1270.69" width="441.35" height="439.97" transform="translate(-421.96 1565.3) rotate(-33.19)"/><path class="cls-53" d="M2465.2,1443.19c55.41,78.78,118.47-110.27,17.26-85.75"/><path class="cls-1" d="M2297.39,1310.67l26.08-17.06,26.07-17-26.07,17Z"/><path class="cls-53" d="M2350.14,1516.22c25.13,135.26-118.86,110.52-85.48-18.56"/><path class="cls-1" d="M2245.24,1344.78"/><path class="cls-1" d="M2349.54,1276.56"/><path class="cls-54" d="M2498.75,1456.25c-42.64,7.88-128.38-128.3-148.56-179.56l-105.6,68c38.87,39,128.38,171.65,104.08,207.55-5.51,10.27-40.09,11.77-64.47-3.4-39.25-24.34-19.21-57.45-7.16-65.33-63.3-4.17-74.66,71.06-54.72,105.8,64.36,117.94,196.62,157,311.43,81.93,100.26-77.8,151.65-201.43,48.43-315.07-21.39-32.69-108.37-56.93-117.7,7,12.05-7.88,50.42-13,57,32.75C2525.6,1424.24,2510.36,1455.32,2498.75,1456.25Z"/><line class="cls-55" x1="2465.84" y1="1443.32" x2="2483.1" y2="1357.57"/><line class="cls-55" x1="2350.4" y1="1516.6" x2="2264.41" y2="1497.28"/><rect class="cls-1" x="1588.05" y="379.18" width="489.58" height="488.05" transform="translate(430.98 1958.3) rotate(-62.38)"/><path class="cls-56" d="M1810.41,696.09c-96.29-46.31-55.06,170.88,29.68,92.38"/><path class="cls-1" d="M2044.61,733.62l-16,30.62-16,30.63,16-30.63Z"/><path class="cls-56" d="M1882.3,563.12c-97.52-117.4,55.3-171.35,92.82-28.29"/><path class="cls-1" d="M2076.66,672.37"/><path class="cls-1" d="M2012.57,794.87"/><path class="cls-57" d="M1770.85,701.59c37-30.7,193.74,54.78,241,93.49l65.48-122.93c-58.76-16.77-217.19-96.75-213.08-144.67-.22-12.92,32.45-33.09,64.26-31.58,51.19,2.32,49.69,45.24,42.29,59.38,63.55-30.21,33.85-109.21-4.26-132.06-126.14-79.38-275.36-45.67-345.9,89.17-55,129.59-37.86,277.11,123.58,331.31,38.4,20.08,135.74-3.51,110.2-70.43-7.4,14.15-41.8,39.84-72.89-.88C1762.17,747.12,1760.1,708.77,1770.85,701.59Z"/><line class="cls-58" x1="1809.71" y1="696.3" x2="1839.39" y2="788.68"/><line class="cls-58" x1="1881.85" y1="562.88" x2="1975.58" y2="535.07"/><rect class="cls-1" x="1374.51" y="1023.42" width="519.24" height="517.61" transform="translate(-154.48 2338.34) rotate(-68.68)"/><path class="cls-59" d="M1649.31,1202.79c106.89,37.61,38.15-186.55-42-93.93"/><path class="cls-1" d="M1398.05,1190.48l13.32-34.15,13.33-34.15-13.33,34.15Z"/><path class="cls-59" d="M1589,1351.33c116.47,112.41-38.35,187.07-94.55,40.62"/><path class="cls-1" d="M1371.39,1258.77"/><path class="cls-1" d="M1424.7,1122.18"/><path class="cls-60" d="M1690.37,1192.39c-35.46,36.67-210.61-35.21-265-70.52l-54.73,137.21c63.9,10.85,240.22,76.73,241.46,127.72,1.74,13.6-30.36,38.66-64.07,40.77-54.23,3.5-57.65-41.91-51.49-57.68-63.47,39.24-23,119.06,19.86,138.72,142.21,69,295.59,16.11,354.27-134.24,42.89-143,7.67-296.54-168.83-334.88-42.81-16.71-142.68,19.48-108,87.06,6.16-15.77,39.44-46.86,76.95-7.55C1694.22,1143.39,1700.86,1183.57,1690.37,1192.39Z"/><line class="cls-61" x1="1650.01" y1="1202.48" x2="1607.98" y2="1108.55"/><line class="cls-61" x1="1589.49" y1="1351.53" x2="1493.92" y2="1391.75"/><rect class="cls-1" x="1037.61" y="1284.9" width="433.17" height="431.82" transform="translate(-193.45 185.61) rotate(-7.86)"/><path class="cls-62" d="M1190.17,1522.07c-16.09-93.15-151.4,48.09-51.32,68.83"/><path class="cls-1" d="M1283.39,1710.09l-30.29,4.19-30.29,4.18,30.29-4.18Z"/><path class="cls-62" d="M1322.89,1505.59c34.51-130.55,151.86-48.14,68,52.35"/><path class="cls-1" d="M1344,1701.73"/><path class="cls-1" d="M1222.81,1718.46"/><path class="cls-63" d="M1165.89,1496.4c41.13,10.91,60,167.72,56.4,221.67l122.2-16c-18.09-50.95-41.82-206.17-5.18-227.82,9.2-6.8,40.51,6.39,55.76,30.09,24.6,38.07-7.08,59-21.08,61,54.41,30.27,96.07-31.69,93-70.89-7.58-131.65-108.5-221.85-241.88-203.44-121.61,26.93-219.11,115-175.25,259.18,5.25,38,72.23,96,107.34,43.24-14,1.93-50.18-9.66-36.8-53C1128.63,1513.52,1155.19,1492.34,1165.89,1496.4Z"/><line class="cls-64" x1="1189.65" y1="1521.68" x2="1138.33" y2="1590.51"/><line class="cls-64" x1="1322.83" y1="1505.14" x2="1391" y2="1558.39"/><rect class="cls-1" x="1485.86" y="1274.75" width="506.31" height="507.9" transform="translate(-16.83 19.36) rotate(-0.63)"/><path class="cls-65" d="M1754.3,1606.31c-110.73,5,33.61,183.2,72.49,69.85"/><path class="cls-1" d="M1986.75,1525.6l.4,35.85.4,35.86-.4-35.86Z"/><path class="cls-65" d="M1754.7,1449.5c-146.76-59.39-33.61-183.74,70.93-71.44"/><path class="cls-1" d="M1986,1453.89"/><path class="cls-1" d="M1987.55,1597.31"/><path class="cls-66" d="M1720.85,1630.77c18.76-46.24,204-45.08,266.17-32.92l-.53-144.5c-61.94,13.53-246,18.25-265.77-27.56-6.55-11.7,13.41-46.18,43.22-60.42,47.91-23,67.62,16.94,67.81,33.5,43.23-58.82-22.7-116.42-68.75-118.59-154.26-10.6-274.06,93.49-272.31,251.35,13.39,145.43,101.49,271.83,275.63,242.07,45-.5,122.32-69.86,66.12-118.48.19,16.57-18.63,56.94-67,35C1735.28,1676.64,1714.56,1642.61,1720.85,1630.77Z"/><line class="cls-67" x1="1753.77" y1="1606.86" x2="1826.26" y2="1676.7"/><line class="cls-67" x1="1754.17" y1="1449.5" x2="1826.16" y2="1378.06"/></g></g></svg>