<svg xmlns="http://www.w3.org/2000/svg" viewBox="0 0 474.53 473.04"><defs><style>.cls-1{fill:#754934;}.cls-1,.cls-3,.cls-4{stroke:#b79b8d;stroke-miterlimit:10;stroke-width:9px;}.cls-2,.cls-4{fill:none;}.cls-3{fill:#e8ddd1;}</style></defs><title>mushroom-icon</title><g id="Layer_2" data-name="Layer 2"><g id="Layer_1-2" data-name="Layer 1"><path class="cls-1" d="M164.59,250c-3.5-103.5-171.5,29.5-66,67"/><path class="cls-2" d="M237.59,468h0Z"/><path class="cls-1" d="M311.09,252c57-136.5,172-29.5,66,67"/><path class="cls-3" d="M142.09,218.5c43,18,40,191,28,249l135,1c-12-58-14.5-230,28.5-248,11-6,43,13,56,41,21,45-16.52,63-32,63,54.5,41,109-20,111.5-63,11.5-144-84.5-257-232-257-136,11-255,92-229,255,0,42,64,115,110,63-15.47,0-53-18-32-63C99.09,231.5,131.09,212.5,142.09,218.5Z"/><line class="cls-4" x1="164.09" y1="249.5" x2="98.09" y2="316.5"/><line class="cls-4" x1="311.09" y1="251.5" x2="377.09" y2="319.5"/></g></g></svg>