<svg xmlns="http://www.w3.org/2000/svg" viewBox="0 0 8904.41 9025.26"><defs><style>.cls-1{fill:none;}.cls-10,.cls-12,.cls-14,.cls-16,.cls-18,.cls-2,.cls-20,.cls-22,.cls-24,.cls-26,.cls-28,.cls-30,.cls-32,.cls-34,.cls-36,.cls-38,.cls-4,.cls-40,.cls-42,.cls-6,.cls-8{fill:#93278f;}.cls-10,.cls-11,.cls-12,.cls-13,.cls-14,.cls-15,.cls-16,.cls-17,.cls-18,.cls-19,.cls-2,.cls-20,.cls-21,.cls-22,.cls-23,.cls-24,.cls-25,.cls-26,.cls-27,.cls-28,.cls-29,.cls-3,.cls-30,.cls-31,.cls-32,.cls-33,.cls-34,.cls-35,.cls-36,.cls-37,.cls-38,.cls-39,.cls-4,.cls-40,.cls-41,.cls-42,.cls-43,.cls-5,.cls-6,.cls-7,.cls-8,.cls-9{stroke:#fff1eb;stroke-miterlimit:10;}.cls-2,.cls-3{stroke-width:0.99px;}.cls-11,.cls-13,.cls-15,.cls-17,.cls-19,.cls-21,.cls-23,.cls-25,.cls-27,.cls-29,.cls-3,.cls-31,.cls-33,.cls-35,.cls-37,.cls-39,.cls-41,.cls-43,.cls-5,.cls-7,.cls-9{fill:#fff;}.cls-4,.cls-5{stroke-width:0.93px;}.cls-6,.cls-7{stroke-width:0.9px;}.cls-8,.cls-9{stroke-width:1.01px;}.cls-10,.cls-11{stroke-width:1.09px;}.cls-12,.cls-13{stroke-width:1px;}.cls-14,.cls-15{stroke-width:0.9px;}.cls-16,.cls-17{stroke-width:0.98px;}.cls-18,.cls-19{stroke-width:1.03px;}.cls-20,.cls-21{stroke-width:1.06px;}.cls-22,.cls-23{stroke-width:1.1px;}.cls-24,.cls-25{stroke-width:0.97px;}.cls-26,.cls-27{stroke-width:1.02px;}.cls-28,.cls-29{stroke-width:1.06px;}.cls-30,.cls-31{stroke-width:0.91px;}.cls-32,.cls-33{stroke-width:0.89px;}.cls-34,.cls-35{stroke-width:0.96px;}.cls-36,.cls-37{stroke-width:0.91px;}.cls-38,.cls-39{stroke-width:1px;}.cls-40,.cls-41{stroke-width:1.04px;}.cls-42,.cls-43{stroke-width:0.96px;}</style></defs><title>onion</title><g id="Layer_2" data-name="Layer 2"><g id="Layer_1-2" data-name="Layer 1"><rect class="cls-1" x="7311.94" y="912.6" width="453.46" height="1534.89" transform="translate(-647.43 449.09) rotate(-9.13)"/><path class="cls-2" d="M7332.1,936.87c155.7,170.53,265.1,386.89,304.46,631.93,52.14,324.6-28.21,639.88-201.15,890.76,3.79-.57,7.58-1,11.4-1.41,1-.16,2.27,1.64,3.41,2.46,4.07.35,7.66-2.23,11.73-1.88,1.14.82,2.43,2.62,3.41,2.46,5.05.19,9.94-.59,15-.4,15.3,1.56,29.5-3.73,44.48-4.14,16.59-.44,32.89-2.68,49.09-5.56,156.37-260.9,225.19-576.22,173.17-900.05-38.81-241.6-140-457.64-284.52-634.34C7419.31,924.83,7375.3,928.34,7332.1,936.87Z" transform="translate(-476.39 -767.85)"/><path class="cls-3" d="M7358.31,935.26c-8.6,1.37-17.19,2.85-25.74,4.54,155.7,170.54,265.1,386.89,304.46,631.93,52.15,324.61-28.21,639.88-201.14,890.76,3.78-.56,7.58-1,11.39-1.4,1-.16,2.27,1.64,3.41,2.46,4.07.35,7.67-2.24,11.74-1.89,1.13.82,2.42,2.62,3.4,2.47,2.08.08,4.13,0,6.18-.13,167-252.89,243.41-566.68,191.55-889.51C7623.84,1327.2,7514.3,1108.5,7358.31,935.26Z" transform="translate(-476.39 -767.85)"/><rect class="cls-1" x="2591.39" y="646.68" width="425.75" height="1441.07" transform="translate(-438.12 2042.43) rotate(-53.54)"/><path class="cls-4" d="M3431.14,1729.85c-216.48-12-432-85.25-619.42-223.71-248.27-183.42-401.55-447.64-450.43-729.52-2.17,2.87-4.39,5.69-6.72,8.44-.55.74-2.6.39-3.9.58-3,2.44-3.67,6.54-6.63,9-1.3.19-3.35-.16-3.91.59-3.51,3.18-6.27,6.92-9.78,10.11-11.28,9-17.33,21.89-27.12,32-10.83,11.2-20.29,23.41-29.26,36,66.58,277.71,227.63,534.38,475.3,717.36,184.78,136.51,394.61,214.88,607.62,238.43C3380.56,1795.23,3407.77,1764,3431.14,1729.85Z" transform="translate(-476.39 -767.85)"/><path class="cls-5" d="M3414.61,1748.16c4.87-6.57,9.66-13.21,14.28-20-216.48-12-432-85.25-619.41-223.7C2561.21,1321.07,2407.93,1056.84,2359,775c-2.16,2.86-4.39,5.68-6.71,8.43-.56.75-2.6.39-3.91.58-3,2.44-3.67,6.54-6.63,9-1.3.2-3.35-.16-3.9.59-1.45,1.31-2.76,2.72-4.06,4.14,54.16,279.34,209.14,540,456,722.38C2979,1659.8,3196.17,1734.48,3414.61,1748.16Z" transform="translate(-476.39 -767.85)"/><rect class="cls-1" x="582.41" y="3941.3" width="410.43" height="1389.23" transform="matrix(0.99, -0.16, 0.16, 0.99, -1191.12, -587.83)"/><path class="cls-6" d="M602.25,3962.81c140.56,154.69,239.11,350.75,274.21,572.62,46.5,293.91-26.91,579.09-184,805.79,3.42-.5,6.86-.93,10.32-1.25.88-.14,2.05,1.49,3.07,2.24,3.69.32,7-2,10.63-1.68,1,.74,2.19,2.37,3.08,2.23,4.57.19,9-.51,13.56-.33,13.85,1.44,26.71-3.31,40.28-3.64,15-.37,29.77-2.37,44.44-4.94,142.09-235.8,205-521.05,158.67-814.26-34.61-218.75-125.75-414.5-256.15-574.75C681.21,3952.11,641.37,3955.19,602.25,3962.81Z" transform="translate(-476.39 -767.85)"/><path class="cls-7" d="M626,3961.41c-7.79,1.22-15.57,2.55-23.31,4.06,140.56,154.69,239.11,350.74,274.21,572.61,46.5,293.92-26.91,579.1-184,805.8,3.42-.5,6.86-.94,10.32-1.25.88-.14,2,1.49,3.07,2.24,3.69.32,7-2,10.63-1.69,1,.75,2.19,2.38,3.08,2.24,1.88.08,3.74,0,5.59-.1,151.72-228.53,221.53-512.38,175.29-804.68C865.46,4316.73,766.79,4118.55,626,3961.41Z" transform="translate(-476.39 -767.85)"/><rect class="cls-1" x="168.33" y="5905.97" width="1561.46" height="461.31" transform="translate(-5733.82 5564.88) rotate(-83.02)"/><path class="cls-8" d="M956.91,5352c104.05,210.62,149.91,453,119.22,703.56-40.66,332-208.18,617.44-448,813.84,3.86.51,7.7,1.11,11.54,1.84,1,.12,1.75,2.25,2.63,3.37,3.88,1.49,8.12,0,12,1.47.88,1.12,1.64,3.24,2.64,3.37,4.88,1.61,9.88,2.22,14.76,3.83,14.51,5.84,29.88,4.68,44.64,8.52,16.34,4.25,32.91,6.65,49.56,8.41,226.47-210.86,382.72-499.62,423.28-830.8,30.25-247.09-7.69-486.81-99-700.29C1045.55,5364.81,1001.54,5355.82,956.91,5352Z" transform="translate(-476.39 -767.85)"/><path class="cls-9" d="M983,5357.78c-8.8-1.09-17.61-2.06-26.45-2.82,104.06,210.63,149.91,453,119.22,703.56-40.65,332-208.17,617.44-448,813.84,3.86.52,7.71,1.11,11.54,1.84,1,.12,1.75,2.25,2.63,3.37,3.88,1.49,8.13,0,12,1.47.87,1.12,1.63,3.25,2.63,3.37,2,.66,4,1.15,6.07,1.62,234.63-200,397.85-485.16,438.28-815.32C1131.88,5815.8,1086.55,5571.14,983,5357.78Z" transform="translate(-476.39 -767.85)"/><rect class="cls-1" x="3526.87" y="8104.04" width="496.67" height="1681.12" transform="matrix(1, -0.03, 0.03, 1, -778.18, -634.38)"/><path class="cls-10" d="M3652.43,8108.72c145.87,206.63,235.13,456.71,244.37,728.38,12.24,359.88-118.23,691.48-340.5,940.45,4.19-.1,8.38-.11,12.58,0,1.09,0,2.24,2.09,3.36,3.14,4.38.94,8.64-1.38,13-.44,1.12,1,2.28,3.18,3.36,3.14,5.46.9,10.88.71,16.34,1.62,16.41,3.78,32.57,0,48.91,1.59,18.09,1.79,36.11,1.58,54.11.67,205.63-262.12,323.56-595.35,311.36-954.37-9.11-267.85-89.53-516.47-222.36-728.27C3748.85,8107.58,3700.55,8105.37,3652.43,8108.72Z" transform="translate(-476.39 -767.85)"/><path class="cls-11" d="M3681.14,8110.56c-9.54.31-19.07.75-28.6,1.41,145.87,206.63,235.13,456.71,244.37,728.38,12.24,359.88-118.23,691.49-340.49,940.45,4.18-.1,8.37-.11,12.57,0,1.09,0,2.24,2.09,3.37,3.14,4.37.94,8.63-1.38,13-.44,1.12,1,2.28,3.18,3.36,3.14,2.25.37,4.49.56,6.73.71,216.12-251.94,342.07-582.49,329.9-940.4C3916,8572.81,3826.94,8320.17,3681.14,8110.56Z" transform="translate(-476.39 -767.85)"/><rect class="cls-1" x="6889.83" y="7874.29" width="1544.66" height="456.35" transform="matrix(0.86, -0.51, 0.51, 0.86, -3525.63, 4232.29)"/><path class="cls-12" d="M8283.29,7636.86c-102.9,208.38-265.7,390.1-481,516.66-285.24,167.67-610.2,207.7-908.68,137.38,1.91,3.34,3.76,6.72,5.49,10.16.5.86-.71,2.73-1.06,4.1,1.16,3.94,4.9,6.37,6.06,10.31-.36,1.37-1.57,3.24-1.06,4.1,1.66,4.8,4.19,9.1,5.85,13.9,4.15,14.91,14.3,26.29,20.16,40.19,6.49,15.39,14.56,29.85,23.18,44,301.81,51.12,622.6.25,907.15-167,212.29-124.78,377.79-298.72,490.57-498.83C8326.49,7714.22,8307.1,7674.24,8283.29,7636.86Z" transform="translate(-476.39 -767.85)"/><path class="cls-13" d="M8294.4,7660.85c-4.44-7.56-9-15.07-13.69-22.47-102.9,208.37-265.69,390.09-481,516.66-285.24,167.66-610.2,207.69-908.68,137.37,1.92,3.34,3.76,6.72,5.49,10.17.51.86-.71,2.73-1.06,4.09,1.16,4,4.9,6.37,6.06,10.32-.35,1.36-1.57,3.23-1.06,4.09.68,2,1.52,3.87,2.37,5.74,298.2,64.06,620.33,20.84,904-145.9C8024.12,8053.19,8189.06,7870.48,8294.4,7660.85Z" transform="translate(-476.39 -767.85)"/><rect class="cls-1" x="8333.73" y="5542.34" width="1398.48" height="413.17" transform="translate(1050.72 12616.96) rotate(-77.97)"/><path class="cls-14" d="M9101.87,5049.5c76.21,196.12,98,415.93,50.87,637.09-62.46,293-234.42,534.43-463.88,690.72,3.4.77,6.78,1.6,10.14,2.56.89.19,1.39,2.14,2.09,3.21,3.34,1.64,7.25.62,10.59,2.26.7,1.07,1.2,3,2.09,3.21,4.22,1.83,8.64,2.77,12.86,4.59,12.49,6.35,26.3,6.53,39.16,11.12,14.24,5.08,28.83,8.53,43.55,11.41,218.67-170.26,380.85-415.55,443.15-707.82C9299,5489.8,9284,5273,9219.37,5075.28,9179.93,5068,9141.38,5056.47,9101.87,5049.5Z" transform="translate(-476.39 -767.85)"/><path class="cls-15" d="M9124.67,5056.76c-7.76-1.67-15.54-3.23-23.37-4.61,76.22,196.12,98,415.93,50.87,637.09-62.45,293-234.42,534.43-463.88,690.72,3.4.77,6.79,1.6,10.15,2.56.88.18,1.39,2.14,2.08,3.21,3.35,1.63,7.25.62,10.6,2.26.69,1.07,1.2,3,2.08,3.21,1.74.75,3.51,1.35,5.29,1.93,225.1-159.95,393.21-401.46,455.32-692.82C9221.38,5477.12,9200.24,5255.27,9124.67,5056.76Z" transform="translate(-476.39 -767.85)"/><rect class="cls-1" x="8164.22" y="1839.3" width="446.5" height="1511.32" transform="translate(4463.93 9901.81) rotate(-84.07)"/><path class="cls-16" d="M7628,2601.35c202-104.45,435.67-153.14,678.73-127.91,322,33.43,601.22,190.45,795.55,419,.43-3.75.94-7.48,1.58-11.2.1-1,2.14-1.74,3.21-2.61,1.38-3.78-.16-7.86,1.21-11.64,1.07-.87,3.11-1.64,3.22-2.61,1.47-4.75,2-9.6,3.45-14.35,5.39-14.15,4-29,7.44-43.36,3.82-15.89,5.85-32,7.26-48.1-208.09-215.41-490.32-361.47-811.54-394.82-239.65-24.88-471,16.11-675.92,108.32C7638.84,2515.34,7630.93,2558.09,7628,2601.35Z" transform="translate(-476.39 -767.85)"/><path class="cls-17" d="M7633.16,2576c-.9,8.53-1.68,17.07-2.26,25.64,202-104.45,435.67-153.14,678.73-127.91,322,33.43,601.22,190.45,795.55,419.05.44-3.74.94-7.48,1.58-11.2.1-1,2.14-1.74,3.21-2.61,1.38-3.78-.16-7.86,1.21-11.64,1.07-.87,3.12-1.64,3.22-2.61.6-1.95,1-3.93,1.46-5.9-197.75-223.5-476.6-376.37-796.82-409.61C8073.74,2423.76,7837.78,2472,7633.16,2576Z" transform="translate(-476.39 -767.85)"/><rect class="cls-1" x="6773.71" y="4792.49" width="471.78" height="1596.9" transform="matrix(0.85, -0.53, 0.53, 0.85, -2372.6, 3784.08)"/><path class="cls-18" d="M7507.31,6220.48c-218.09-100.8-410.22-264.22-546.75-483.37-180.86-290.33-230.88-625.11-166.14-935.45-3.41,2.07-6.85,4.07-10.37,5.95-.87.54-2.84-.66-4.26-1-4,1.3-6.45,5.23-10.49,6.54-1.42-.33-3.39-1.54-4.26-1-4.92,1.85-9.3,4.57-14.22,6.42-15.3,4.68-26.79,15.48-41,21.9-15.73,7.12-30.46,15.84-44.84,25.13-44.81,313.27,16.3,643.45,196.73,933.07,134.61,216.08,318.77,382.49,528.58,493.73C7428.52,6267.18,7469.31,6246.08,7507.31,6220.48Z" transform="translate(-476.39 -767.85)"/><path class="cls-19" d="M7482.82,6232.59q11.55-7.17,22.86-14.73c-218.09-100.81-410.23-264.22-546.76-483.38C6778.06,5444.16,6728,5109.38,6792.78,4799c-3.4,2.07-6.84,4.06-10.36,5.94-.88.55-2.84-.66-4.26-1-4.05,1.31-6.46,5.24-10.5,6.54-1.42-.33-3.38-1.53-4.26-1-2,.77-4,1.68-5.87,2.61-58.27,309.89-5,641.65,174.83,930.38C7070.15,5963.7,7263.37,6129.31,7482.82,6232.59Z" transform="translate(-476.39 -767.85)"/><rect class="cls-1" x="4528.41" y="1962.2" width="485.18" height="1642.23" transform="translate(1022.8 6465.7) rotate(-83.94)"/><path class="cls-20" d="M3945.71,2788.26c219.74-113,473.81-165.26,737.86-137.21,349.79,37.17,652.8,208.53,863.36,457.43.48-4.06,1-8.12,1.75-12.16.11-1.05,2.33-1.88,3.5-2.83,1.5-4.1-.16-8.54,1.34-12.64,1.17-.95,3.39-1.78,3.5-2.83,1.61-5.16,2.17-10.43,3.79-15.59,5.89-15.36,4.41-31.51,8.2-47.09,4.19-17.26,6.44-34.72,8-52.25C5351.47,2728.48,5045.18,2569,4696.22,2532c-260.34-27.66-511.78,16.28-734.75,115.93C3957.73,2694.84,3949,2741.26,3945.71,2788.26Z" transform="translate(-476.39 -767.85)"/><path class="cls-21" d="M3951.4,2760.74c-1,9.27-1.87,18.55-2.53,27.86,219.75-113,473.81-165.26,737.86-137.21,349.8,37.17,652.8,208.52,863.37,457.43.48-4.07,1-8.12,1.74-12.16.11-1.06,2.33-1.89,3.5-2.83,1.5-4.1-.16-8.54,1.34-12.65,1.17-.94,3.39-1.77,3.5-2.82.66-2.13,1.15-4.27,1.6-6.41-214.29-243.38-516.89-410.22-864.76-447.18C4430.54,2596.46,4174,2648.25,3951.4,2760.74Z" transform="translate(-476.39 -767.85)"/><rect class="cls-1" x="2563.2" y="3695.79" width="502.63" height="1701.3" transform="translate(-2913.83 2774.35) rotate(-47.42)"/><path class="cls-22" d="M2124.37,4041.75c252.59,41.43,496.35,154.52,698.89,340.67,268.31,246.59,414.94,576.06,436.79,913.1,2.91-3.09,5.87-6.12,8.95-9.05.74-.81,3.1-.13,4.65-.19,3.78-2.5,5.14-7.22,8.92-9.71,1.55-.06,3.91.62,4.66-.19,4.52-3.3,8.23-7.34,12.76-10.64,14.38-9.16,23.1-23.52,35.86-34.16,14.13-11.78,26.77-24.93,38.89-38.56-43.15-334.37-199.85-656-467.52-902-199.69-183.54-436.12-302-683.19-356.46C2192,3971.38,2156.09,4004.66,2124.37,4041.75Z" transform="translate(-476.39 -767.85)"/><path class="cls-23" d="M2146.07,4022.35c-6.55,7.1-13,14.29-19.28,21.63,252.59,41.43,496.36,154.52,698.9,340.67,268.31,246.59,414.93,576.06,436.79,913.1,2.9-3.09,5.87-6.12,8.95-9.05.74-.81,3.1-.13,4.65-.2,3.78-2.49,5.14-7.21,8.92-9.7,1.55-.06,3.91.61,4.65-.19,1.86-1.36,3.59-2.85,5.29-4.35-28.37-334.73-177.44-660.19-444.27-905.43C2646.26,4181,2400.76,4065.93,2146.07,4022.35Z" transform="translate(-476.39 -767.85)"/><rect class="cls-1" x="5222.99" y="6297.34" width="443.9" height="1502.51" transform="translate(-2526 11093.41) rotate(-85.02)"/><path class="cls-24" d="M6199.79,7029.76c-199.05,107.15-430.55,159.39-672.57,138.31-320.62-27.93-600.77-179.43-797.7-403.46-.37,3.72-.81,7.44-1.39,11.15-.08,1-2.1,1.77-3.15,2.65-1.3,3.78.3,7.81-1,11.59-1.05.88-3.06,1.68-3.15,2.65-1.39,4.74-1.81,9.57-3.19,14.32-5.13,14.15-3.49,28.9-6.69,43.22-3.53,15.86-5.29,31.87-6.42,47.94,210.39,210.69,493.34,351.24,813.18,379.11,238.64,20.79,467.88-23.76,670.11-118.79C6190.42,7115.43,6197.58,7072.81,6199.79,7029.76Z" transform="translate(-476.39 -767.85)"/><path class="cls-25" d="M6195.07,7055c.75-8.5,1.39-17,1.83-25.53-199.06,107.14-430.56,159.39-672.58,138.31-320.62-27.94-600.77-179.43-797.7-403.47-.37,3.73-.81,7.45-1.38,11.16-.09,1-2.11,1.76-3.16,2.65-1.3,3.78.3,7.81-1,11.59-1,.88-3.06,1.68-3.15,2.64-.57,2-1,3.93-1.35,5.9,200.24,218.91,479.94,366.28,798.8,394.05C5759.62,7213.62,5993.38,7161.8,6195.07,7055Z" transform="translate(-476.39 -767.85)"/><rect class="cls-1" x="3147.05" y="1413.82" width="465.37" height="1575.18" transform="translate(-999.21 2452.79) rotate(-47.72)"/><path class="cls-26" d="M4021.16,2665.32c-234.06-37.12-460.3-140.65-648.73-312-249.61-227-387-531.34-408.84-843.29-2.67,2.88-5.4,5.7-8.24,8.43-.68.75-2.87.13-4.3.2-3.49,2.33-4.72,6.7-8.21,9-1.44.06-3.63-.55-4.31.2-4.17,3.08-7.59,6.84-11.77,9.91-13.27,8.55-21.27,21.88-33,31.8-13,11-24.67,23.21-35.82,35.89,41.57,309.38,188.21,606.36,437.23,832.82,185.78,169,405.25,277.47,634.27,326.72C3958.91,2730.81,3992,2699.82,4021.16,2665.32Z" transform="translate(-476.39 -767.85)"/><path class="cls-27" d="M4001.16,2683.4c6-6.61,12-13.3,17.75-20.13-234.07-37.12-460.31-140.65-648.74-312-249.61-227-387-531.34-408.83-843.29-2.68,2.88-5.41,5.7-8.24,8.42-.69.76-2.88.14-4.31.21-3.49,2.32-4.72,6.7-8.21,9-1.44.07-3.62-.54-4.31.21-1.72,1.26-3.3,2.65-4.87,4.05,27.89,309.78,167.48,610.38,415.73,836.14C3537.29,2539,3765.14,2644.28,4001.16,2683.4Z" transform="translate(-476.39 -767.85)"/><rect class="cls-1" x="1819.13" y="2842.57" width="483.25" height="1635.7" transform="translate(-2594.82 2468.55) rotate(-54.83)"/><path class="cls-28" d="M1340.16,3264.86c246,8.16,492.4,85.75,708.59,238.1,286.4,201.82,467.06,497.75,529.7,816.37,2.39-3.3,4.84-6.56,7.41-9.74.61-.86,2.94-.51,4.41-.76,3.3-2.84,4-7.51,7.3-10.36,1.47-.25,3.81.1,4.41-.76,3.91-3.71,6.95-8,10.85-11.73,12.58-10.51,19.11-25.28,30-37,12-13,22.43-27.09,32.29-41.58-82.62-313.45-271.9-600.61-557.61-802-213.16-150.21-453.26-233.8-695.58-255.11C1395.89,3189.38,1365.81,3225.56,1340.16,3264.86Z" transform="translate(-476.39 -767.85)"/><path class="cls-29" d="M1358.45,3243.66c-5.36,7.59-10.62,15.24-15.7,23,246,8.17,492.4,85.75,708.59,238.1,286.39,201.82,467.06,497.75,529.7,816.38,2.39-3.31,4.84-6.57,7.41-9.74.61-.86,2.94-.51,4.41-.77,3.3-2.84,4-7.51,7.3-10.35,1.47-.26,3.81.1,4.41-.77a65.56,65.56,0,0,0,4.5-4.8c-68.56-315.61-251.06-607.42-535.88-808.13C1855,3332.85,1606.68,3253.63,1358.45,3243.66Z" transform="translate(-476.39 -767.85)"/><rect class="cls-1" x="1932.13" y="5687.39" width="418.1" height="1415.19" transform="translate(-3447.05 1228.32) rotate(-30.78)"/><path class="cls-30" d="M2571,6961.61c-191.45-93.18-358.79-241.38-475.87-438-155.11-260.44-193.5-558-130.63-831.78-3,1.77-6.14,3.48-9.29,5.08-.79.47-2.51-.64-3.76-1-3.61,1.08-5.81,4.52-9.42,5.61-1.25-.32-3-1.42-3.75-1-4.39,1.56-8.32,3.89-12.71,5.44-13.64,3.88-24,13.24-36.72,18.68a305.52,305.52,0,0,0-40.17,21.47c-45.26,276.78,3,570.41,157.77,830.22,115.44,193.85,275.66,344.56,459.6,446.84C2500.37,7001.59,2536.89,6983.61,2571,6961.61Z" transform="translate(-476.39 -767.85)"/><path class="cls-31" d="M2549.09,6971.91q10.36-6.15,20.52-12.65c-191.45-93.18-358.79-241.38-475.88-438-155.1-260.45-193.49-558-130.63-831.79-3,1.77-6.13,3.48-9.28,5.08-.79.47-2.51-.63-3.76-.95-3.61,1.09-5.81,4.53-9.42,5.61-1.25-.32-3-1.42-3.75-.95-1.81.64-3.54,1.41-5.25,2.21-57.13,273.53-15.84,568.43,138.42,827.44C2188.22,6726.35,2356.49,6876.5,2549.09,6971.91Z" transform="translate(-476.39 -767.85)"/><rect class="cls-1" x="5168.63" y="7759.99" width="1386.27" height="409.56" transform="translate(-2813.99 12725.77) rotate(-87.64)"/><path class="cls-32" d="M5911,8659.7c-107.14-178.94-165.06-390.11-155.83-614.07,12.23-296.68,140.05-561.27,338.23-752.22-3.45-.19-6.89-.44-10.34-.81-.89,0-1.71-1.86-2.57-2.79-3.54-1-7.19.6-10.73-.44-.85-.93-1.67-2.76-2.57-2.8-4.43-1.07-8.9-1.26-13.33-2.34-13.26-4.13-26.79-2-40.12-4.34-14.76-2.59-29.6-3.53-44.45-3.9-185.32,202.8-302.94,469.51-315.14,765.48-9.1,220.82,41.63,430.23,137.74,612.61C5831.6,8654.67,5871.18,8659.48,5911,8659.7Z" transform="translate(-476.39 -767.85)"/><path class="cls-33" d="M5887.46,8656.41c7.86.34,15.73.57,23.6.61C5803.92,8478.08,5746,8266.91,5755.23,8043c12.23-296.68,140.05-561.28,338.23-752.23-3.45-.18-6.89-.43-10.34-.8-.89,0-1.71-1.86-2.57-2.79-3.54-1.05-7.19.6-10.72-.45-.86-.93-1.68-2.75-2.58-2.79-1.82-.44-3.65-.73-5.48-1-193.32,193.79-317.36,457.79-329.52,752.85C5722.93,8261.76,5780.55,8475,5887.46,8656.41Z" transform="translate(-476.39 -767.85)"/><rect class="cls-1" x="7300.81" y="5338.91" width="1480" height="437.25" transform="translate(-2081.28 3208.14) rotate(-25.34)"/><path class="cls-34" d="M8673.3,5166.18c-116,190.08-286.84,349.62-503.13,452-286.51,135.67-600.05,146.15-878.9,53.58,1.54,3.35,3,6.73,4.37,10.17.41.87-.91,2.55-1.36,3.82.77,3.86,4.13,6.5,4.91,10.36-.46,1.27-1.78,3-1.37,3.81,1.18,4.73,3.23,9.05,4.41,13.77,2.68,14.59,11.4,26.31,15.8,40.08,4.88,15.24,11.35,29.73,18.38,43.95,283.66,74.54,594.14,53.36,880-82,213.25-101,386-252.85,510.73-434.21C8707.92,5243.69,8692.83,5203.89,8673.3,5166.18Z" transform="translate(-476.39 -767.85)"/><path class="cls-35" d="M8681.85,5190c-3.59-7.59-7.27-15.14-11.14-22.61-116,190.08-286.84,349.62-503.13,452-286.51,135.68-600.05,146.16-878.9,53.59,1.54,3.35,3,6.73,4.37,10.17.41.86-.91,2.54-1.36,3.82.77,3.86,4.13,6.49,4.91,10.35-.46,1.28-1.78,3-1.37,3.82.49,2,1.12,3.82,1.78,5.68,279.12,86.58,590.22,72.81,875.16-62.12C8390.44,5541.39,8563.44,5381.09,8681.85,5190Z" transform="translate(-476.39 -767.85)"/><rect class="cls-1" x="5397.81" y="1798.11" width="1409.51" height="416.42" transform="translate(-796 1387.64) rotate(-19.53)"/><path class="cls-36" d="M6739.56,1696.49c-128.21,168.92-305.48,303.6-520.28,379.79-284.54,100.93-582.63,80.64-837.9-34,1.13,3.33,2.2,6.67,3.16,10.06.3.86-1.11,2.32-1.66,3.49.35,3.73,3.29,6.55,3.64,10.29-.55,1.16-2,2.62-1.65,3.48.66,4.59,2.18,8.88,2.84,13.47,1.13,14.08,8.27,26,11.12,39.49,3.15,14.92,7.88,29.27,13.16,43.42,261.59,98,557.8,107.83,841.66,7.15,211.78-75.12,390.12-202.36,525.76-362.17C6764.89,1773.27,6754.43,1734.1,6739.56,1696.49Z" transform="translate(-476.39 -767.85)"/><path class="cls-37" d="M6745.36,1719.9c-2.66-7.54-5.43-15.05-8.37-22.5-128.21,168.92-305.49,303.61-520.28,379.79-284.54,100.93-582.63,80.64-837.91-34,1.14,3.33,2.21,6.68,3.16,10.06.31.86-1.1,2.33-1.66,3.49.36,3.73,3.29,6.55,3.65,10.29-.55,1.16-2,2.62-1.66,3.48.28,1.89.7,3.73,1.14,5.56,256.11,108.93,552.2,125.88,835.18,25.51C6435.39,2024.73,6614.75,1889.52,6745.36,1719.9Z" transform="translate(-476.39 -767.85)"/><rect class="cls-1" x="4815.4" y="3335.21" width="457.13" height="1547.29" transform="translate(-250.56 7712.47) rotate(-81.38)"/><path class="cls-38" d="M5821,4138.81c-211.57,97.11-452.91,135.68-700.27,98.2-327.68-49.65-605.7-223.65-793.46-466.76-.62,3.8-1.32,7.6-2.15,11.37-.15,1-2.27,1.68-3.41,2.51-1.59,3.8-.21,8-1.8,11.85-1.13.84-3.26,1.53-3.41,2.52-1.73,4.78-2.48,9.72-4.22,14.51-6.19,14.21-5.47,29.47-9.69,44-4.67,16.07-7.52,32.41-9.74,48.85,202.47,230.28,484.08,393.21,811,442.75,243.89,36.95,482.4,6.15,696.45-78.31C5805.74,4226.24,5815.89,4182.91,5821,4138.81Z" transform="translate(-476.39 -767.85)"/><path class="cls-39" d="M5814.47,4164.48c1.33-8.68,2.54-17.39,3.55-26.12-211.58,97.12-452.91,135.69-700.27,98.2-327.69-49.65-605.71-223.65-793.46-466.76-.62,3.8-1.32,7.6-2.15,11.37-.15,1-2.28,1.68-3.41,2.52-1.59,3.8-.21,8-1.8,11.84-1.14.84-3.26,1.53-3.41,2.52-.71,2-1.26,4-1.78,6,191.5,238.07,469.32,407.8,795.21,457.18C5356.59,4299,5600.21,4261,5814.47,4164.48Z" transform="translate(-476.39 -767.85)"/><rect class="cls-1" x="4877.53" y="5012.51" width="476.06" height="1611.36" transform="translate(-1772.28 9399.32) rotate(-82.83)"/><path class="cls-40" d="M4305.84,5807.37c217.72-106.64,467.95-153.13,726.46-120.59,342.45,43.1,636.45,217,838.29,465.13.55-4,1.17-7.94,1.94-11.89.13-1,2.33-1.81,3.49-2.71,1.55-4,0-8.39,1.56-12.38,1.16-.91,3.35-1.68,3.48-2.71,1.68-5,2.33-10.19,4-15.22,6.08-15,4.93-30.82,8.94-46,4.44-16.85,7-33.94,8.86-51.11-216.82-234.43-514.27-396.68-855.9-439.67-254.87-32.08-502.38,6.25-723,99.78C4319.41,5716,4310,5761.33,4305.84,5807.37Z" transform="translate(-476.39 -767.85)"/><path class="cls-41" d="M4311.94,5780.48c-1.15,9.08-2.18,18.17-3,27.28,217.71-106.64,468-153.13,726.45-120.59,342.45,43.1,636.46,217,838.3,465.13.54-4,1.17-7.94,1.94-11.9.13-1,2.32-1.8,3.48-2.7,1.55-4,0-8.39,1.56-12.38,1.16-.91,3.36-1.68,3.49-2.71.69-2.07,1.2-4.16,1.69-6.26-205.6-242.82-499.29-412.24-839.86-455.1C4785.11,5628.41,4532.47,5674.35,4311.94,5780.48Z" transform="translate(-476.39 -767.85)"/><rect class="cls-1" x="5029.14" y="4944.58" width="1492.93" height="441.07" transform="translate(-545.52 9484.02) rotate(-82.84)"/><path class="cls-42" d="M5765.75,5915.32c-98.86-201.69-142-433.53-111.89-673,39.86-317.29,200.88-589.72,430.77-776.78-3.69-.5-7.36-1.08-11-1.79-1-.12-1.68-2.15-2.51-3.23-3.71-1.44-7.77,0-11.47-1.44-.84-1.08-1.56-3.11-2.51-3.23-4.66-1.56-9.44-2.16-14.1-3.71-13.86-5.63-28.56-4.56-42.67-8.28-15.61-4.11-31.44-6.46-47.35-8.19-217.15,200.93-367.41,476.56-407.17,793.08-29.67,236.15,5.9,465.46,92.6,669.85C5681,5902.77,5723.09,5911.5,5765.75,5915.32Z" transform="translate(-476.39 -767.85)"/><path class="cls-43" d="M5740.83,5909.67c8.41,1.07,16.83,2,25.28,2.78-98.85-201.69-142-433.52-111.89-673,39.86-317.28,200.88-589.71,430.77-776.77-3.69-.51-7.36-1.09-11-1.8-1-.12-1.68-2.15-2.51-3.23-3.71-1.43-7.77,0-11.47-1.44-.84-1.08-1.56-3.11-2.51-3.23-1.92-.64-3.86-1.12-5.8-1.57-224.93,190.55-381.83,462.68-421.47,778.23C5599.84,5471.32,5642.46,5705.38,5740.83,5909.67Z" transform="translate(-476.39 -767.85)"/></g></g></svg>