<svg xmlns="http://www.w3.org/2000/svg" viewBox="0 0 320 307"><defs><style>.cls-1{fill:#c00;stroke:#900;stroke-linecap:round;stroke-miterlimit:10;stroke-width:2px;}.cls-2{fill:#c66;}.cls-3{fill:#f99;}</style></defs><title>pepperoni</title><g id="Layer_2" data-name="Layer 2"><g id="Layer_1-2" data-name="Layer 1"><circle class="cls-1" cx="80.5" cy="56.5" r="29.5"/><circle class="cls-2" cx="67.5" cy="71.5" r="4"/><circle class="cls-2" cx="90" cy="40" r="7"/><circle class="cls-3" cx="62" cy="54" r="2.5"/><circle class="cls-3" cx="90.5" cy="73.5" r="5"/><circle class="cls-3" cx="90.5" cy="56.5" r="2"/><circle class="cls-3" cx="74" cy="42" r="2.5"/><circle class="cls-1" cx="150.5" cy="30.5" r="29.5"/><circle class="cls-2" cx="137.5" cy="45.5" r="4"/><circle class="cls-2" cx="160" cy="14" r="7"/><circle class="cls-3" cx="132" cy="28" r="2.5"/><circle class="cls-3" cx="160.5" cy="47.5" r="5"/><circle class="cls-3" cx="160.5" cy="30.5" r="2"/><circle class="cls-3" cx="144" cy="16" r="2.5"/><circle class="cls-1" cx="213.5" cy="102.5" r="29.5"/><circle class="cls-2" cx="200.5" cy="117.5" r="4"/><circle class="cls-2" cx="223" cy="86" r="7"/><circle class="cls-3" cx="195" cy="100" r="2.5"/><circle class="cls-3" cx="223.5" cy="119.5" r="5"/><circle class="cls-3" cx="223.5" cy="102.5" r="2"/><circle class="cls-3" cx="207" cy="88" r="2.5"/><circle class="cls-1" cx="230.5" cy="160.5" r="29.5"/><circle class="cls-2" cx="217.5" cy="175.5" r="4"/><circle class="cls-2" cx="240" cy="144" r="7"/><circle class="cls-3" cx="212" cy="158" r="2.5"/><circle class="cls-3" cx="240.5" cy="177.5" r="5"/><circle class="cls-3" cx="240.5" cy="160.5" r="2"/><circle class="cls-3" cx="224" cy="146" r="2.5"/><circle class="cls-1" cx="289.5" cy="175.5" r="29.5"/><circle class="cls-2" cx="276.5" cy="190.5" r="4"/><circle class="cls-2" cx="299" cy="159" r="7"/><circle class="cls-3" cx="271" cy="173" r="2.5"/><circle class="cls-3" cx="299.5" cy="192.5" r="5"/><circle class="cls-3" cx="299.5" cy="175.5" r="2"/><circle class="cls-3" cx="283" cy="161" r="2.5"/><circle class="cls-1" cx="176.5" cy="276.5" r="29.5"/><circle class="cls-2" cx="163.5" cy="291.5" r="4"/><circle class="cls-2" cx="186" cy="260" r="7"/><circle class="cls-3" cx="158" cy="274" r="2.5"/><circle class="cls-3" cx="186.5" cy="293.5" r="5"/><circle class="cls-3" cx="186.5" cy="276.5" r="2"/><circle class="cls-3" cx="170" cy="262" r="2.5"/><circle class="cls-1" cx="59.5" cy="220.5" r="29.5"/><circle class="cls-2" cx="46.5" cy="235.5" r="4"/><circle class="cls-2" cx="69" cy="204" r="7"/><circle class="cls-3" cx="41" cy="218" r="2.5"/><circle class="cls-3" cx="69.5" cy="237.5" r="5"/><circle class="cls-3" cx="69.5" cy="220.5" r="2"/><circle class="cls-3" cx="53" cy="206" r="2.5"/><circle class="cls-1" cx="96.5" cy="141.5" r="29.5"/><circle class="cls-2" cx="83.5" cy="156.5" r="4"/><circle class="cls-2" cx="106" cy="125" r="7"/><circle class="cls-3" cx="78" cy="139" r="2.5"/><circle class="cls-3" cx="106.5" cy="158.5" r="5"/><circle class="cls-3" cx="106.5" cy="141.5" r="2"/><circle class="cls-3" cx="90" cy="127" r="2.5"/><circle class="cls-1" cx="30.5" cy="156.5" r="29.5"/><circle class="cls-2" cx="17.5" cy="171.5" r="4"/><circle class="cls-2" cx="40" cy="140" r="7"/><circle class="cls-3" cx="12" cy="154" r="2.5"/><circle class="cls-3" cx="40.5" cy="173.5" r="5"/><circle class="cls-3" cx="40.5" cy="156.5" r="2"/><circle class="cls-3" cx="24" cy="142" r="2.5"/><circle class="cls-1" cx="286.5" cy="104.5" r="29.5"/><circle class="cls-2" cx="273.5" cy="119.5" r="4"/><circle class="cls-2" cx="296" cy="88" r="7"/><circle class="cls-3" cx="268" cy="102" r="2.5"/><circle class="cls-3" cx="296.5" cy="121.5" r="5"/><circle class="cls-3" cx="296.5" cy="104.5" r="2"/><circle class="cls-3" cx="280" cy="90" r="2.5"/><circle class="cls-1" cx="239.5" cy="44.5" r="29.5"/><circle class="cls-2" cx="226.5" cy="59.5" r="4"/><circle class="cls-2" cx="249" cy="28" r="7"/><circle class="cls-3" cx="221" cy="42" r="2.5"/><circle class="cls-3" cx="249.5" cy="61.5" r="5"/><circle class="cls-3" cx="249.5" cy="44.5" r="2"/><circle class="cls-3" cx="233" cy="30" r="2.5"/><circle class="cls-1" cx="147.5" cy="99.5" r="29.5"/><circle class="cls-2" cx="134.5" cy="114.5" r="4"/><circle class="cls-2" cx="157" cy="83" r="7"/><circle class="cls-3" cx="129" cy="97" r="2.5"/><circle class="cls-3" cx="157.5" cy="116.5" r="5"/><circle class="cls-3" cx="157.5" cy="99.5" r="2"/><circle class="cls-3" cx="141" cy="85" r="2.5"/><circle class="cls-1" cx="105.5" cy="264.5" r="29.5"/><circle class="cls-2" cx="92.5" cy="279.5" r="4"/><circle class="cls-2" cx="115" cy="248" r="7"/><circle class="cls-3" cx="87" cy="262" r="2.5"/><circle class="cls-3" cx="115.5" cy="281.5" r="5"/><circle class="cls-3" cx="115.5" cy="264.5" r="2"/><circle class="cls-3" cx="99" cy="250" r="2.5"/><circle class="cls-1" cx="167.5" cy="155.5" r="29.5"/><circle class="cls-2" cx="154.5" cy="170.5" r="4"/><circle class="cls-2" cx="177" cy="139" r="7"/><circle class="cls-3" cx="149" cy="153" r="2.5"/><circle class="cls-3" cx="177.5" cy="172.5" r="5"/><circle class="cls-3" cx="177.5" cy="155.5" r="2"/><circle class="cls-3" cx="161" cy="141" r="2.5"/><circle class="cls-1" cx="121.5" cy="201.5" r="29.5"/><circle class="cls-2" cx="108.5" cy="216.5" r="4"/><circle class="cls-2" cx="131" cy="185" r="7"/><circle class="cls-3" cx="103" cy="199" r="2.5"/><circle class="cls-3" cx="131.5" cy="218.5" r="5"/><circle class="cls-3" cx="131.5" cy="201.5" r="2"/><circle class="cls-3" cx="115" cy="187" r="2.5"/><circle class="cls-1" cx="191.5" cy="220.5" r="29.5"/><circle class="cls-2" cx="178.5" cy="235.5" r="4"/><circle class="cls-2" cx="201" cy="204" r="7"/><circle class="cls-3" cx="173" cy="218" r="2.5"/><circle class="cls-3" cx="201.5" cy="237.5" r="5"/><circle class="cls-3" cx="201.5" cy="220.5" r="2"/><circle class="cls-3" cx="185" cy="206" r="2.5"/><circle class="cls-1" cx="223.5" cy="267.5" r="29.5"/><circle class="cls-2" cx="210.5" cy="282.5" r="4"/><circle class="cls-2" cx="233" cy="251" r="7"/><circle class="cls-3" cx="205" cy="265" r="2.5"/><circle class="cls-3" cx="233.5" cy="284.5" r="5"/><circle class="cls-3" cx="233.5" cy="267.5" r="2"/><circle class="cls-3" cx="217" cy="253" r="2.5"/><circle class="cls-1" cx="264.5" cy="220.5" r="29.5"/><circle class="cls-2" cx="251.5" cy="235.5" r="4"/><circle class="cls-2" cx="274" cy="204" r="7"/><circle class="cls-3" cx="246" cy="218" r="2.5"/><circle class="cls-3" cx="274.5" cy="237.5" r="5"/><circle class="cls-3" cx="274.5" cy="220.5" r="2"/><circle class="cls-3" cx="258" cy="206" r="2.5"/><circle class="cls-1" cx="185.5" cy="43.5" r="29.5"/><circle class="cls-2" cx="172.5" cy="58.5" r="4"/><circle class="cls-2" cx="195" cy="27" r="7"/><circle class="cls-3" cx="167" cy="41" r="2.5"/><circle class="cls-3" cx="195.5" cy="60.5" r="5"/><circle class="cls-3" cx="195.5" cy="43.5" r="2"/><circle class="cls-3" cx="179" cy="29" r="2.5"/><circle class="cls-1" cx="46.5" cy="104.5" r="29.5"/><circle class="cls-2" cx="33.5" cy="119.5" r="4"/><circle class="cls-2" cx="56" cy="88" r="7"/><circle class="cls-3" cx="28" cy="102" r="2.5"/><circle class="cls-3" cx="56.5" cy="121.5" r="5"/><circle class="cls-3" cx="56.5" cy="104.5" r="2"/><circle class="cls-3" cx="40" cy="90" r="2.5"/></g></g></svg>