<?xml version="1.0" encoding="iso-8859-1"?>
<!-- Generator: Adobe Illustrator 19.0.0, SVG Export Plug-In . SVG Version: 6.00 Build 0)  -->
<svg version="1.1" id="Layer_1" xmlns="http://www.w3.org/2000/svg" xmlns:xlink="http://www.w3.org/1999/xlink" x="0px" y="0px"
	 viewBox="0 0 347.787 347.787" style="enable-background:new 0 0 347.787 347.787;" xml:space="preserve">
<g>
	<polygon style="fill:#E94F3D;" points="185.058,0 162.729,0 128.908,61.667 218.88,61.667 	"/>
	<rect x="121.65" y="56.667" style="fill:#712D3D;" width="104.485" height="31.666"/>
	<g>
		<rect x="135.015" y="56.667" style="fill:#F47660;" width="7.257" height="31.666"/>
		<rect x="158.515" y="56.667" style="fill:#F47660;" width="7.257" height="31.666"/>
		<rect x="182.015" y="56.667" style="fill:#F47660;" width="7.258" height="31.666"/>
		<rect x="205.515" y="56.667" style="fill:#F47660;" width="7.258" height="31.666"/>
	</g>
	<path style="fill:#E94F3D;" d="M251.119,101.666c0-11-9-20-20-20H116.668c-11,0-20,9-20,20v226.121c0,11,9,20,20,20h114.451
		c11,0,20-9,20-20V101.666L251.119,101.666z"/>
	<rect x="124.637" y="136.933" style="fill:#F47660;" width="98.515" height="155.589"/>
	<path style="fill:#E94F3D;" d="M191.431,190.105c4.65-0.626,6.013-3.491,6.473-5.265c-7.176,2.081-14.465-0.106-20.453,0.188
		c1.7-3.936,5.21-8.503,9.267-11.713c1.066-0.844,1.247-2.393,0.402-3.459c-0.844-1.067-2.394-1.247-3.459-0.403
		c-4.863,3.851-9.767,9.997-11.534,15.755c-6.288-0.961-14.333,1.926-22.241-0.367c0.46,1.774,1.821,4.639,6.473,5.265
		c-11.552,5.381-19.4,15.913-19.4,28.025c0,17.583,16.537,34.269,36.936,34.269c20.398,0,36.936-16.686,36.936-34.269
		C210.83,206.018,202.981,195.486,191.431,190.105z"/>
</g>
<g>
</g>
<g>
</g>
<g>
</g>
<g>
</g>
<g>
</g>
<g>
</g>
<g>
</g>
<g>
</g>
<g>
</g>
<g>
</g>
<g>
</g>
<g>
</g>
<g>
</g>
<g>
</g>
<g>
</g>
</svg>
