<svg xmlns="http://www.w3.org/2000/svg" viewBox="0 0 411.38 388.01"><defs><style>.cls-1{fill:none;}.cls-10,.cls-11,.cls-12,.cls-13,.cls-14,.cls-15,.cls-16,.cls-17,.cls-18,.cls-19,.cls-2,.cls-20,.cls-21,.cls-22,.cls-23,.cls-24,.cls-25,.cls-26,.cls-27,.cls-28,.cls-5,.cls-6,.cls-7,.cls-8,.cls-9{fill:#894d25;stroke:#bf8e5c;stroke-linecap:round;stroke-miterlimit:10;}.cls-2{stroke-width:2.05px;}.cls-3{fill:#c98e71;}.cls-4{fill:#0a0100;}.cls-5{stroke-width:1.84px;}.cls-6{stroke-width:2px;}.cls-7{stroke-width:1.84px;}.cls-8{stroke-width:2.16px;}.cls-9{stroke-width:1.85px;}.cls-10{stroke-width:1.89px;}.cls-11{stroke-width:1.76px;}.cls-12{stroke-width:1.85px;}.cls-13{stroke-width:1.99px;}.cls-14{stroke-width:1.97px;}.cls-15{stroke-width:2.17px;}.cls-16{stroke-width:2.16px;}.cls-17{stroke-width:1.84px;}.cls-18{stroke-width:1.76px;}.cls-19{stroke-width:2.15px;}.cls-20{stroke-width:2.05px;}.cls-21{stroke-width:2.05px;}.cls-22{stroke-width:2px;}.cls-23{stroke-width:1.84px;}.cls-24{stroke-width:1.93px;}.cls-25{stroke-width:2.1px;}.cls-26{stroke-width:1.87px;}.cls-27{stroke-width:1.83px;}.cls-28{stroke-width:1.84px;}</style></defs><title>sausage_1</title><g id="Layer_2" data-name="Layer 2"><g id="Layer_1-2" data-name="Layer 1"><rect class="cls-1" x="253.57" y="47.88" width="62.65" height="62.65" transform="translate(57.15 267.81) rotate(-55.17)"/><circle class="cls-2" cx="284.89" cy="79.21" r="30.3"/><circle class="cls-3" cx="304.65" cy="74.19" r="4.11"/><circle class="cls-3" cx="267.21" cy="87.54" r="7.19"/><circle class="cls-4" cx="299.02" cy="92.17" r="2.57"/><circle class="cls-4" cx="286.44" cy="59.01" r="5.14"/><circle class="cls-4" cx="276.46" cy="73.34" r="2.05"/><circle class="cls-4" cx="281.87" cy="95.24" r="2.57"/><rect class="cls-1" x="141.56" y="62.39" width="56.25" height="56.25" transform="translate(-20.06 121.88) rotate(-37.46)"/><circle class="cls-5" cx="169.69" cy="90.51" r="27.2"/><circle class="cls-3" cx="187.96" cy="91.62" r="3.69"/><circle class="cls-3" cx="152.28" cy="92.81" r="6.46"/><circle class="cls-4" cx="178.23" cy="105.46" r="2.31"/><circle class="cls-4" cx="176.52" cy="73.66" r="4.61"/><circle class="cls-4" cx="164.08" cy="83.19" r="1.84"/><circle class="cls-4" cx="162.72" cy="103.4" r="2.31"/><rect class="cls-1" x="59.91" y="101.18" width="61.04" height="61.04" transform="translate(-21.57 17.78) rotate(-10.04)"/><circle class="cls-6" cx="90.44" cy="131.7" r="29.52"/><circle class="cls-3" cx="100.63" cy="114.65" r="4"/><circle class="cls-3" cx="83.95" cy="149.62" r="7"/><circle class="cls-4" cx="109.1" cy="130.94" r="2.5"/><circle class="cls-4" cx="77.62" cy="116.7" r="5"/><circle class="cls-4" cx="80.58" cy="133.45" r="2"/><circle class="cls-4" cx="99.37" cy="144.86" r="2.5"/><rect class="cls-1" x="68" y="228.44" width="56.27" height="56.27" transform="translate(-174.83 297.19) rotate(-77.99)"/><circle class="cls-7" cx="96.13" cy="256.57" r="27.21"/><circle class="cls-3" cx="85.1" cy="241.97" r="3.69"/><circle class="cls-3" cx="109.19" cy="268.31" r="6.46"/><circle class="cls-4" cx="101.94" cy="240.36" r="2.31"/><circle class="cls-4" cx="78.87" cy="262.33" r="4.61"/><circle class="cls-4" cx="94.21" cy="265.6" r="1.84"/><circle class="cls-4" cx="110.46" cy="253.49" r="2.31"/><rect class="cls-1" x="157.02" y="288.8" width="65.87" height="65.87" transform="translate(-141.1 148.55) rotate(-31.83)"/><circle class="cls-8" cx="189.96" cy="321.73" r="31.86"/><circle class="cls-3" cx="168.79" cy="318.35" r="4.32"/><circle class="cls-3" cx="210.51" cy="321.05" r="7.56"/><circle class="cls-4" cx="181.72" cy="303.33" r="2.7"/><circle class="cls-4" cx="180.06" cy="340.59" r="5.4"/><circle class="cls-4" cx="195.65" cy="330.91" r="2.16"/><circle class="cls-4" cx="199.56" cy="307.51" r="2.7"/><rect class="cls-1" x="268.74" y="288.45" width="56.46" height="56.46" transform="translate(-60.41 70.19) rotate(-12.25)"/><circle class="cls-9" cx="296.96" cy="316.67" r="27.3"/><circle class="cls-3" cx="313.08" cy="325.49" r="3.7"/><circle class="cls-3" cx="280.18" cy="311.32" r="6.48"/><circle class="cls-4" cx="298.34" cy="333.9" r="2.31"/><circle class="cls-4" cx="310.38" cy="304.29" r="4.63"/><circle class="cls-4" cx="295" cy="307.63" r="1.85"/><circle class="cls-4" cx="285.13" cy="325.4" r="2.31"/><rect class="cls-1" x="319.23" y="169.62" width="57.8" height="57.8" transform="translate(112.89 522.97) rotate(-83.75)"/><circle class="cls-10" cx="348.13" cy="198.52" r="27.95"/><circle class="cls-3" cx="334.33" cy="211.31" r="3.79"/><circle class="cls-3" cx="358.78" cy="183.96" r="6.63"/><circle class="cls-4" cx="330.96" cy="194.26" r="2.37"/><circle class="cls-4" cx="355.79" cy="215.56" r="4.74"/><circle class="cls-4" cx="357.54" cy="199.55" r="1.89"/><circle class="cls-4" cx="343.5" cy="184.19" r="2.37"/><rect class="cls-1" x="304.07" y="70.06" width="53.75" height="53.75" transform="translate(55.68 304.66) rotate(-53.37)"/><circle class="cls-11" cx="330.94" cy="96.93" r="25.99"/><circle class="cls-3" cx="313.86" cy="100.7" r="3.52"/><circle class="cls-3" cx="346.33" cy="90.26" r="6.17"/><circle class="cls-4" cx="319.17" cy="85.44" r="2.2"/><circle class="cls-4" cx="329.07" cy="114.21" r="4.41"/><circle class="cls-4" cx="338.01" cy="102.19" r="1.76"/><circle class="cls-4" cx="333.97" cy="83.26" r="2.2"/><rect class="cls-1" x="208.86" y="11.71" width="56.52" height="56.52" transform="translate(42.14 180.7) rotate(-45.39)"/><circle class="cls-12" cx="237.13" cy="39.97" r="27.33"/><circle class="cls-3" cx="235.69" cy="21.63" r="3.71"/><circle class="cls-3" cx="241.83" cy="56.97" r="6.49"/><circle class="cls-4" cx="250.81" cy="29.39" r="2.32"/><circle class="cls-4" cx="219.4" cy="35.5" r="4.63"/><circle class="cls-4" cx="230.62" cy="46.56" r="1.85"/><circle class="cls-4" cx="250.92" cy="45.12" r="2.32"/><rect class="cls-1" x="112.03" y="13.11" width="60.83" height="60.83" transform="translate(28.88 139.9) rotate(-57.31)"/><circle class="cls-13" cx="142.45" cy="43.52" r="29.42"/><circle class="cls-3" cx="161.44" cy="37.94" r="3.99"/><circle class="cls-3" cx="125.59" cy="52.25" r="6.98"/><circle class="cls-4" cx="156.63" cy="55.59" r="2.49"/><circle class="cls-4" cx="143.21" cy="23.87" r="4.99"/><circle class="cls-4" cx="134.06" cy="38.14" r="1.99"/><circle class="cls-4" cx="140.1" cy="59.19" r="2.49"/><rect class="cls-1" x="32.45" y="113.84" width="60.23" height="60.23" transform="translate(-94.35 147.89) rotate(-67.95)"/><circle class="cls-14" cx="62.56" cy="143.96" r="29.13"/><circle class="cls-3" cx="80.02" cy="135.05" r="3.95"/><circle class="cls-3" cx="47.75" cy="155.53" r="6.91"/><circle class="cls-4" cx="78.56" cy="153.1" r="2.47"/><circle class="cls-4" cx="59.71" cy="124.69" r="4.94"/><circle class="cls-4" cx="53.41" cy="140.25" r="1.97"/><circle class="cls-4" cx="63.13" cy="159.63" r="2.47"/><rect class="cls-1" x="5.42" y="217.98" width="66.32" height="66.32" transform="translate(-44.55 11.04) rotate(-10.36)"/><circle class="cls-15" cx="38.58" cy="251.14" r="32.07"/><circle class="cls-3" cx="27.61" cy="269.72" r="4.35"/><circle class="cls-3" cx="45.52" cy="231.63" r="7.61"/><circle class="cls-4" cx="18.31" cy="252.08" r="2.72"/><circle class="cls-4" cx="52.6" cy="267.36" r="5.44"/><circle class="cls-4" cx="49.28" cy="249.18" r="2.17"/><circle class="cls-4" cx="28.8" cy="236.9" r="2.72"/><rect class="cls-1" x="110.13" y="304.55" width="65.87" height="65.87" transform="translate(-223.44 331.09) rotate(-66.03)"/><circle class="cls-16" cx="143.06" cy="337.49" r="31.86"/><circle class="cls-3" cx="162.47" cy="328.39" r="4.32"/><circle class="cls-3" cx="126.45" cy="349.6" r="7.56"/><circle class="cls-4" cx="160.22" cy="348.07" r="2.7"/><circle class="cls-4" cx="140.66" cy="316.32" r="5.4"/><circle class="cls-4" cx="133.2" cy="333.1" r="2.16"/><circle class="cls-4" cx="143.12" cy="354.65" r="2.7"/><rect class="cls-1" x="210.91" y="322.61" width="56.02" height="56.02" transform="translate(-180.64 413.74) rotate(-64.28)"/><circle class="cls-17" cx="238.92" cy="350.62" r="27.09"/><circle class="cls-3" cx="231.69" cy="333.89" r="3.67"/><circle class="cls-3" cx="248.79" cy="365.06" r="6.43"/><circle class="cls-4" cx="248.36" cy="336.31" r="2.3"/><circle class="cls-4" cx="220.87" cy="352.12" r="4.59"/><circle class="cls-4" cx="234.94" cy="358.9" r="1.84"/><circle class="cls-4" cx="253.51" cy="351.02" r="2.3"/><rect class="cls-1" x="316.74" y="266.4" width="53.71" height="53.71" transform="translate(-3.68 582.14) rotate(-80.24)"/><circle class="cls-18" cx="343.59" cy="293.25" r="25.97"/><circle class="cls-3" cx="332.52" cy="279.73" r="3.52"/><circle class="cls-3" cx="356.49" cy="303.96" r="6.16"/><circle class="cls-4" cx="348.52" cy="277.57" r="2.2"/><circle class="cls-4" cx="327.35" cy="299.39" r="4.4"/><circle class="cls-4" cx="342.1" cy="301.93" r="1.76"/><circle class="cls-4" cx="357.15" cy="289.78" r="2.2"/><rect class="cls-1" x="344.4" y="165.05" width="65.55" height="65.55" transform="translate(162.61 565.74) rotate(-87.43)"/><circle class="cls-19" cx="377.17" cy="197.83" r="31.7"/><circle class="cls-3" cx="392.65" cy="212.51" r="4.3"/><circle class="cls-3" cx="359.92" cy="186.83" r="7.52"/><circle class="cls-4" cx="373.59" cy="217.57" r="2.69"/><circle class="cls-4" cx="395.9" cy="187.91" r="5.37"/><circle class="cls-4" cx="377.65" cy="187.09" r="2.15"/><circle class="cls-4" cx="361.29" cy="204.11" r="2.69"/><rect class="cls-1" x="231.91" y="112.45" width="62.38" height="62.38" transform="translate(-9.95 19.96) rotate(-4.27)"/><circle class="cls-20" cx="263.1" cy="143.64" r="30.17"/><circle class="cls-3" cx="275.22" cy="127.36" r="4.09"/><circle class="cls-3" cx="254.67" cy="161.19" r="7.16"/><circle class="cls-4" cx="282.16" cy="144.79" r="2.56"/><circle class="cls-4" cx="251.61" cy="127.07" r="5.11"/><circle class="cls-4" cx="252.9" cy="144.41" r="2.05"/><circle class="cls-4" cx="270.83" cy="157.94" r="2.56"/><rect class="cls-1" x="155.58" y="76.36" width="62.53" height="62.53" transform="translate(35.48 261.21) rotate(-75.36)"/><circle class="cls-21" cx="186.85" cy="107.63" r="30.24"/><circle class="cls-3" cx="203.63" cy="96.12" r="4.1"/><circle class="cls-3" cx="173.15" cy="121.54" r="7.18"/><circle class="cls-4" cx="204.55" cy="114.9" r="2.56"/><circle class="cls-4" cx="181.33" cy="88.18" r="5.13"/><circle class="cls-4" cx="176.93" cy="105.04" r="2.05"/><circle class="cls-4" cx="189.54" cy="123.7" r="2.56"/><rect class="cls-1" x="91.61" y="149.2" width="60.93" height="60.93" transform="translate(-83.62 109.87) rotate(-37.06)"/><circle class="cls-22" cx="122.07" cy="179.67" r="29.47"/><circle class="cls-3" cx="102.29" cy="178.33" r="4"/><circle class="cls-3" cx="140.94" cy="177.3" r="6.99"/><circle class="cls-4" cx="112.93" cy="163.41" r="2.5"/><circle class="cls-4" cx="114.54" cy="197.87" r="4.99"/><circle class="cls-4" cx="128.09" cy="187.64" r="2"/><circle class="cls-4" cx="129.72" cy="165.75" r="2.5"/><rect class="cls-1" x="131.73" y="238.24" width="55.98" height="55.98" transform="translate(-40.97 29.35) rotate(-9.31)"/><circle class="cls-23" cx="159.72" cy="266.23" r="27.07"/><circle class="cls-3" cx="144.2" cy="256.69" r="3.67"/><circle class="cls-3" cx="176.07" cy="272.39" r="6.42"/><circle class="cls-4" cx="159.23" cy="249.11" r="2.29"/><circle class="cls-4" cx="145.81" cy="277.82" r="4.59"/><circle class="cls-4" cx="161.2" cy="275.29" r="1.84"/><circle class="cls-4" cx="171.88" cy="258.2" r="2.29"/><rect class="cls-1" x="216.87" y="243.94" width="58.76" height="58.76" transform="translate(-50.79 490.37) rotate(-84.14)"/><circle class="cls-24" cx="246.25" cy="273.32" r="28.42"/><circle class="cls-3" cx="232.32" cy="286.42" r="3.85"/><circle class="cls-3" cx="256.98" cy="258.45" r="6.74"/><circle class="cls-4" cx="228.77" cy="269.11" r="2.41"/><circle class="cls-4" cx="254.16" cy="290.6" r="4.82"/><circle class="cls-4" cx="255.83" cy="274.31" r="1.93"/><circle class="cls-4" cx="241.45" cy="258.79" r="2.41"/><rect class="cls-1" x="277.4" y="166.14" width="63.94" height="63.94" transform="translate(-29.75 339.36) rotate(-55.25)"/><circle class="cls-25" cx="309.37" cy="198.11" r="30.92"/><circle class="cls-3" cx="314.52" cy="218.27" r="4.19"/><circle class="cls-3" cx="300.84" cy="180.07" r="7.34"/><circle class="cls-4" cx="296.16" cy="212.55" r="2.62"/><circle class="cls-4" cx="329.99" cy="199.65" r="5.24"/><circle class="cls-4" cx="315.35" cy="189.5" r="2.1"/><circle class="cls-4" cx="293" cy="195.04" r="2.62"/><rect class="cls-1" x="184.23" y="142.95" width="56.89" height="56.89" transform="translate(25.73 370.53) rotate(-85.67)"/><circle class="cls-26" cx="212.67" cy="171.39" r="27.51"/><circle class="cls-3" cx="199.53" cy="184.43" r="3.73"/><circle class="cls-3" cx="222.67" cy="156.72" r="6.53"/><circle class="cls-4" cx="195.64" cy="167.77" r="2.33"/><circle class="cls-4" cx="220.78" cy="187.91" r="4.66"/><circle class="cls-4" cx="221.97" cy="172.1" r="1.87"/><circle class="cls-4" cx="207.65" cy="157.45" r="2.33"/><rect class="cls-1" x="148.45" y="187.26" width="55.8" height="55.8" transform="translate(-75.28 333.81) rotate(-75.91)"/><circle class="cls-27" cx="176.35" cy="215.16" r="26.99"/><circle class="cls-3" cx="161.48" cy="225.57" r="3.66"/><circle class="cls-3" cx="188.46" cy="202.64" r="6.4"/><circle class="cls-4" cx="160.49" cy="208.82" r="2.29"/><circle class="cls-4" cx="181.44" cy="232.47" r="4.57"/><circle class="cls-4" cx="185.22" cy="217.39" r="1.83"/><circle class="cls-4" cx="173.81" cy="200.85" r="2.29"/><rect class="cls-1" x="211.46" y="167.13" width="56.16" height="56.16" transform="translate(-49.75 86.6) rotate(-18.6)"/><circle class="cls-28" cx="239.54" cy="195.2" r="27.16"/><circle class="cls-3" cx="232.6" cy="212.11" r="3.68"/><circle class="cls-3" cx="242.98" cy="178.02" r="6.44"/><circle class="cls-4" cx="222.67" cy="198.46" r="2.3"/><circle class="cls-4" cx="253.26" cy="207.1" r="4.6"/><circle class="cls-4" cx="248.27" cy="192.27" r="1.84"/><circle class="cls-4" cx="229.61" cy="184.46" r="2.3"/></g></g></svg>