<?xml version="1.0"?>
<svg width="580" height="113" xmlns="http://www.w3.org/2000/svg">

 <g>
  <title>background</title>
  <rect fill="none" id="canvas_background" height="115" width="582" y="-1" x="-1"/>
 </g>
 <g>
  <title>Layer 1</title>
  <g id="svg_1">
   <path id="svg_2" d="m94.822998,0c3.895004,6.432983 5.651001,13.05899 5.651001,21.428986c0,26.696014 -22.789001,61.376007 -41.285004,85.727997l-42.245991,0l-16.943005,-101.311981l36.990997,-3.512009l8.958008,72.090012c8.369995,-13.636017 18.69899,-35.065002 18.69899,-49.675018c0,-7.996979 -1.369995,-13.444 -3.511002,-17.928986l33.686005,-6.819z" fill="#3D95CE"/>
   <path id="svg_3" d="m142.764984,44.612c6.807007,0 23.944,-3.114014 23.944,-12.854004c0,-4.677002 -3.307007,-7.01001 -7.20401,-7.01001c-6.817993,0.000031 -15.764984,8.176025 -16.73999,19.864014zm-0.779999,19.290009c0,11.893005 6.613007,16.55899 15.380005,16.55899c9.546997,0 18.687988,-2.332977 30.569,-8.371002l-4.475006,30.388c-8.371002,4.089996 -21.416992,6.819 -34.080017,6.819c-32.120987,0 -43.616989,-19.47998 -43.616989,-43.832977c0,-31.564026 18.699997,-65.07901 57.253006,-65.07901c21.225983,0 33.095001,11.891998 33.095001,28.450989c0.002014,26.695007 -34.259979,34.873016 -54.125,35.06601z" fill="#3D95CE"/>
   <path id="svg_4" d="m302.860992,23.774017c0,3.895996 -0.591003,9.546997 -1.179016,13.23999l-11.099976,70.141998l-36.019012,0l10.125,-64.297974c0.192017,-1.744019 0.782013,-5.255005 0.782013,-7.203003c0,-4.677002 -2.921997,-5.844025 -6.434998,-5.844025c-4.666016,0 -9.343018,2.141022 -12.458008,3.70401l-11.484009,73.641998l-36.221985,0l16.547974,-105.014999l31.350006,0l0.397003,8.382004c7.395996,-4.869995 17.13501,-10.136993 30.953003,-10.136993c18.307007,-0.002014 24.742004,9.352997 24.742004,23.386993z" fill="#3D95CE"/>
   <path id="svg_5" d="m409.790985,11.881012c10.315979,-7.396011 20.057007,-11.496002 33.487976,-11.496002c18.494965,0 24.92807,9.355011 24.92807,23.389008c0,3.895996 -0.588989,9.546997 -1.177002,13.23999l-11.087036,70.141998l-36.029022,0l10.317993,-65.657013c0.190002,-1.754974 0.588989,-3.895966 0.588989,-5.253998c0,-5.265991 -2.922974,-6.43399 -6.434998,-6.43399c-4.473999,0 -8.945984,1.947998 -12.265991,3.70401l-11.481995,73.641998l-36.019989,0l10.317993,-65.656982c0.190002,-1.755005 0.576996,-3.896027 0.576996,-5.254028c0,-5.265991 -2.923981,-6.43399 -6.423981,-6.43399c-4.675995,0 -9.343018,2.140991 -12.458008,3.70401l-11.493011,73.641998l-36.209991,0l16.54599,-105.015015l30.96701,0l0.972992,8.766998c7.20401,-5.253998 16.934998,-10.520996 29.980011,-10.520996c11.295013,-0.003998 18.690033,4.867004 22.397003,11.492004z" fill="#3D95CE"/>
   <path id="svg_6" d="m539.890991,42.472992c0,-8.572998 -2.144043,-14.417999 -8.564026,-14.417999c-14.214966,0 -17.133972,25.131012 -17.133972,37.987c0,9.752991 2.729004,15.789001 9.146973,15.789001c13.435974,0 16.551025,-26.502991 16.551025,-39.358002zm-62.302979,22.017029c0,-33.117004 17.52002,-64.105011 57.829956,-64.105011c30.373962,0 41.47699,17.929016 41.47699,42.675995c0,32.733002 -17.330994,66.631012 -58.612976,66.631012c-30.570007,0 -40.69397,-20.070007 -40.69397,-45.201996z" fill="#3D95CE"/>
  </g>
 </g>
</svg>